blackcompressed.ufo
<glyph name="exclam" format="1">
  <advance width="211"/>
  <unicode hex="0021"/>
  <outline>
    <contour>
      <point x="194" y="67"/>
      <point x="26" y="67"/>
      <point x="194" y="67" type="curve"/>
      <point x="194" y="115"/>
      <point x="158" y="139"/>
      <point x="109" y="139" type="curve"/>
      <point x="59" y="139"/>
      <point x="26" y="113"/>
      <point x="26" y="67" type="curve"/>
      <point x="194" y="67"/>
      <point x="26" y="67"/>
      <point x="194" y="67" type="curve"/>
      <point x="194" y="18"/>
      <point x="159" y="-4"/>
      <point x="109" y="-4" type="curve"/>
      <point x="58" y="-4"/>
      <point x="26" y="20"/>
      <point x="26" y="67" type="curve"/>
    </contour>
    <contour>
      <point x="180.25" y="246.017094017"/>
      <point x="37.25" y="246.017094017"/>
      <point x="180.25" y="246.017094017" type="curve"/>
      <point x="180.25" y="389.163573269"/>
      <point x="180" y="579"/>
      <point x="180" y="722" type="curve"/>
      <point x="37" y="722"/>
      <point x="180" y="722"/>
      <point x="37" y="722" type="curve"/>
      <point x="37" y="579"/>
      <point x="37.25" y="389.163573269"/>
      <point x="37.25" y="246.017094017" type="curve"/>
    </contour>
  </outline>
</glyph>
<glyph name="quotedbl" format="1">
  <advance width="394"/>
  <unicode hex="0022"/>
  <outline>
    <contour>
      <point x="181" y="658"/>
      <point x="38" y="658"/>
      <point x="181" y="658" type="curve"/>
      <point x="181" y="720.66604"/>
      <point x="181" y="783.33396"/>
      <point x="181" y="846" type="curve"/>
      <point x="38" y="846"/>
      <point x="181" y="846"/>
      <point x="38" y="846" type="curve"/>
      <point x="38.0" y="783.33396"/>
      <point x="38.0" y="720.66604"/>
      <point x="38" y="658" type="curve"/>
    </contour>
    <contour>
      <point x="368" y="658"/>
      <point x="231" y="658"/>
      <point x="368" y="658" type="curve"/>
      <point x="368" y="721"/>
      <point x="368" y="783"/>
      <point x="368" y="846" type="curve"/>
      <point x="231" y="846"/>
      <point x="368" y="846"/>
      <point x="231" y="846" type="curve"/>
      <point x="231" y="783"/>
      <point x="231" y="721"/>
      <point x="231" y="658" type="curve"/>
    </contour>
  </outline>
</glyph>
<glyph name="numbersign" format="1">
  <advance width="582"/>
  <unicode hex="0023"/>
  <outline>
    <contour>
      <point x="47" y="217" type="curve"/>
      <point x="170" y="217"/>
      <point x="330" y="217"/>
      <point x="452" y="217" type="curve"/>
      <point x="480" y="328"/>
      <point x="452" y="217"/>
      <point x="480" y="328" type="curve"/>
      <point x="371" y="328"/>
      <point x="213" y="328"/>
      <point x="75" y="328" type="curve"/>
      <point x="47" y="217"/>
      <point x="75" y="328"/>
    </contour>
    <contour>
      <point x="97" y="429"/>
      <point x="123" y="540"/>
      <point x="97" y="429" type="curve"/>
      <point x="220" y="429"/>
      <point x="380" y="429"/>
      <point x="502" y="429" type="curve"/>
      <point x="530" y="540"/>
      <point x="502" y="429"/>
      <point x="530" y="540" type="curve"/>
      <point x="421" y="540"/>
      <point x="263" y="540"/>
      <point x="123" y="540" type="curve"/>
    </contour>
    <contour>
      <point x="386" y="39"/>
      <point x="243" y="39"/>
      <point x="386" y="39" type="curve"/>
      <point x="386" y="39"/>
      <point x="548" y="722"/>
      <point x="548" y="722" type="curve"/>
      <point x="405" y="722"/>
      <point x="548" y="722"/>
      <point x="405" y="722" type="curve"/>
      <point x="405" y="722"/>
      <point x="243" y="39"/>
      <point x="243" y="39" type="curve"/>
    </contour>
    <contour>
      <point x="173" y="46"/>
      <point x="36" y="46"/>
      <point x="173" y="46" type="curve"/>
      <point x="173" y="46"/>
      <point x="335" y="722"/>
      <point x="335" y="722" type="curve"/>
      <point x="192" y="722"/>
      <point x="335" y="722"/>
      <point x="192" y="722" type="curve"/>
      <point x="192" y="722"/>
      <point x="36" y="46"/>
      <point x="36" y="46" type="curve"/>
    </contour>
  </outline>
</glyph>
<glyph name="dollar" format="1">
  <advance width="457"/>
  <unicode hex="0024"/>
  <outline>
    <contour>
      <point x="143" y="91"/>
      <point x="31" y="91"/>
      <point x="143" y="91" type="curve"/>
      <point x="143" y="211"/>
      <point x="143" y="91"/>
      <point x="143" y="211" type="curve"/>
      <point x="31" y="211"/>
      <point x="143" y="211"/>
      <point x="31" y="211" type="curve"/>
      <point x="31" y="91"/>
      <point x="31" y="211"/>
      <point x="31" y="91" type="curve"/>
    </contour>
    <contour>
      <point x="289" y="636"/>
      <point x="401" y="636"/>
      <point x="289" y="636" type="curve"/>
      <point x="289" y="516"/>
      <point x="289" y="636"/>
      <point x="289" y="516" type="curve"/>
      <point x="401" y="516"/>
      <point x="289" y="516"/>
      <point x="401" y="516" type="curve"/>
      <point x="401" y="636"/>
      <point x="401" y="516"/>
      <point x="401" y="636" type="curve"/>
    </contour>
    <contour>
      <point x="284" y="-42"/>
      <point x="141" y="-42"/>
      <point x="284" y="-42" type="curve"/>
      <point x="284" y="-12"/>
      <point x="284" y="67"/>
      <point x="284" y="97" type="curve"/>
      <point x="141" y="97"/>
      <point x="284" y="97"/>
      <point x="141" y="97" type="curve"/>
      <point x="141" y="67"/>
      <point x="141" y="-12"/>
      <point x="141" y="-42" type="curve"/>
    </contour>
    <contour>
      <point x="293" y="632"/>
      <point x="150" y="632"/>
      <point x="293" y="632" type="curve"/>
      <point x="293" y="662"/>
      <point x="293" y="743"/>
      <point x="293" y="773" type="curve"/>
      <point x="150" y="773"/>
      <point x="293" y="773"/>
      <point x="150" y="773" type="curve"/>
      <point x="150" y="743"/>
      <point x="150" y="662"/>
      <point x="150" y="632" type="curve"/>
    </contour>
    <contour>
      <point x="31" y="91"/>
      <point x="109" y="190"/>
      <point x="31" y="91" type="curve"/>
      <point x="79" y="63"/>
      <point x="138" y="42"/>
      <point x="206" y="42" type="curve"/>
      <point x="342" y="42"/>
      <point x="445" y="109"/>
      <point x="445" y="221" type="curve"/>
      <point x="445" y="317"/>
      <point x="363" y="374"/>
      <point x="265" y="423" type="curve"/>
      <point x="211" y="450"/>
      <point x="164" y="469"/>
      <point x="164" y="520" type="curve"/>
      <point x="164" y="552"/>
      <point x="186" y="578"/>
      <point x="222" y="578" type="curve"/>
      <point x="265" y="578"/>
      <point x="294" y="564"/>
      <point x="330" y="542" type="curve"/>
      <point x="401" y="636"/>
      <point x="330" y="542"/>
      <point x="401" y="636" type="curve"/>
      <point x="345" y="670"/>
      <point x="297" y="688"/>
      <point x="228" y="688" type="curve"/>
      <point x="107" y="688"/>
      <point x="21" y="623"/>
      <point x="21" y="520" type="curve"/>
      <point x="21" y="425"/>
      <point x="86" y="370"/>
      <point x="181" y="323" type="curve"/>
      <point x="240" y="295"/>
      <point x="302" y="273"/>
      <point x="302" y="216" type="curve"/>
      <point x="302" y="176"/>
      <point x="266" y="152"/>
      <point x="219" y="152" type="curve"/>
      <point x="175" y="152"/>
      <point x="139" y="173"/>
      <point x="109" y="190" type="curve"/>
    </contour>
  </outline>
</glyph>
<glyph name="percent" format="1">
  <advance width="802"/>
  <unicode hex="0025"/>
  <outline>
    <contour>
      <point x="556" y="200"/>
      <point x="429" y="200"/>
      <point x="552" y="200" type="curve"/>
      <point x="552" y="253"/>
      <point x="556" y="304"/>
      <point x="602" y="304" type="curve"/>
      <point x="648" y="304"/>
      <point x="654" y="252"/>
      <point x="654" y="199" type="curve"/>
      <point x="654" y="147"/>
      <point x="653" y="95"/>
      <point x="609" y="95" type="curve"/>
      <point x="562" y="95"/>
      <point x="552" y="146"/>
      <point x="552" y="200" type="curve"/>
      <point x="429" y="200"/>
      <point x="556" y="200"/>
      <point x="433" y="200" type="curve"/>
      <point x="433" y="85"/>
      <point x="494" y="-5"/>
      <point x="603" y="-5" type="curve"/>
      <point x="715" y="-5"/>
      <point x="779" y="84"/>
      <point x="779" y="204" type="curve"/>
      <point x="779" y="317"/>
      <point x="715" y="404"/>
      <point x="608" y="404" type="curve"/>
      <point x="495" y="405"/>
      <point x="433" y="318"/>
      <point x="433" y="200" type="curve"/>
    </contour>
    <contour>
      <point x="145" y="635"/>
      <point x="18" y="635"/>
      <point x="141" y="635" type="curve"/>
      <point x="141" y="688"/>
      <point x="145" y="739"/>
      <point x="191" y="739" type="curve"/>
      <point x="238" y="740"/>
      <point x="243" y="687"/>
      <point x="243" y="633" type="curve"/>
      <point x="243" y="581"/>
      <point x="242" y="529"/>
      <point x="198" y="529" type="curve"/>
      <point x="151" y="529"/>
      <point x="141" y="581"/>
      <point x="141" y="635" type="curve"/>
      <point x="18" y="635"/>
      <point x="145" y="635"/>
      <point x="22" y="635" type="curve"/>
      <point x="22" y="518"/>
      <point x="79" y="430"/>
      <point x="192" y="430" type="curve"/>
      <point x="304" y="430"/>
      <point x="368" y="519"/>
      <point x="368" y="638" type="curve"/>
      <point x="368" y="752"/>
      <point x="304" y="839"/>
      <point x="197" y="838" type="curve"/>
      <point x="84" y="838"/>
      <point x="22" y="753"/>
      <point x="22" y="635" type="curve"/>
    </contour>
    <contour>
      <point x="309" y="0"/>
      <point x="180" y="0"/>
      <point x="309" y="0" type="curve"/>
      <point x="415" y="284"/>
      <point x="522" y="568"/>
      <point x="628" y="852" type="curve"/>
      <point x="499" y="852"/>
      <point x="628" y="852"/>
      <point x="499" y="852" type="curve"/>
      <point x="393" y="568"/>
      <point x="286" y="284"/>
      <point x="180" y="0" type="curve"/>
    </contour>
  </outline>
</glyph>
<glyph name="plus" format="1">
  <advance width="594"/>
  <unicode hex="002B"/>
  <outline>
    <contour>
      <point x="42.0" y="254.928703704"/>
      <point x="42.0" y="376.478703704"/>
      <point x="42.0" y="254.928703704" type="curve"/>
      <point x="42.0" y="254.928703704"/>
      <point x="563" y="255"/>
      <point x="563" y="255" type="curve"/>
      <point x="563" y="376"/>
      <point x="563" y="255"/>
      <point x="563" y="376" type="curve"/>
      <point x="563" y="376"/>
      <point x="42.0" y="376.478703704"/>
      <point x="42.0" y="376.478703704" type="curve"/>
    </contour>
    <contour>
      <point x="379" y="18"/>
      <point x="226" y="18"/>
      <point x="369" y="18" type="curve"/>
      <point x="369" y="18"/>
      <point x="369" y="588"/>
      <point x="369" y="588" type="curve"/>
      <point x="226" y="588"/>
      <point x="379" y="588"/>
      <point x="236" y="588" type="curve"/>
      <point x="236" y="588"/>
      <point x="236" y="18"/>
      <point x="236" y="18" type="curve"/>
    </contour>
  </outline>
</glyph>
<glyph name="comma" format="1">
  <advance width="298"/>
  <unicode hex="002C"/>
  <outline>
    <contour>
      <point x="177" y="-99"/>
      <point x="34" y="-99"/>
      <point x="177" y="-99" type="curve"/>
      <point x="277" y="82"/>
      <point x="177" y="-99"/>
      <point x="277" y="82" type="curve"/>
      <point x="95" y="82"/>
      <point x="277" y="82"/>
      <point x="95" y="82" type="curve"/>
      <point x="34" y="-99"/>
      <point x="95" y="82"/>
      <point x="34" y="-99" type="curve"/>
    </contour>
  </outline>
</glyph>
<glyph name="hyphen" format="1">
  <advance width="472"/>
  <unicode hex="002D"/>
  <outline>
    <contour>
      <point x="68.25" y="222.698646724"/>
      <point x="68.25" y="344.248646724"/>
      <point x="68.25" y="222.698646724" type="curve"/>
      <point x="140.9992725" y="222.698646724"/>
      <point x="213.7507275" y="222.698646724"/>
      <point x="286.5" y="222.698646724" type="curve"/>
      <point x="286.5" y="344.248646724"/>
      <point x="286.5" y="222.698646724"/>
      <point x="286.5" y="344.248646724" type="curve"/>
      <point x="213.7507275" y="344.248646724"/>
      <point x="140.9992725" y="344.248646724"/>
      <point x="68.25" y="344.248646724" type="curve"/>
    </contour>
  </outline>
</glyph>
<glyph name="period" format="1">
  <advance width="216"/>
  <unicode hex="002E"/>
  <outline>
    <contour>
      <point x="194.05" y="62.2186609687"/>
      <point x="25.7" y="62.2186609687"/>
      <point x="194.05" y="62.2186609687" type="curve"/>
      <point x="194.05" y="109.870903869"/>
      <point x="158.295688321" y="134.202952279"/>
      <point x="108.75" y="134.202952279" type="curve"/>
      <point x="59.2482430547" y="134.202952279"/>
      <point x="25.7" y="107.664118259"/>
      <point x="25.7" y="62.2186609687" type="curve"/>
      <point x="194.05" y="62.2186609687"/>
      <point x="25.7" y="62.2186609687"/>
      <point x="194.05" y="62.2186609687" type="curve"/>
      <point x="194.05" y="13.2650724072"/>
      <point x="158.924243738" y="-8.8945477208"/>
      <point x="108.75" y="-8.8945477208" type="curve"/>
      <point x="58.3796339292" y="-8.8945477208"/>
      <point x="25.7" y="15.3148850718"/>
      <point x="25.7" y="62.2186609687" type="curve"/>
    </contour>
  </outline>
</glyph>
<glyph name="slash" format="1">
  <advance width="559"/>
  <unicode hex="002F"/>
  <outline>
    <contour>
      <point x="185" y="-13"/>
      <point x="42" y="-13"/>
      <point x="185" y="-13" type="curve"/>
      <point x="291" y="252"/>
      <point x="398" y="517"/>
      <point x="504" y="782" type="curve"/>
      <point x="361" y="782"/>
      <point x="504" y="782"/>
      <point x="361" y="782" type="curve"/>
      <point x="255" y="517"/>
      <point x="148" y="252"/>
      <point x="42" y="-13" type="curve"/>
    </contour>
  </outline>
</glyph>
<glyph name="zero" format="1">
  <advance width="583"/>
  <unicode hex="0030"/>
  <outline>
    <contour>
      <point x="161.625" y="360.128917379"/>
      <point x="25.125" y="360.128917379"/>
      <point x="161.625" y="360.128917379" type="curve"/>
      <point x="161.625" y="496.955939404"/>
      <point x="172.260656148" y="611.5"/>
      <point x="289.75" y="611.5" type="curve"/>
      <point x="407.782905559" y="611.5"/>
      <point x="427.875" y="499.616983922"/>
      <point x="427.875" y="362.742165242" type="curve"/>
      <point x="427.875" y="226.089571347"/>
      <point x="417.918215235" y="110.5"/>
      <point x="300.625" y="110.5" type="curve"/>
      <point x="182.086130257" y="110.5"/>
      <point x="161.625" y="222.905439372"/>
      <point x="161.625" y="360.128917379" type="curve"/>
      <point x="25.125" y="360.128917379"/>
      <point x="161.625" y="360.128917379"/>
      <point x="25.125" y="360.128917379" type="curve"/>
      <point x="25.125" y="149.889118451"/>
      <point x="103.133533441" y="-5.0"/>
      <point x="294.125" y="-5" type="curve"/>
      <point x="486.52406537" y="-5.0"/>
      <point x="564.375" y="150.487193391"/>
      <point x="564.375" y="362.742165242" type="curve"/>
      <point x="564.375" y="571.858710495"/>
      <point x="491" y="727"/>
      <point x="303" y="727" type="curve"/>
      <point x="108" y="727"/>
      <point x="25.125" y="572.637772515"/>
      <point x="25.125" y="360.128917379" type="curve"/>
    </contour>
  </outline>
</glyph>
<glyph name="two" format="1">
  <advance width="463"/>
  <unicode hex="0032"/>
  <outline>
    <contour>
      <point x="439" y="110"/>
      <point x="327" y="110"/>
      <point x="439" y="110" type="curve"/>
      <point x="439" y="231"/>
      <point x="439" y="90"/>
      <point x="439" y="211" type="curve"/>
      <point x="327" y="211"/>
      <point x="439" y="211"/>
      <point x="327" y="211" type="curve"/>
      <point x="327" y="90"/>
      <point x="327" y="231"/>
      <point x="327" y="110" type="curve"/>
    </contour>
    <contour>
      <point x="18" y="0"/>
      <point x="19" y="110"/>
      <point x="18" y="0" type="curve"/>
      <point x="186" y="0"/>
      <point x="338" y="0"/>
      <point x="439" y="0" type="curve"/>
      <point x="439" y="110"/>
      <point x="439" y="0"/>
      <point x="439" y="110" type="curve"/>
      <point x="316" y="110"/>
      <point x="142.5821" y="110.5"/>
      <point x="19.25" y="110.5" type="curve"/>
    </contour>
    <contour>
      <point x="114" y="518"/>
      <point x="16" y="576"/>
      <point x="114" y="518" type="curve"/>
      <point x="145" y="570"/>
      <point x="162.699326937" y="611.5"/>
      <point x="216.875" y="611.5" type="curve"/>
      <point x="269.754641704" y="611.5"/>
      <point x="287" y="565"/>
      <point x="287" y="502" type="curve"/>
      <point x="287" y="410"/>
      <point x="245" y="349"/>
      <point x="181" y="282" type="curve"/>
      <point x="127" y="223"/>
      <point x="77" y="171"/>
      <point x="19.25" y="110.5" type="curve"/>
      <point x="18" y="0"/>
      <point x="19" y="110"/>
      <point x="18" y="0" type="curve"/>
      <point x="148" y="54"/>
      <point x="208.47125195" y="133.455405359"/>
      <point x="269.75" y="200.946011396" type="curve"/>
      <point x="362.609200421" y="296.353968574"/>
      <point x="419" y="375"/>
      <point x="419" y="508" type="curve"/>
      <point x="419" y="643"/>
      <point x="350.999137394" y="727"/>
      <point x="223.375" y="727" type="curve"/>
      <point x="121.445771952" y="727"/>
      <point x="53.1345412799" y="668.102047706"/>
      <point x="15.625" y="576.206267806" type="curve"/>
    </contour>
  </outline>
</glyph>
<glyph name="four" format="1">
  <advance width="534"/>
  <unicode hex="0034"/>
  <outline>
    <contour>
      <point x="321" y="110"/>
      <point x="321" y="0"/>
      <point x="321" y="110" type="curve"/>
      <point x="184" y="110"/>
      <point x="321" y="110"/>
      <point x="184" y="110" type="curve"/>
      <point x="184" y="0"/>
      <point x="184" y="110"/>
      <point x="184" y="0" type="curve"/>
      <point x="230" y="0"/>
      <point x="276" y="0"/>
      <point x="321" y="0" type="curve"/>
    </contour>
    <contour>
      <point x="321" y="0"/>
      <point x="321" y="110"/>
      <point x="321" y="0" type="curve"/>
      <point x="367" y="0"/>
      <point x="413" y="0"/>
      <point x="459" y="0" type="curve"/>
      <point x="459" y="110"/>
      <point x="459" y="0"/>
      <point x="459" y="110" type="curve"/>
      <point x="321" y="110"/>
      <point x="459" y="110"/>
      <point x="321" y="110" type="curve"/>
    </contour>
    <contour>
      <point x="81" y="226"/>
      <point x="18" y="348"/>
      <point x="81" y="226" type="curve"/>
      <point x="393" y="696"/>
      <point x="81" y="226"/>
      <point x="394" y="696" type="curve"/>
      <point x="251" y="696"/>
      <point x="394" y="696"/>
      <point x="251" y="696" type="curve"/>
      <point x="19" y="349"/>
      <point x="250" y="695"/>
      <point x="18" y="348" type="curve"/>
    </contour>
    <contour>
      <point x="470" y="348"/>
      <point x="470" y="226"/>
      <point x="470" y="348" type="curve"/>
      <point x="470" y="348"/>
      <point x="18" y="348"/>
      <point x="18" y="348" type="curve"/>
      <point x="81" y="226"/>
      <point x="18" y="348"/>
      <point x="81" y="226" type="curve"/>
      <point x="81" y="226"/>
      <point x="470" y="226"/>
      <point x="470" y="226" type="curve"/>
    </contour>
    <contour>
      <point x="251" y="696"/>
      <point x="397" y="696"/>
      <point x="254" y="696" type="curve"/>
      <point x="254" y="696"/>
      <point x="254" y="47"/>
      <point x="254" y="47" type="curve"/>
      <point x="397" y="47"/>
      <point x="251" y="47"/>
      <point x="394" y="47" type="curve"/>
      <point x="394" y="47"/>
      <point x="394" y="696"/>
      <point x="394" y="696" type="curve"/>
    </contour>
  </outline>
</glyph>
<glyph name="five" format="1">
  <advance width="545"/>
  <unicode hex="0035"/>
  <outline>
    <contour>
      <point x="29.625" y="722"/>
      <point x="166.125" y="611.5"/>
      <point x="29.625" y="722" type="curve"/>
      <point x="29.625" y="628.110803574"/>
      <point x="30" y="524"/>
      <point x="30" y="390" type="curve"/>
      <point x="166" y="347"/>
      <point x="30" y="390"/>
      <point x="166" y="347" type="curve"/>
      <point x="166" y="432"/>
      <point x="166.125" y="526.819044824"/>
      <point x="166.125" y="611.5" type="curve"/>
    </contour>
    <contour>
      <point x="166" y="347"/>
      <point x="30" y="390"/>
      <point x="166" y="347" type="curve"/>
      <point x="175" y="357"/>
      <point x="182" y="365"/>
      <point x="200" y="365" type="curve"/>
      <point x="255" y="365"/>
      <point x="268.25" y="308.848188941"/>
      <point x="268.25" y="241.661680912" type="curve"/>
      <point x="268.25" y="173.515552319"/>
      <point x="241" y="110"/>
      <point x="181" y="110" type="curve"/>
      <point x="144" y="110"/>
      <point x="120.163777146" y="121.414057527"/>
      <point x="90.125" y="142.431552707" type="curve"/>
      <point x="18.625" y="42.9815527066"/>
      <point x="90.125" y="142.431552707"/>
      <point x="18.625" y="42.9815527066" type="curve"/>
      <point x="69.4504872106" y="9.76382119816"/>
      <point x="114" y="-5"/>
      <point x="174" y="-5" type="curve"/>
      <point x="313" y="-5"/>
      <point x="411.25" y="99.5468073017"/>
      <point x="411.25" y="241.661680912" type="curve"/>
      <point x="411.25" y="379.033867489"/>
      <point x="339" y="483"/>
      <point x="206" y="483" type="curve"/>
      <point x="146" y="483"/>
      <point x="76" y="447"/>
      <point x="30" y="390" type="curve"/>
    </contour>
    <contour>
      <point x="384" y="722"/>
      <point x="384" y="612"/>
      <point x="384" y="722" type="curve"/>
      <point x="279" y="722"/>
      <point x="134.74894875" y="722"/>
      <point x="29.625" y="722" type="curve"/>
      <point x="166.125" y="611.5"/>
      <point x="29.625" y="722"/>
      <point x="166.125" y="611.5" type="curve"/>
      <point x="225.74940375" y="611.5"/>
      <point x="324" y="612"/>
      <point x="384" y="612" type="curve"/>
    </contour>
  </outline>
</glyph>
<glyph name="eight" format="1">
  <advance width="485"/>
  <unicode hex="0038"/>
  <outline>
    <contour>
      <point x="36" y="536"/>
      <point x="179" y="536"/>
      <point x="36" y="536" type="curve"/>
      <point x="36" y="432"/>
      <point x="104" y="390"/>
      <point x="196" y="338" type="curve"/>
      <point x="262" y="299"/>
      <point x="310" y="265"/>
      <point x="310" y="195" type="curve"/>
      <point x="310" y="144"/>
      <point x="287" y="111"/>
      <point x="239" y="111" type="curve"/>
      <point x="189" y="111"/>
      <point x="165" y="143"/>
      <point x="165" y="195" type="curve"/>
      <point x="165" y="267"/>
      <point x="214" y="297"/>
      <point x="281" y="337" type="curve"/>
      <point x="370" y="390"/>
      <point x="439" y="432"/>
      <point x="439" y="534" type="curve"/>
      <point x="439" y="659"/>
      <point x="366" y="727"/>
      <point x="239" y="727" type="curve"/>
      <point x="114" y="727"/>
      <point x="36" y="658"/>
      <point x="36" y="536" type="curve"/>
      <point x="179" y="536"/>
      <point x="36" y="536"/>
      <point x="179" y="536" type="curve"/>
      <point x="179" y="579"/>
      <point x="193" y="612"/>
      <point x="232" y="612" type="curve"/>
      <point x="276" y="612"/>
      <point x="296" y="581"/>
      <point x="296" y="534" type="curve"/>
      <point x="296" y="474"/>
      <point x="251" y="448"/>
      <point x="195" y="416" type="curve"/>
      <point x="94" y="357"/>
      <point x="22" y="309"/>
      <point x="22" y="195" type="curve"/>
      <point x="22" y="66"/>
      <point x="101" y="-5"/>
      <point x="232" y="-5" type="curve"/>
      <point x="367" y="-5"/>
      <point x="453" y="64"/>
      <point x="453" y="195" type="curve"/>
      <point x="453" y="308"/>
      <point x="381" y="359"/>
      <point x="282" y="417" type="curve"/>
      <point x="225" y="451"/>
      <point x="179" y="474"/>
      <point x="179" y="536" type="curve"/>
    </contour>
  </outline>
</glyph>
<glyph name="nine" format="1">
  <advance width="488"/>
  <unicode hex="0039"/>
  <outline>
    <contour>
      <point x="349" y="475"/>
      <point x="417" y="448"/>
      <point x="349" y="475" type="curve"/>
      <point x="325" y="409"/>
      <point x="293.393351136" y="387.21798433"/>
      <point x="230.75" y="387.21798433" type="curve"/>
      <point x="172.498318714" y="387.21798433"/>
      <point x="145" y="437"/>
      <point x="145" y="502" type="curve"/>
      <point x="145" y="558"/>
      <point x="170" y="602"/>
      <point x="220" y="602" type="curve"/>
      <point x="292" y="602"/>
      <point x="317.625" y="541.8539649"/>
      <point x="317.625" y="462.331873219" type="curve"/>
      <point x="317.625" y="276.160074866"/>
      <point x="227.973910805" y="157.617008088"/>
      <point x="52.25" y="93.6509259259" type="curve"/>
      <point x="78.25" y="-5.79907407407"/>
      <point x="52.25" y="93.6509259259"/>
      <point x="78.25" y="-5.79907407407" type="curve"/>
      <point x="311" y="58"/>
      <point x="454.125" y="220.12544096"/>
      <point x="454.125" y="467.856873219" type="curve"/>
      <point x="454.125" y="625.806471266"/>
      <point x="374.653181177" y="733.980876068"/>
      <point x="224.875" y="733.980876068" type="curve"/>
      <point x="85.9892311897" y="733.980876068"/>
      <point x="8.0" y="639.08595394"/>
      <point x="8" y="496.304095442" type="curve"/>
      <point x="8.0" y="359.432531406"/>
      <point x="84.7363821883" y="271.19298433"/>
      <point x="217.75" y="271.19298433" type="curve"/>
      <point x="331.063027772" y="271.19298433"/>
      <point x="390" y="376"/>
      <point x="417" y="448" type="curve"/>
    </contour>
  </outline>
</glyph>
<glyph name="semicolon" format="1">
  <advance width="216"/>
  <unicode hex="003B"/>
  <outline>
    <contour>
      <point x="103" y="-99"/>
      <point x="-40" y="-99"/>
      <point x="103" y="-99" type="curve"/>
      <point x="203" y="82"/>
      <point x="103" y="-99"/>
      <point x="203" y="82" type="curve"/>
      <point x="21" y="82"/>
      <point x="203" y="82"/>
      <point x="21" y="82" type="curve"/>
      <point x="-40" y="-99"/>
      <point x="21" y="82"/>
      <point x="-40" y="-99" type="curve"/>
    </contour>
    <contour>
      <point x="194" y="377"/>
      <point x="26" y="377"/>
      <point x="194" y="377" type="curve"/>
      <point x="194" y="425"/>
      <point x="158" y="449"/>
      <point x="109" y="449" type="curve"/>
      <point x="59" y="449"/>
      <point x="26" y="423"/>
      <point x="26" y="377" type="curve"/>
      <point x="194" y="377"/>
      <point x="26" y="377"/>
      <point x="194" y="377" type="curve"/>
      <point x="194" y="328"/>
      <point x="159" y="306"/>
      <point x="109" y="306" type="curve"/>
      <point x="58" y="306"/>
      <point x="26" y="330"/>
      <point x="26" y="377" type="curve"/>
    </contour>
  </outline>
</glyph>
<glyph name="less" format="1">
  <advance width="535"/>
  <unicode hex="003C"/>
  <outline>
    <contour>
      <point x="485.25" y="630.775"/>
      <point x="485.25" y="509.225"/>
      <point x="485.25" y="630.775" type="curve"/>
      <point x="333.0015225" y="540.7759"/>
      <point x="180.7484775" y="450.7741"/>
      <point x="28.5" y="360.775" type="curve"/>
      <point x="28.5" y="239.225"/>
      <point x="28.5" y="360.775"/>
      <point x="28.5" y="239.225" type="curve"/>
      <point x="180.7484775" y="329.2241"/>
      <point x="333.0015225" y="419.2259"/>
      <point x="485.25" y="509.225" type="curve"/>
    </contour>
    <contour>
      <point x="492.75" y="96.775"/>
      <point x="492.75" y="-24.775"/>
      <point x="492.75" y="96.775" type="curve"/>
      <point x="338.0015475" y="184.77412"/>
      <point x="183.2484525" y="272.77588"/>
      <point x="28.5" y="360.775" type="curve"/>
      <point x="28.5" y="239.225"/>
      <point x="28.5" y="360.775"/>
      <point x="28.5" y="239.225" type="curve"/>
      <point x="183.2484525" y="151.22588"/>
      <point x="338.0015475" y="63.22412"/>
      <point x="492.75" y="-24.775" type="curve"/>
    </contour>
  </outline>
</glyph>
<glyph name="greater" format="1">
  <advance width="536"/>
  <unicode hex="003E"/>
  <outline>
    <contour>
      <point x="35.25" y="-24.775"/>
      <point x="35.25" y="96.775"/>
      <point x="35.25" y="-24.775" type="curve"/>
      <point x="187.4984775" y="65.2241"/>
      <point x="339.7515225" y="155.2259"/>
      <point x="492" y="245.225" type="curve"/>
      <point x="492" y="366.775"/>
      <point x="492" y="245.225"/>
      <point x="492" y="366.775" type="curve"/>
      <point x="339.7515225" y="276.7759"/>
      <point x="187.4984775" y="186.7741"/>
      <point x="35.25" y="96.775" type="curve"/>
    </contour>
    <contour>
      <point x="27.75" y="509.225"/>
      <point x="27.75" y="630.775"/>
      <point x="27.75" y="509.225" type="curve"/>
      <point x="182.4984525" y="421.22588"/>
      <point x="337.2515475" y="333.22412"/>
      <point x="492" y="245.225" type="curve"/>
      <point x="492" y="366.775"/>
      <point x="492" y="245.225"/>
      <point x="492" y="366.775" type="curve"/>
      <point x="337.2515475" y="454.77412"/>
      <point x="182.4984525" y="542.77588"/>
      <point x="27.75" y="630.775" type="curve"/>
    </contour>
  </outline>
</glyph>
<glyph name="question" format="1">
  <advance width="355"/>
  <unicode hex="003F"/>
  <outline>
    <contour>
      <point x="28" y="380"/>
      <point x="171" y="380"/>
      <point x="28" y="380" type="curve"/>
      <point x="28" y="343"/>
      <point x="28.25" y="258.33296"/>
      <point x="28.25" y="221" type="curve"/>
      <point x="171.25" y="221.0"/>
      <point x="28.25" y="221"/>
      <point x="171.25" y="221.0" type="curve"/>
      <point x="171.25" y="258.33296"/>
      <point x="171" y="343"/>
      <point x="171" y="380" type="curve"/>
    </contour>
    <contour>
      <point x="66" y="627"/>
      <point x="21" y="737"/>
      <point x="66" y="627" type="curve"/>
      <point x="78" y="633"/>
      <point x="85" y="634"/>
      <point x="98" y="634" type="curve"/>
      <point x="157" y="634"/>
      <point x="175" y="585"/>
      <point x="175" y="518" type="curve"/>
      <point x="175" y="444"/>
      <point x="155" y="380"/>
      <point x="91" y="380" type="curve"/>
      <point x="90" y="263"/>
      <point x="91" y="380"/>
      <point x="90" y="263" type="curve"/>
      <point x="229" y="263"/>
      <point x="311" y="372"/>
      <point x="311" y="518" type="curve"/>
      <point x="311" y="652"/>
      <point x="237" y="753"/>
      <point x="111" y="753" type="curve"/>
      <point x="78" y="753"/>
      <point x="51" y="751"/>
      <point x="21" y="737" type="curve"/>
    </contour>
    <contour>
      <point x="184" y="63"/>
      <point x="16" y="63"/>
      <point x="184" y="63" type="curve"/>
      <point x="184" y="111"/>
      <point x="151" y="135"/>
      <point x="100" y="135" type="curve"/>
      <point x="52" y="135"/>
      <point x="16" y="108"/>
      <point x="16" y="63" type="curve"/>
      <point x="184" y="63"/>
      <point x="16" y="63"/>
      <point x="184" y="63" type="curve"/>
      <point x="184" y="13"/>
      <point x="151" y="-8"/>
      <point x="100" y="-8" type="curve"/>
      <point x="51" y="-8"/>
      <point x="16" y="17"/>
      <point x="16" y="63" type="curve"/>
    </contour>
  </outline>
</glyph>
<glyph name="at" format="1">
  <advance width="680"/>
  <unicode hex="0040"/>
  <outline>
    <contour>
      <point x="442" y="-4"/>
      <point x="497" y="-98"/>
      <point x="442" y="-4" type="curve"/>
      <point x="412" y="-23"/>
      <point x="389" y="-31"/>
      <point x="353" y="-31" type="curve"/>
      <point x="221" y="-31"/>
      <point x="141" y="71"/>
      <point x="141" y="214" type="curve"/>
      <point x="141" y="350"/>
      <point x="215" y="447"/>
      <point x="341" y="447" type="curve"/>
      <point x="463" y="447"/>
      <point x="535" y="348"/>
      <point x="535" y="213" type="curve"/>
      <point x="535" y="167"/>
      <point x="536" y="127"/>
      <point x="519" y="127" type="curve"/>
      <point x="505" y="127"/>
      <point x="506" y="167"/>
      <point x="506" y="218" type="curve"/>
      <point x="506" y="332"/>
      <point x="447" y="412"/>
      <point x="339" y="412" type="curve"/>
      <point x="220" y="412"/>
      <point x="171" y="335"/>
      <point x="171" y="214" type="curve"/>
      <point x="171" y="92"/>
      <point x="215" y="10"/>
      <point x="328" y="10" type="curve"/>
      <point x="430" y="10"/>
      <point x="473" y="88"/>
      <point x="486" y="198" type="curve"/>
      <point x="395" y="220"/>
      <point x="486" y="198"/>
      <point x="395" y="220" type="curve"/>
      <point x="385" y="170"/>
      <point x="391" y="120"/>
      <point x="343" y="120" type="curve"/>
      <point x="307" y="120"/>
      <point x="297" y="165"/>
      <point x="297" y="220" type="curve"/>
      <point x="297" y="263"/>
      <point x="299" y="301"/>
      <point x="333" y="301" type="curve"/>
      <point x="377" y="301"/>
      <point x="376" y="261"/>
      <point x="376" y="212" type="curve"/>
      <point x="376" y="104"/>
      <point x="410" y="22"/>
      <point x="508" y="22" type="curve"/>
      <point x="612" y="22"/>
      <point x="654" y="104"/>
      <point x="654" y="219" type="curve"/>
      <point x="654" y="425"/>
      <point x="541" y="562"/>
      <point x="344" y="562" type="curve"/>
      <point x="134" y="562"/>
      <point x="16" y="424"/>
      <point x="16" y="208" type="curve"/>
      <point x="16" y="-5"/>
      <point x="140" y="-142"/>
      <point x="347" y="-142" type="curve"/>
      <point x="410" y="-142"/>
      <point x="444" y="-132"/>
      <point x="497" y="-98" type="curve"/>
    </contour>
  </outline>
</glyph>
<glyph name="C" format="1">
  <advance width="587"/>
  <unicode hex="0043"/>
  <outline>
    <contour>
      <point x="425" y="654"/>
      <point x="537" y="654"/>
      <point x="425" y="654" type="curve"/>
      <point x="425" y="534"/>
      <point x="425" y="654"/>
      <point x="425" y="534" type="curve"/>
      <point x="537" y="534"/>
      <point x="425" y="534"/>
      <point x="537" y="534" type="curve"/>
      <point x="537" y="654"/>
      <point x="537" y="534"/>
      <point x="537" y="654" type="curve"/>
    </contour>
    <contour>
      <point x="537" y="654"/>
      <point x="459" y="566"/>
      <point x="537" y="654" type="curve"/>
      <point x="480" y="696"/>
      <point x="414" y="727"/>
      <point x="337" y="727" type="curve"/>
      <point x="129" y="727"/>
      <point x="30" y="571"/>
      <point x="30" y="345" type="curve"/>
      <point x="30" y="138"/>
      <point x="123" y="-5"/>
      <point x="315" y="-5" type="curve"/>
      <point x="418" y="-5"/>
      <point x="488" y="29"/>
      <point x="549" y="99" type="curve"/>
      <point x="466" y="181"/>
      <point x="549" y="99"/>
      <point x="466" y="181" type="curve"/>
      <point x="422" y="138"/>
      <point x="384" y="110"/>
      <point x="322" y="110" type="curve"/>
      <point x="205" y="110"/>
      <point x="173" y="216"/>
      <point x="173" y="350" type="curve"/>
      <point x="173" y="496"/>
      <point x="204" y="612"/>
      <point x="330" y="612" type="curve"/>
      <point x="380" y="612"/>
      <point x="423" y="593"/>
      <point x="459" y="566" type="curve"/>
    </contour>
  </outline>
</glyph>
<glyph name="I" format="1">
  <advance width="358"/>
  <unicode hex="0049"/>
  <outline>
    <contour>
      <point x="181" y="722"/>
      <point x="181" y="612"/>
      <point x="181" y="722" type="curve"/>
      <point x="135" y="722"/>
      <point x="89" y="722"/>
      <point x="43" y="722" type="curve"/>
      <point x="43" y="612"/>
      <point x="43" y="722"/>
      <point x="43" y="612" type="curve"/>
      <point x="181" y="612"/>
      <point x="43" y="612"/>
      <point x="181" y="612" type="curve"/>
    </contour>
    <contour>
      <point x="181" y="612"/>
      <point x="181" y="722"/>
      <point x="181" y="612" type="curve"/>
      <point x="318" y="612"/>
      <point x="181" y="612"/>
      <point x="318" y="612" type="curve"/>
      <point x="318" y="722"/>
      <point x="318" y="612"/>
      <point x="318" y="722" type="curve"/>
      <point x="272" y="722"/>
      <point x="226" y="722"/>
      <point x="181" y="722" type="curve"/>
    </contour>
    <contour>
      <point x="181" y="0"/>
      <point x="181" y="110"/>
      <point x="181" y="0" type="curve"/>
      <point x="226" y="0"/>
      <point x="272" y="0"/>
      <point x="318" y="0" type="curve"/>
      <point x="318" y="110"/>
      <point x="318" y="0"/>
      <point x="318" y="110" type="curve"/>
      <point x="181" y="110"/>
      <point x="318" y="110"/>
      <point x="181" y="110" type="curve"/>
    </contour>
    <contour>
      <point x="181" y="110"/>
      <point x="181" y="0"/>
      <point x="181" y="110" type="curve"/>
      <point x="43" y="110"/>
      <point x="181" y="110"/>
      <point x="43" y="110" type="curve"/>
      <point x="43" y="0"/>
      <point x="43" y="110"/>
      <point x="43" y="0" type="curve"/>
      <point x="89" y="0"/>
      <point x="135" y="0"/>
      <point x="181" y="0" type="curve"/>
    </contour>
    <contour>
      <point x="251" y="0"/>
      <point x="108" y="0"/>
      <point x="251" y="0" type="curve"/>
      <point x="251" y="241"/>
      <point x="251" y="481"/>
      <point x="251" y="722" type="curve"/>
      <point x="108" y="722"/>
      <point x="251" y="722"/>
      <point x="108" y="722" type="curve"/>
      <point x="108" y="481"/>
      <point x="108" y="241"/>
      <point x="108" y="0" type="curve"/>
    </contour>
  </outline>
</glyph>
<glyph name="K" format="1">
  <advance width="633"/>
  <unicode hex="004B"/>
  <outline>
    <contour>
      <point x="504" y="110"/>
      <point x="498" y="0"/>
      <point x="504" y="110" type="curve"/>
      <point x="364" y="110"/>
      <point x="447" y="110"/>
      <point x="307" y="110" type="curve"/>
      <point x="307" y="0"/>
      <point x="307" y="110"/>
      <point x="307" y="0" type="curve"/>
      <point x="352" y="0"/>
      <point x="453" y="0"/>
      <point x="498" y="0" type="curve"/>
    </contour>
    <contour>
      <point x="444" y="722"/>
      <point x="444" y="612"/>
      <point x="444" y="722" type="curve"/>
      <point x="398" y="722"/>
      <point x="346" y="722"/>
      <point x="301" y="722" type="curve"/>
      <point x="301" y="612"/>
      <point x="301" y="722"/>
      <point x="301" y="612" type="curve"/>
      <point x="438" y="612"/>
      <point x="307" y="612"/>
      <point x="444" y="612" type="curve"/>
    </contour>
    <contour>
      <point x="501" y="0"/>
      <point x="501" y="110"/>
      <point x="501" y="0" type="curve"/>
      <point x="547" y="0"/>
      <point x="553" y="0"/>
      <point x="599" y="0" type="curve"/>
      <point x="599" y="110"/>
      <point x="599" y="0"/>
      <point x="599" y="110" type="curve"/>
      <point x="461" y="110"/>
      <point x="639" y="110"/>
      <point x="501" y="110" type="curve"/>
    </contour>
    <contour>
      <point x="444" y="612"/>
      <point x="444" y="722"/>
      <point x="444" y="612" type="curve"/>
      <point x="581" y="612"/>
      <point x="444" y="612"/>
      <point x="581" y="612" type="curve"/>
      <point x="581" y="722"/>
      <point x="581" y="612"/>
      <point x="581" y="722" type="curve"/>
      <point x="536" y="722"/>
      <point x="490" y="722"/>
      <point x="444" y="722" type="curve"/>
    </contour>
    <contour>
      <point x="177" y="722"/>
      <point x="177" y="612"/>
      <point x="177" y="722" type="curve"/>
      <point x="132" y="722"/>
      <point x="86" y="722"/>
      <point x="40" y="722" type="curve"/>
      <point x="40" y="612"/>
      <point x="40" y="722"/>
      <point x="40" y="612" type="curve"/>
      <point x="177" y="612"/>
      <point x="40" y="612"/>
      <point x="177" y="612" type="curve"/>
    </contour>
    <contour>
      <point x="177" y="612"/>
      <point x="177" y="722"/>
      <point x="177" y="612" type="curve"/>
      <point x="315" y="612"/>
      <point x="141" y="612"/>
      <point x="279" y="612" type="curve"/>
      <point x="279" y="722"/>
      <point x="279" y="612"/>
      <point x="279" y="722" type="curve"/>
      <point x="233" y="722"/>
      <point x="223" y="722"/>
      <point x="177" y="722" type="curve"/>
    </contour>
    <contour>
      <point x="177" y="0"/>
      <point x="177" y="110"/>
      <point x="177" y="0" type="curve"/>
      <point x="223" y="0"/>
      <point x="144" y="0"/>
      <point x="282" y="0" type="curve"/>
      <point x="282" y="110"/>
      <point x="282" y="0"/>
      <point x="282" y="110" type="curve"/>
      <point x="144" y="110"/>
      <point x="315" y="110"/>
      <point x="177" y="110" type="curve"/>
    </contour>
    <contour>
      <point x="177" y="110"/>
      <point x="177" y="0"/>
      <point x="177" y="110" type="curve"/>
      <point x="40" y="110"/>
      <point x="177" y="110"/>
      <point x="40" y="110" type="curve"/>
      <point x="40" y="0"/>
      <point x="40" y="110"/>
      <point x="40" y="0" type="curve"/>
      <point x="86" y="0"/>
      <point x="132" y="0"/>
      <point x="177" y="0" type="curve"/>
    </contour>
    <contour>
      <point x="419" y="722"/>
      <point x="576" y="722"/>
      <point x="419" y="722" type="curve"/>
      <point x="318" y="608"/>
      <point x="217" y="494"/>
      <point x="116" y="380" type="curve"/>
      <point x="268" y="380"/>
      <point x="116" y="380"/>
      <point x="268" y="380" type="curve"/>
      <point x="370" y="494"/>
      <point x="473" y="608"/>
      <point x="576" y="722" type="curve"/>
    </contour>
    <contour>
      <point x="249" y="0"/>
      <point x="106" y="0"/>
      <point x="249" y="0" type="curve"/>
      <point x="249" y="0"/>
      <point x="249" y="722"/>
      <point x="249" y="722" type="curve"/>
      <point x="106" y="722"/>
      <point x="249" y="722"/>
      <point x="106" y="722" type="curve"/>
      <point x="106" y="481"/>
      <point x="106" y="241"/>
      <point x="106" y="0" type="curve"/>
    </contour>
    <contour>
      <point x="594" y="0"/>
      <point x="436" y="0"/>
      <point x="594" y="0" type="curve"/>
      <point x="486" y="127"/>
      <point x="376" y="253"/>
      <point x="268" y="380" type="curve"/>
      <point x="116" y="380"/>
      <point x="268" y="380"/>
      <point x="116" y="380" type="curve"/>
      <point x="223" y="253"/>
      <point x="329" y="127"/>
      <point x="436" y="0" type="curve"/>
    </contour>
  </outline>
</glyph>
<glyph name="L" format="1">
  <advance width="518"/>
  <unicode hex="004C"/>
  <outline>
    <contour>
      <point x="481" y="55"/>
      <point x="369" y="55"/>
      <point x="481" y="55" type="curve"/>
      <point x="481" y="175"/>
      <point x="481" y="55"/>
      <point x="481" y="175" type="curve"/>
      <point x="369" y="175"/>
      <point x="481" y="175"/>
      <point x="369" y="175" type="curve"/>
      <point x="369" y="55"/>
      <point x="369" y="175"/>
      <point x="369" y="55" type="curve"/>
    </contour>
    <contour>
      <point x="165" y="110"/>
      <point x="165" y="0"/>
      <point x="165" y="110" type="curve"/>
      <point x="28" y="110"/>
      <point x="165" y="110"/>
      <point x="28" y="110" type="curve"/>
      <point x="27" y="0"/>
      <point x="28" y="110"/>
      <point x="27" y="0" type="curve"/>
      <point x="73" y="0"/>
      <point x="119" y="0"/>
      <point x="165" y="0" type="curve"/>
    </contour>
    <contour>
      <point x="165" y="722"/>
      <point x="165" y="612"/>
      <point x="165" y="722" type="curve"/>
      <point x="119" y="722"/>
      <point x="73" y="722"/>
      <point x="28" y="722" type="curve"/>
      <point x="27" y="612"/>
      <point x="28" y="722"/>
      <point x="27" y="612" type="curve"/>
      <point x="165" y="612"/>
      <point x="27" y="612"/>
      <point x="165" y="612" type="curve"/>
    </contour>
    <contour>
      <point x="165" y="612"/>
      <point x="165" y="722"/>
      <point x="165" y="612" type="curve"/>
      <point x="302" y="612"/>
      <point x="165" y="612"/>
      <point x="302" y="612" type="curve"/>
      <point x="302" y="722"/>
      <point x="302" y="612"/>
      <point x="302" y="722" type="curve"/>
      <point x="256" y="722"/>
      <point x="210" y="722"/>
      <point x="165" y="722" type="curve"/>
    </contour>
    <contour>
      <point x="237" y="0"/>
      <point x="94" y="0"/>
      <point x="237" y="0" type="curve"/>
      <point x="237" y="241"/>
      <point x="237" y="481"/>
      <point x="237" y="722" type="curve"/>
      <point x="94" y="722"/>
      <point x="237" y="722"/>
      <point x="94" y="722" type="curve"/>
      <point x="94" y="481"/>
      <point x="94" y="241"/>
      <point x="94" y="0" type="curve"/>
    </contour>
    <contour>
      <point x="165" y="0"/>
      <point x="165" y="110"/>
      <point x="165" y="0" type="curve"/>
      <point x="270" y="0"/>
      <point x="376" y="0"/>
      <point x="481" y="0" type="curve"/>
      <point x="481" y="110"/>
      <point x="481" y="0"/>
      <point x="481" y="110" type="curve"/>
      <point x="376" y="110"/>
      <point x="270" y="110"/>
      <point x="165" y="110" type="curve"/>
    </contour>
  </outline>
</glyph>
<glyph name="M" format="1">
  <advance width="827"/>
  <unicode hex="004D"/>
  <outline>
    <contour>
      <point x="666" y="0"/>
      <point x="666" y="110"/>
      <point x="666" y="0" type="curve"/>
      <point x="712" y="0"/>
      <point x="758" y="0"/>
      <point x="804" y="0" type="curve"/>
      <point x="804" y="110"/>
      <point x="804" y="0"/>
      <point x="804" y="110" type="curve"/>
      <point x="666" y="110"/>
      <point x="804" y="110"/>
      <point x="666" y="110" type="curve"/>
    </contour>
    <contour>
      <point x="666" y="110"/>
      <point x="666" y="0"/>
      <point x="666" y="110" type="curve"/>
      <point x="529" y="110"/>
      <point x="666" y="110"/>
      <point x="529" y="110" type="curve"/>
      <point x="529" y="0"/>
      <point x="529" y="110"/>
      <point x="529" y="0" type="curve"/>
      <point x="575" y="0"/>
      <point x="621" y="0"/>
      <point x="666" y="0" type="curve"/>
    </contour>
    <contour>
      <point x="151" y="110"/>
      <point x="151" y="0"/>
      <point x="151" y="110" type="curve"/>
      <point x="13" y="110"/>
      <point x="151" y="110"/>
      <point x="13" y="110" type="curve"/>
      <point x="13" y="0"/>
      <point x="13" y="110"/>
      <point x="13" y="0" type="curve"/>
      <point x="59" y="0"/>
      <point x="105" y="0"/>
      <point x="151" y="0" type="curve"/>
    </contour>
    <contour>
      <point x="194" y="722"/>
      <point x="194" y="612"/>
      <point x="194" y="722" type="curve"/>
      <point x="148" y="722"/>
      <point x="102" y="722"/>
      <point x="57" y="722" type="curve"/>
      <point x="56" y="612"/>
      <point x="57" y="722"/>
      <point x="56" y="612" type="curve"/>
      <point x="194" y="612"/>
      <point x="56" y="612"/>
      <point x="194" y="612" type="curve"/>
    </contour>
    <contour>
      <point x="621" y="612"/>
      <point x="621" y="722"/>
      <point x="621" y="612" type="curve"/>
      <point x="758" y="612"/>
      <point x="621" y="612"/>
      <point x="758" y="612" type="curve"/>
      <point x="758" y="722"/>
      <point x="758" y="612"/>
      <point x="758" y="722" type="curve"/>
      <point x="712" y="722"/>
      <point x="666" y="722"/>
      <point x="621" y="722" type="curve"/>
    </contour>
    <contour>
      <point x="151" y="0"/>
      <point x="151" y="110"/>
      <point x="151" y="0" type="curve"/>
      <point x="196" y="0"/>
      <point x="151" y="0"/>
      <point x="288" y="0" type="curve"/>
      <point x="288" y="110"/>
      <point x="288" y="0"/>
      <point x="288" y="110" type="curve"/>
      <point x="151" y="110"/>
      <point x="288" y="110"/>
      <point x="151" y="110" type="curve"/>
    </contour>
    <contour>
      <point x="746" y="0"/>
      <point x="603" y="0"/>
      <point x="746" y="0" type="curve"/>
      <point x="730" y="241"/>
      <point x="709" y="481"/>
      <point x="694" y="722" type="curve"/>
      <point x="564" y="722"/>
      <point x="694" y="722"/>
      <point x="564" y="722" type="curve"/>
      <point x="579" y="481"/>
      <point x="588" y="241"/>
      <point x="603" y="0" type="curve"/>
    </contour>
    <contour>
      <point x="210" y="0"/>
      <point x="88" y="0"/>
      <point x="210" y="0" type="curve"/>
      <point x="224" y="241"/>
      <point x="238" y="481"/>
      <point x="252" y="722" type="curve"/>
      <point x="132" y="722"/>
      <point x="252" y="722"/>
      <point x="132" y="722" type="curve"/>
      <point x="117" y="481"/>
      <point x="103" y="241"/>
      <point x="88" y="0" type="curve"/>
    </contour>
    <contour>
      <point x="465" y="0"/>
      <point x="344" y="0"/>
      <point x="465" y="0" type="curve"/>
      <point x="395" y="241"/>
      <point x="324" y="481"/>
      <point x="254" y="722" type="curve"/>
      <point x="134" y="722"/>
      <point x="254" y="722"/>
      <point x="134" y="722" type="curve"/>
      <point x="204" y="481"/>
      <point x="274" y="241"/>
      <point x="344" y="0" type="curve"/>
    </contour>
    <contour>
      <point x="472" y="0"/>
      <point x="350" y="0"/>
      <point x="472" y="0" type="curve"/>
      <point x="541" y="241"/>
      <point x="610" y="481"/>
      <point x="678" y="722" type="curve"/>
      <point x="558" y="722"/>
      <point x="678" y="722"/>
      <point x="558" y="722" type="curve"/>
      <point x="489" y="481"/>
      <point x="419" y="241"/>
      <point x="350" y="0" type="curve"/>
    </contour>
  </outline>
</glyph>
<glyph name="N" format="1">
  <advance width="744"/>
  <unicode hex="004E"/>
  <outline>
    <contour>
      <point x="167" y="722"/>
      <point x="167" y="612"/>
      <point x="167" y="722" type="curve"/>
      <point x="121" y="722"/>
      <point x="75" y="722"/>
      <point x="29" y="722" type="curve"/>
      <point x="29" y="612"/>
      <point x="29" y="722"/>
      <point x="29" y="612" type="curve"/>
      <point x="167" y="612"/>
      <point x="29" y="612"/>
      <point x="167" y="612" type="curve"/>
    </contour>
    <contour>
      <point x="572" y="612"/>
      <point x="572" y="722"/>
      <point x="572" y="612" type="curve"/>
      <point x="709" y="612"/>
      <point x="572" y="612"/>
      <point x="709" y="612" type="curve"/>
      <point x="709" y="722"/>
      <point x="709" y="612"/>
      <point x="709" y="722" type="curve"/>
      <point x="663" y="722"/>
      <point x="617" y="722"/>
      <point x="572" y="722" type="curve"/>
    </contour>
    <contour>
      <point x="572" y="722"/>
      <point x="572" y="612"/>
      <point x="572" y="722" type="curve"/>
      <point x="526" y="722"/>
      <point x="480" y="722"/>
      <point x="434" y="722" type="curve"/>
      <point x="434" y="612"/>
      <point x="434" y="722"/>
      <point x="434" y="612" type="curve"/>
      <point x="572" y="612"/>
      <point x="434" y="612"/>
      <point x="572" y="612" type="curve"/>
    </contour>
    <contour>
      <point x="166" y="110"/>
      <point x="166" y="0"/>
      <point x="166" y="110" type="curve"/>
      <point x="29" y="110"/>
      <point x="166" y="110"/>
      <point x="29" y="110" type="curve"/>
      <point x="28" y="0"/>
      <point x="29" y="110"/>
      <point x="28" y="0" type="curve"/>
      <point x="74" y="0"/>
      <point x="120" y="0"/>
      <point x="166" y="0" type="curve"/>
    </contour>
    <contour>
      <point x="166" y="0"/>
      <point x="166" y="110"/>
      <point x="166" y="0" type="curve"/>
      <point x="211" y="0"/>
      <point x="166" y="0"/>
      <point x="303" y="0" type="curve"/>
      <point x="303" y="110"/>
      <point x="303" y="0"/>
      <point x="303" y="110" type="curve"/>
      <point x="166" y="110"/>
      <point x="303" y="110"/>
      <point x="166" y="110" type="curve"/>
    </contour>
    <contour>
      <point x="643" y="0"/>
      <point x="495" y="0"/>
      <point x="643" y="0" type="curve"/>
      <point x="509" y="241"/>
      <point x="375" y="481"/>
      <point x="242" y="722" type="curve"/>
      <point x="94" y="722"/>
      <point x="242" y="722"/>
      <point x="94" y="722" type="curve"/>
      <point x="227" y="481"/>
      <point x="361" y="241"/>
      <point x="495" y="0" type="curve"/>
    </contour>
    <contour>
      <point x="499" y="722"/>
      <point x="642" y="722"/>
      <point x="499" y="722" type="curve"/>
      <point x="499" y="481"/>
      <point x="499" y="241"/>
      <point x="499" y="0" type="curve"/>
      <point x="642" y="0"/>
      <point x="499" y="0"/>
      <point x="642" y="0" type="curve"/>
      <point x="642" y="241"/>
      <point x="642" y="481"/>
      <point x="642" y="722" type="curve"/>
    </contour>
    <contour>
      <point x="237" y="0"/>
      <point x="94" y="0"/>
      <point x="237" y="0" type="curve"/>
      <point x="237" y="241"/>
      <point x="237" y="481"/>
      <point x="237" y="722" type="curve"/>
      <point x="94" y="722"/>
      <point x="237" y="722"/>
      <point x="94" y="722" type="curve"/>
      <point x="94" y="481"/>
      <point x="94" y="241"/>
      <point x="94" y="0" type="curve"/>
    </contour>
  </outline>
</glyph>
<glyph name="R" format="1">
  <advance width="667"/>
  <unicode hex="0052"/>
  <outline>
    <contour>
      <point x="503" y="0"/>
      <point x="503" y="110"/>
      <point x="503" y="0" type="curve"/>
      <point x="548" y="0"/>
      <point x="594" y="0"/>
      <point x="640" y="0" type="curve"/>
      <point x="640" y="110"/>
      <point x="640" y="0"/>
      <point x="640" y="110" type="curve"/>
      <point x="503" y="110"/>
      <point x="640" y="110"/>
      <point x="503" y="110" type="curve"/>
    </contour>
    <contour>
      <point x="165" y="722"/>
      <point x="165" y="612"/>
      <point x="165" y="722" type="curve"/>
      <point x="119" y="722"/>
      <point x="73" y="722"/>
      <point x="28" y="722" type="curve"/>
      <point x="28" y="612"/>
      <point x="28" y="722"/>
      <point x="28" y="612" type="curve"/>
      <point x="165" y="612"/>
      <point x="28" y="612"/>
      <point x="165" y="612" type="curve"/>
    </contour>
    <contour>
      <point x="165" y="110"/>
      <point x="165" y="0"/>
      <point x="165" y="110" type="curve"/>
      <point x="28" y="110"/>
      <point x="165" y="110"/>
      <point x="28" y="110" type="curve"/>
      <point x="28" y="0"/>
      <point x="28" y="110"/>
      <point x="28" y="0" type="curve"/>
      <point x="73" y="0"/>
      <point x="119" y="0"/>
      <point x="165" y="0" type="curve"/>
    </contour>
    <contour>
      <point x="165" y="0"/>
      <point x="165" y="110"/>
      <point x="165" y="0" type="curve"/>
      <point x="211" y="0"/>
      <point x="165" y="0"/>
      <point x="302" y="0" type="curve"/>
      <point x="302" y="110"/>
      <point x="302" y="0"/>
      <point x="302" y="110" type="curve"/>
      <point x="165" y="110"/>
      <point x="302" y="110"/>
      <point x="165" y="110" type="curve"/>
    </contour>
    <contour>
      <point x="247" y="354"/>
      <point x="395" y="354"/>
      <point x="247" y="354" type="curve"/>
      <point x="311" y="236"/>
      <point x="375" y="118"/>
      <point x="439" y="0" type="curve"/>
      <point x="587" y="0"/>
      <point x="439" y="0"/>
      <point x="587" y="0" type="curve"/>
      <point x="523" y="118"/>
      <point x="459" y="236"/>
      <point x="395" y="354" type="curve"/>
    </contour>
    <contour>
      <point x="237" y="0"/>
      <point x="94" y="0"/>
      <point x="237" y="0" type="curve"/>
      <point x="237" y="241"/>
      <point x="237" y="481"/>
      <point x="237" y="722" type="curve"/>
      <point x="94" y="722"/>
      <point x="237" y="722"/>
      <point x="94" y="722" type="curve"/>
      <point x="94" y="481"/>
      <point x="94" y="241"/>
      <point x="94" y="0" type="curve"/>
    </contour>
    <contour>
      <point x="167" y="297"/>
      <point x="167" y="408"/>
      <point x="167" y="297" type="curve"/>
      <point x="207" y="297"/>
      <point x="247" y="297"/>
      <point x="286" y="297" type="curve"/>
      <point x="432" y="297"/>
      <point x="522" y="377"/>
      <point x="522" y="519" type="curve"/>
      <point x="522" y="648"/>
      <point x="442" y="722"/>
      <point x="312" y="722" type="curve"/>
      <point x="264" y="722"/>
      <point x="216" y="722"/>
      <point x="167" y="722" type="curve"/>
      <point x="167" y="612"/>
      <point x="167" y="722"/>
      <point x="167" y="612" type="curve"/>
      <point x="207" y="612"/>
      <point x="247" y="612"/>
      <point x="286" y="612" type="curve"/>
      <point x="347" y="612"/>
      <point x="379" y="570"/>
      <point x="379" y="508" type="curve"/>
      <point x="379" y="450"/>
      <point x="358" y="408"/>
      <point x="306" y="408" type="curve"/>
      <point x="260" y="408"/>
      <point x="213" y="408"/>
      <point x="167" y="408" type="curve"/>
    </contour>
  </outline>
</glyph>
<glyph name="S" format="1">
  <advance width="503"/>
  <unicode hex="0053"/>
  <outline>
    <contour>
      <point x="302" y="661"/>
      <point x="414" y="661"/>
      <point x="302" y="661" type="curve"/>
      <point x="302" y="541"/>
      <point x="302" y="638"/>
      <point x="302" y="518" type="curve"/>
      <point x="414" y="518"/>
      <point x="302" y="518"/>
      <point x="414" y="518" type="curve"/>
      <point x="414" y="638"/>
      <point x="414" y="541"/>
      <point x="414" y="661" type="curve"/>
    </contour>
    <contour>
      <point x="159" y="53"/>
      <point x="47" y="53"/>
      <point x="159" y="53" type="curve"/>
      <point x="159" y="173"/>
      <point x="159" y="87"/>
      <point x="159" y="207" type="curve"/>
      <point x="47" y="207"/>
      <point x="159" y="207"/>
      <point x="47" y="207" type="curve"/>
      <point x="47" y="87"/>
      <point x="47" y="173"/>
      <point x="47" y="53" type="curve"/>
    </contour>
    <contour>
      <point x="47" y="53"/>
      <point x="125" y="158"/>
      <point x="47" y="53" type="curve"/>
      <point x="103" y="12"/>
      <point x="153" y="-5"/>
      <point x="222" y="-5" type="curve"/>
      <point x="358" y="-5"/>
      <point x="461" y="66"/>
      <point x="461" y="194" type="curve"/>
      <point x="461" y="304"/>
      <point x="386" y="363"/>
      <point x="288" y="418" type="curve"/>
      <point x="231" y="450"/>
      <point x="180" y="492"/>
      <point x="180" y="539" type="curve"/>
      <point x="177" y="578"/>
      <point x="203" y="612"/>
      <point x="241" y="612" type="curve"/>
      <point x="285" y="612"/>
      <point x="320" y="589"/>
      <point x="349" y="573" type="curve"/>
      <point x="414" y="661"/>
      <point x="349" y="573"/>
      <point x="414" y="661" type="curve"/>
      <point x="360" y="700"/>
      <point x="311" y="717"/>
      <point x="244" y="717" type="curve"/>
      <point x="123" y="717"/>
      <point x="37" y="649"/>
      <point x="37" y="534" type="curve"/>
      <point x="37" y="429"/>
      <point x="107" y="368"/>
      <point x="199" y="316" type="curve"/>
      <point x="260" y="283"/>
      <point x="318" y="241"/>
      <point x="318" y="194" type="curve"/>
      <point x="318" y="156"/>
      <point x="285" y="111"/>
      <point x="235" y="111" type="curve"/>
      <point x="190" y="111"/>
      <point x="162" y="132"/>
      <point x="125" y="158" type="curve"/>
    </contour>
  </outline>
</glyph>
<glyph name="T" format="1">
  <advance width="544"/>
  <unicode hex="0054"/>
  <outline>
    <contour>
      <point x="40" y="666"/>
      <point x="151" y="666"/>
      <point x="40" y="666" type="curve"/>
      <point x="40" y="546"/>
      <point x="40" y="666"/>
      <point x="40" y="546" type="curve"/>
      <point x="151" y="546"/>
      <point x="40" y="546"/>
      <point x="151" y="546" type="curve"/>
      <point x="151" y="666"/>
      <point x="151" y="546"/>
      <point x="151" y="666" type="curve"/>
    </contour>
    <contour>
      <point x="393" y="666"/>
      <point x="505" y="666"/>
      <point x="393" y="666" type="curve"/>
      <point x="393" y="546"/>
      <point x="393" y="666"/>
      <point x="393" y="546" type="curve"/>
      <point x="505" y="546"/>
      <point x="393" y="546"/>
      <point x="505" y="546" type="curve"/>
      <point x="505" y="666"/>
      <point x="505" y="546"/>
      <point x="505" y="666" type="curve"/>
    </contour>
    <contour>
      <point x="271" y="0"/>
      <point x="271" y="110"/>
      <point x="271" y="0" type="curve"/>
      <point x="317" y="0"/>
      <point x="363" y="0"/>
      <point x="409" y="0" type="curve"/>
      <point x="409" y="110"/>
      <point x="409" y="0"/>
      <point x="409" y="110" type="curve"/>
      <point x="271" y="110"/>
      <point x="409" y="110"/>
      <point x="271" y="110" type="curve"/>
    </contour>
    <contour>
      <point x="271" y="110"/>
      <point x="271" y="0"/>
      <point x="271" y="110" type="curve"/>
      <point x="134" y="110"/>
      <point x="271" y="110"/>
      <point x="134" y="110" type="curve"/>
      <point x="134" y="0"/>
      <point x="134" y="110"/>
      <point x="134" y="0" type="curve"/>
      <point x="180" y="0"/>
      <point x="226" y="0"/>
      <point x="271" y="0" type="curve"/>
    </contour>
    <contour>
      <point x="344" y="0"/>
      <point x="201" y="0"/>
      <point x="344" y="0" type="curve"/>
      <point x="344" y="237"/>
      <point x="344" y="473"/>
      <point x="344" y="710" type="curve"/>
      <point x="201" y="710"/>
      <point x="344" y="710"/>
      <point x="201" y="710" type="curve"/>
      <point x="200" y="473"/>
      <point x="201" y="237"/>
      <point x="201" y="0" type="curve"/>
    </contour>
    <contour>
      <point x="40" y="600"/>
      <point x="40" y="727"/>
      <point x="40" y="605" type="curve"/>
      <point x="194" y="605"/>
      <point x="350" y="605"/>
      <point x="505" y="605" type="curve"/>
      <point x="505" y="727"/>
      <point x="505" y="600"/>
      <point x="505" y="722" type="curve"/>
      <point x="350" y="722"/>
      <point x="194" y="722"/>
      <point x="40" y="722" type="curve"/>
    </contour>
  </outline>
</glyph>
<glyph name="U" format="1">
  <advance width="728"/>
  <unicode hex="0055"/>
  <outline>
    <contour>
      <point x="550" y="612"/>
      <point x="550" y="722"/>
      <point x="550" y="612" type="curve"/>
      <point x="687" y="612"/>
      <point x="550" y="612"/>
      <point x="687" y="612" type="curve"/>
      <point x="687" y="722"/>
      <point x="687" y="612"/>
      <point x="687" y="722" type="curve"/>
      <point x="642" y="722"/>
      <point x="596" y="722"/>
      <point x="550" y="722" type="curve"/>
    </contour>
    <contour>
      <point x="550" y="722"/>
      <point x="550" y="612"/>
      <point x="550" y="722" type="curve"/>
      <point x="504" y="722"/>
      <point x="458" y="722"/>
      <point x="413" y="722" type="curve"/>
      <point x="413" y="612"/>
      <point x="413" y="722"/>
      <point x="413" y="612" type="curve"/>
      <point x="550" y="612"/>
      <point x="413" y="612"/>
      <point x="550" y="612" type="curve"/>
    </contour>
    <contour>
      <point x="175" y="722"/>
      <point x="175" y="612"/>
      <point x="175" y="722" type="curve"/>
      <point x="129" y="722"/>
      <point x="83" y="722"/>
      <point x="38" y="722" type="curve"/>
      <point x="38" y="612"/>
      <point x="38" y="722"/>
      <point x="38" y="612" type="curve"/>
      <point x="175" y="612"/>
      <point x="38" y="612"/>
      <point x="175" y="612" type="curve"/>
    </contour>
    <contour>
      <point x="175" y="612"/>
      <point x="175" y="722"/>
      <point x="175" y="612" type="curve"/>
      <point x="312" y="612"/>
      <point x="175" y="612"/>
      <point x="312" y="612" type="curve"/>
      <point x="312" y="722"/>
      <point x="312" y="612"/>
      <point x="312" y="722" type="curve"/>
      <point x="267" y="722"/>
      <point x="221" y="722"/>
      <point x="175" y="722" type="curve"/>
    </contour>
    <contour>
      <point x="109" y="675"/>
      <point x="239" y="675"/>
      <point x="109" y="675" type="curve"/>
      <point x="109" y="541"/>
      <point x="108" y="407"/>
      <point x="109" y="273" type="curve"/>
      <point x="109" y="94"/>
      <point x="185" y="-5"/>
      <point x="358" y="-5" type="curve"/>
      <point x="536" y="-5"/>
      <point x="615" y="99"/>
      <point x="615" y="285" type="curve"/>
      <point x="615" y="415"/>
      <point x="615" y="545"/>
      <point x="615" y="675" type="curve"/>
      <point x="485" y="675"/>
      <point x="615" y="675"/>
      <point x="485" y="675" type="curve"/>
      <point x="485" y="538"/>
      <point x="485" y="407"/>
      <point x="485" y="270" type="curve"/>
      <point x="485" y="179"/>
      <point x="451" y="117"/>
      <point x="368" y="117" type="curve"/>
      <point x="268" y="117"/>
      <point x="239" y="186"/>
      <point x="239" y="295" type="curve"/>
      <point x="239" y="422"/>
      <point x="239" y="549"/>
      <point x="239" y="675" type="curve"/>
    </contour>
  </outline>
</glyph>
<glyph name="V" format="1">
  <advance width="727"/>
  <unicode hex="0056"/>
  <outline>
    <contour>
      <point x="552" y="722"/>
      <point x="552" y="612"/>
      <point x="552" y="722" type="curve"/>
      <point x="495" y="722"/>
      <point x="439" y="722"/>
      <point x="382" y="722" type="curve"/>
      <point x="382" y="612"/>
      <point x="382" y="722"/>
      <point x="382" y="612" type="curve"/>
      <point x="552" y="612"/>
      <point x="382" y="612"/>
      <point x="552" y="612" type="curve"/>
    </contour>
    <contour>
      <point x="156" y="722"/>
      <point x="156" y="612"/>
      <point x="156" y="722" type="curve"/>
      <point x="110" y="722"/>
      <point x="64" y="722"/>
      <point x="18" y="722" type="curve"/>
      <point x="18" y="612"/>
      <point x="18" y="722"/>
      <point x="18" y="612" type="curve"/>
      <point x="156" y="612"/>
      <point x="18" y="612"/>
      <point x="156" y="612" type="curve"/>
    </contour>
    <contour>
      <point x="562" y="612"/>
      <point x="562" y="722"/>
      <point x="562" y="612" type="curve"/>
      <point x="699" y="612"/>
      <point x="562" y="612"/>
      <point x="699" y="612" type="curve"/>
      <point x="699" y="722"/>
      <point x="699" y="612"/>
      <point x="699" y="722" type="curve"/>
      <point x="654" y="722"/>
      <point x="608" y="722"/>
      <point x="562" y="722" type="curve"/>
    </contour>
    <contour>
      <point x="166" y="612"/>
      <point x="166" y="722"/>
      <point x="166" y="612" type="curve"/>
      <point x="335" y="612"/>
      <point x="166" y="612"/>
      <point x="335" y="612" type="curve"/>
      <point x="335" y="722"/>
      <point x="335" y="612"/>
      <point x="335" y="722" type="curve"/>
      <point x="279" y="722"/>
      <point x="222" y="722"/>
      <point x="166" y="722" type="curve"/>
    </contour>
    <contour>
      <point x="499" y="722"/>
      <point x="644" y="722"/>
      <point x="499" y="722" type="curve"/>
      <point x="433" y="480"/>
      <point x="369" y="242"/>
      <point x="306" y="0" type="curve"/>
      <point x="452" y="0"/>
      <point x="290" y="0"/>
      <point x="436" y="0" type="curve"/>
      <point x="505" y="241"/>
      <point x="574" y="481"/>
      <point x="644" y="722" type="curve"/>
    </contour>
    <contour>
      <point x="74" y="722"/>
      <point x="220" y="722"/>
      <point x="74" y="722" type="curve"/>
      <point x="144" y="481"/>
      <point x="215" y="241"/>
      <point x="285" y="0" type="curve"/>
      <point x="431" y="0"/>
      <point x="272" y="0"/>
      <point x="418" y="0" type="curve"/>
      <point x="353" y="242"/>
      <point x="288" y="482"/>
      <point x="220" y="722" type="curve"/>
    </contour>
  </outline>
</glyph>
<glyph name="W" format="1">
  <advance width="869"/>
  <unicode hex="0057"/>
  <outline>
    <contour>
      <point x="171" y="612"/>
      <point x="171" y="722"/>
      <point x="171" y="612" type="curve"/>
      <point x="308" y="612"/>
      <point x="171" y="612"/>
      <point x="308" y="612" type="curve"/>
      <point x="308" y="722"/>
      <point x="308" y="612"/>
      <point x="308" y="722" type="curve"/>
      <point x="263" y="722"/>
      <point x="217" y="722"/>
      <point x="171" y="722" type="curve"/>
    </contour>
    <contour>
      <point x="161" y="722"/>
      <point x="161" y="612"/>
      <point x="161" y="722" type="curve"/>
      <point x="115" y="722"/>
      <point x="69" y="722"/>
      <point x="24" y="722" type="curve"/>
      <point x="24" y="612"/>
      <point x="24" y="722"/>
      <point x="24" y="612" type="curve"/>
      <point x="161" y="612"/>
      <point x="24" y="612"/>
      <point x="161" y="612" type="curve"/>
    </contour>
    <contour>
      <point x="708" y="722"/>
      <point x="708" y="612"/>
      <point x="708" y="722" type="curve"/>
      <point x="662" y="722"/>
      <point x="616" y="722"/>
      <point x="571" y="722" type="curve"/>
      <point x="571" y="612"/>
      <point x="571" y="722"/>
      <point x="571" y="612" type="curve"/>
      <point x="708" y="612"/>
      <point x="571" y="612"/>
      <point x="708" y="612" type="curve"/>
    </contour>
    <contour>
      <point x="713" y="612"/>
      <point x="713" y="722"/>
      <point x="713" y="612" type="curve"/>
      <point x="850" y="612"/>
      <point x="713" y="612"/>
      <point x="850" y="612" type="curve"/>
      <point x="850" y="722"/>
      <point x="850" y="612"/>
      <point x="850" y="722" type="curve"/>
      <point x="805" y="722"/>
      <point x="759" y="722"/>
      <point x="713" y="722" type="curve"/>
    </contour>
    <contour>
      <point x="358" y="0"/>
      <point x="232" y="0"/>
      <point x="348" y="0" type="curve"/>
      <point x="399" y="241"/>
      <point x="449" y="481"/>
      <point x="499" y="722" type="curve"/>
      <point x="379" y="722"/>
      <point x="499" y="722"/>
      <point x="379" y="722" type="curve"/>
      <point x="333" y="482"/>
      <point x="289" y="243"/>
      <point x="242" y="0" type="curve"/>
    </contour>
    <contour>
      <point x="384" y="722"/>
      <point x="504" y="722"/>
      <point x="384" y="722" type="curve"/>
      <point x="429" y="481"/>
      <point x="474" y="241"/>
      <point x="520" y="0" type="curve"/>
      <point x="636" y="0"/>
      <point x="506" y="0"/>
      <point x="622" y="0" type="curve"/>
      <point x="581" y="245"/>
      <point x="544" y="481"/>
      <point x="504" y="722" type="curve"/>
    </contour>
    <contour>
      <point x="90" y="722"/>
      <point x="213" y="722"/>
      <point x="90" y="722" type="curve"/>
      <point x="136" y="481"/>
      <point x="182" y="241"/>
      <point x="227" y="0" type="curve"/>
      <point x="344" y="0"/>
      <point x="227" y="0"/>
      <point x="344" y="0" type="curve"/>
      <point x="300" y="241"/>
      <point x="256" y="481"/>
      <point x="213" y="722" type="curve"/>
    </contour>
    <contour>
      <point x="661" y="722"/>
      <point x="784" y="722"/>
      <point x="661" y="722" type="curve"/>
      <point x="616" y="481"/>
      <point x="570" y="241"/>
      <point x="524" y="0" type="curve"/>
      <point x="641" y="0"/>
      <point x="524" y="0"/>
      <point x="641" y="0" type="curve"/>
      <point x="688" y="241"/>
      <point x="736" y="481"/>
      <point x="784" y="722" type="curve"/>
    </contour>
  </outline>
</glyph>
<glyph name="X" format="1">
  <advance width="697"/>
  <unicode hex="0058"/>
  <outline>
    <contour>
      <point x="188" y="0"/>
      <point x="188" y="110"/>
      <point x="188" y="0" type="curve"/>
      <point x="233" y="0"/>
      <point x="188" y="0"/>
      <point x="325" y="0" type="curve"/>
      <point x="325" y="110"/>
      <point x="325" y="0"/>
      <point x="325" y="110" type="curve"/>
      <point x="188" y="110"/>
      <point x="325" y="110"/>
      <point x="188" y="110" type="curve"/>
    </contour>
    <contour>
      <point x="178" y="110"/>
      <point x="178" y="0"/>
      <point x="178" y="110" type="curve"/>
      <point x="41" y="110"/>
      <point x="178" y="110"/>
      <point x="41" y="110" type="curve"/>
      <point x="40" y="0"/>
      <point x="41" y="110"/>
      <point x="40" y="0" type="curve"/>
      <point x="86" y="0"/>
      <point x="132" y="0"/>
      <point x="178" y="0" type="curve"/>
    </contour>
    <contour>
      <point x="512" y="0"/>
      <point x="512" y="110"/>
      <point x="512" y="0" type="curve"/>
      <point x="558" y="0"/>
      <point x="604" y="0"/>
      <point x="649" y="0" type="curve"/>
      <point x="649" y="110"/>
      <point x="649" y="0"/>
      <point x="649" y="110" type="curve"/>
      <point x="512" y="110"/>
      <point x="649" y="110"/>
      <point x="512" y="110" type="curve"/>
    </contour>
    <contour>
      <point x="502" y="110"/>
      <point x="502" y="0"/>
      <point x="502" y="110" type="curve"/>
      <point x="365" y="110"/>
      <point x="502" y="110"/>
      <point x="365" y="110" type="curve"/>
      <point x="365" y="0"/>
      <point x="365" y="110"/>
      <point x="365" y="0" type="curve"/>
      <point x="410" y="0"/>
      <point x="456" y="0"/>
      <point x="502" y="0" type="curve"/>
    </contour>
    <contour>
      <point x="493" y="612"/>
      <point x="493" y="722"/>
      <point x="493" y="612" type="curve"/>
      <point x="630" y="612"/>
      <point x="493" y="612"/>
      <point x="630" y="612" type="curve"/>
      <point x="630" y="722"/>
      <point x="630" y="612"/>
      <point x="630" y="722" type="curve"/>
      <point x="584" y="722"/>
      <point x="538" y="722"/>
      <point x="493" y="722" type="curve"/>
    </contour>
    <contour>
      <point x="503" y="722"/>
      <point x="503" y="612"/>
      <point x="503" y="722" type="curve"/>
      <point x="457" y="722"/>
      <point x="411" y="722"/>
      <point x="365" y="722" type="curve"/>
      <point x="365" y="612"/>
      <point x="365" y="722"/>
      <point x="365" y="612" type="curve"/>
      <point x="503" y="612"/>
      <point x="365" y="612"/>
      <point x="503" y="612" type="curve"/>
    </contour>
    <contour>
      <point x="200" y="722"/>
      <point x="200" y="612"/>
      <point x="200" y="722" type="curve"/>
      <point x="155" y="722"/>
      <point x="109" y="722"/>
      <point x="63" y="722" type="curve"/>
      <point x="63" y="612"/>
      <point x="63" y="722"/>
      <point x="63" y="612" type="curve"/>
      <point x="200" y="612"/>
      <point x="63" y="612"/>
      <point x="200" y="612" type="curve"/>
    </contour>
    <contour>
      <point x="190" y="612"/>
      <point x="190" y="722"/>
      <point x="190" y="612" type="curve"/>
      <point x="328" y="612"/>
      <point x="190" y="612"/>
      <point x="328" y="612" type="curve"/>
      <point x="328" y="722"/>
      <point x="328" y="612"/>
      <point x="328" y="722" type="curve"/>
      <point x="282" y="722"/>
      <point x="236" y="722"/>
      <point x="190" y="722" type="curve"/>
    </contour>
    <contour>
      <point x="449" y="722"/>
      <point x="596" y="722"/>
      <point x="449" y="722" type="curve"/>
      <point x="324" y="481"/>
      <point x="199" y="241"/>
      <point x="74" y="0" type="curve"/>
      <point x="224" y="0"/>
      <point x="74" y="0"/>
      <point x="224" y="0" type="curve"/>
      <point x="348" y="241"/>
      <point x="472" y="481"/>
      <point x="596" y="722" type="curve"/>
    </contour>
    <contour>
      <point x="99" y="722"/>
      <point x="246" y="722"/>
      <point x="99" y="722" type="curve"/>
      <point x="222" y="481"/>
      <point x="345" y="241"/>
      <point x="468" y="0" type="curve"/>
      <point x="617" y="0"/>
      <point x="468" y="0"/>
      <point x="617" y="0" type="curve"/>
      <point x="493" y="241"/>
      <point x="370" y="481"/>
      <point x="246" y="722" type="curve"/>
    </contour>
  </outline>
</glyph>
<glyph name="Y" format="1">
  <advance width="680"/>
  <unicode hex="0059"/>
  <outline>
    <contour>
      <point x="332" y="110"/>
      <point x="332" y="0"/>
      <point x="332" y="110" type="curve"/>
      <point x="195" y="110"/>
      <point x="332" y="110"/>
      <point x="195" y="110" type="curve"/>
      <point x="195" y="0"/>
      <point x="195" y="110"/>
      <point x="195" y="0" type="curve"/>
      <point x="240" y="0"/>
      <point x="286" y="0"/>
      <point x="332" y="0" type="curve"/>
    </contour>
    <contour>
      <point x="332" y="0"/>
      <point x="332" y="110"/>
      <point x="332" y="0" type="curve"/>
      <point x="378" y="0"/>
      <point x="424" y="0"/>
      <point x="469" y="0" type="curve"/>
      <point x="469" y="110"/>
      <point x="469" y="0"/>
      <point x="469" y="110" type="curve"/>
      <point x="332" y="110"/>
      <point x="469" y="110"/>
      <point x="332" y="110" type="curve"/>
    </contour>
    <contour>
      <point x="489" y="722"/>
      <point x="489" y="612"/>
      <point x="489" y="722" type="curve"/>
      <point x="443" y="722"/>
      <point x="397" y="722"/>
      <point x="352" y="722" type="curve"/>
      <point x="352" y="612"/>
      <point x="352" y="722"/>
      <point x="352" y="612" type="curve"/>
      <point x="489" y="612"/>
      <point x="352" y="612"/>
      <point x="489" y="612" type="curve"/>
    </contour>
    <contour>
      <point x="165" y="722"/>
      <point x="165" y="612"/>
      <point x="165" y="722" type="curve"/>
      <point x="119" y="722"/>
      <point x="73" y="722"/>
      <point x="28" y="722" type="curve"/>
      <point x="27" y="612"/>
      <point x="28" y="722"/>
      <point x="27" y="612" type="curve"/>
      <point x="165" y="612"/>
      <point x="27" y="612"/>
      <point x="165" y="612" type="curve"/>
    </contour>
    <contour>
      <point x="185" y="612"/>
      <point x="185" y="722"/>
      <point x="185" y="612" type="curve"/>
      <point x="322" y="612"/>
      <point x="185" y="612"/>
      <point x="322" y="612" type="curve"/>
      <point x="322" y="722"/>
      <point x="322" y="612"/>
      <point x="322" y="722" type="curve"/>
      <point x="276" y="722"/>
      <point x="230" y="722"/>
      <point x="185" y="722" type="curve"/>
    </contour>
    <contour>
      <point x="509" y="612"/>
      <point x="509" y="722"/>
      <point x="509" y="612" type="curve"/>
      <point x="646" y="612"/>
      <point x="509" y="612"/>
      <point x="646" y="612" type="curve"/>
      <point x="646" y="722"/>
      <point x="646" y="612"/>
      <point x="646" y="722" type="curve"/>
      <point x="601" y="722"/>
      <point x="555" y="722"/>
      <point x="509" y="722" type="curve"/>
    </contour>
    <contour>
      <point x="83" y="722"/>
      <point x="228" y="722"/>
      <point x="83" y="722" type="curve"/>
      <point x="142" y="594"/>
      <point x="197" y="469"/>
      <point x="254" y="337" type="curve"/>
      <point x="399" y="337"/>
      <point x="232" y="337"/>
      <point x="377" y="337" type="curve"/>
      <point x="328" y="470"/>
      <point x="281" y="591"/>
      <point x="228" y="722" type="curve"/>
    </contour>
    <contour>
      <point x="446" y="722"/>
      <point x="591" y="722"/>
      <point x="446" y="722" type="curve"/>
      <point x="387" y="589"/>
      <point x="337" y="469"/>
      <point x="277" y="337" type="curve"/>
      <point x="422" y="337"/>
      <point x="265" y="337"/>
      <point x="410" y="337" type="curve"/>
      <point x="471" y="468"/>
      <point x="529" y="594"/>
      <point x="591" y="722" type="curve"/>
    </contour>
    <contour>
      <point x="410" y="0"/>
      <point x="254" y="0"/>
      <point x="410" y="0" type="curve"/>
      <point x="410" y="115"/>
      <point x="410" y="222"/>
      <point x="410" y="337" type="curve"/>
      <point x="254" y="337"/>
      <point x="410" y="337"/>
      <point x="254" y="337" type="curve"/>
      <point x="254" y="222"/>
      <point x="254" y="115"/>
      <point x="254" y="0" type="curve"/>
    </contour>
  </outline>
</glyph>
<glyph name="backslash" format="1">
  <advance width="516"/>
  <unicode hex="005C"/>
  <outline>
    <contour>
      <point x="477" y="-68"/>
      <point x="328" y="-68"/>
      <point x="477" y="-68" type="curve"/>
      <point x="379" y="236"/>
      <point x="281" y="540"/>
      <point x="183" y="844" type="curve"/>
      <point x="34" y="844"/>
      <point x="183" y="844"/>
      <point x="34" y="844" type="curve"/>
      <point x="132" y="540"/>
      <point x="230" y="236"/>
      <point x="328" y="-68" type="curve"/>
    </contour>
  </outline>
</glyph>
<glyph name="bracketright" format="1">
  <advance width="283"/>
  <unicode hex="005D"/>
  <outline>
    <contour>
      <point x="54" y="648"/>
      <point x="54" y="769"/>
      <point x="54" y="648" type="curve"/>
      <point x="92" y="648"/>
      <point x="130" y="648"/>
      <point x="168" y="648" type="curve"/>
      <point x="156" y="660"/>
      <point x="136" y="661"/>
      <point x="124" y="673" type="curve"/>
      <point x="113" y="686"/>
      <point x="103" y="701"/>
      <point x="92" y="714" type="curve"/>
      <point x="92" y="456"/>
      <point x="91" y="199"/>
      <point x="92" y="-59" type="curve"/>
      <point x="103" y="-45"/>
      <point x="116" y="-33"/>
      <point x="128" y="-20" type="curve"/>
      <point x="139" y="-7"/>
      <point x="158" y="-4"/>
      <point x="169" y="9" type="curve"/>
      <point x="131" y="9"/>
      <point x="92" y="9"/>
      <point x="54" y="9" type="curve"/>
      <point x="53" y="-113"/>
      <point x="54" y="9"/>
      <point x="53" y="-113" type="curve"/>
      <point x="92" y="-113"/>
      <point x="131" y="-113"/>
      <point x="169" y="-113" type="curve"/>
      <point x="235" y="-113"/>
      <point x="169" y="-113"/>
      <point x="235" y="-113" type="curve"/>
      <point x="235" y="-59"/>
      <point x="235" y="-113"/>
      <point x="235" y="-59" type="curve"/>
      <point x="234" y="199"/>
      <point x="235" y="456"/>
      <point x="235" y="714" type="curve"/>
      <point x="235" y="769"/>
      <point x="235" y="714"/>
      <point x="235" y="769" type="curve"/>
      <point x="168" y="769"/>
      <point x="235" y="769"/>
      <point x="168" y="769" type="curve"/>
      <point x="130" y="769"/>
      <point x="92" y="769"/>
      <point x="54" y="769" type="curve"/>
    </contour>
  </outline>
</glyph>
<glyph name="a" format="1">
  <advance width="504"/>
  <unicode hex="0061"/>
  <outline>
    <contour>
      <point x="48" y="461"/>
      <point x="160" y="461"/>
      <point x="48" y="461" type="curve"/>
      <point x="48" y="341"/>
      <point x="48" y="461"/>
      <point x="48" y="341" type="curve"/>
      <point x="160" y="341"/>
      <point x="48" y="341"/>
      <point x="160" y="341" type="curve"/>
      <point x="160" y="461"/>
      <point x="160" y="341"/>
      <point x="160" y="461" type="curve"/>
    </contour>
    <contour>
      <point x="426" y="0"/>
      <point x="283" y="0"/>
      <point x="426" y="0" type="curve"/>
      <point x="426" y="123"/>
      <point x="426" y="247"/>
      <point x="426" y="370" type="curve"/>
      <point x="426" y="488"/>
      <point x="347" y="533"/>
      <point x="232" y="533" type="curve"/>
      <point x="149" y="533"/>
      <point x="90" y="505"/>
      <point x="48" y="461" type="curve"/>
      <point x="101" y="368"/>
      <point x="48" y="461"/>
      <point x="101" y="368" type="curve"/>
      <point x="127" y="394"/>
      <point x="160" y="423"/>
      <point x="212" y="423" type="curve"/>
      <point x="258" y="423"/>
      <point x="283" y="392"/>
      <point x="283" y="337" type="curve"/>
      <point x="283" y="225"/>
      <point x="283" y="112"/>
      <point x="283" y="0" type="curve"/>
    </contour>
    <contour>
      <point x="356" y="0"/>
      <point x="356" y="110"/>
      <point x="356" y="0" type="curve"/>
      <point x="399" y="0"/>
      <point x="443" y="0"/>
      <point x="486" y="0" type="curve"/>
      <point x="486" y="110"/>
      <point x="486" y="0"/>
      <point x="486" y="110" type="curve"/>
      <point x="356" y="110"/>
      <point x="486" y="110"/>
      <point x="356" y="110" type="curve"/>
    </contour>
    <contour>
      <point x="351" y="350"/>
      <point x="357" y="256"/>
      <point x="351" y="350" type="curve"/>
      <point x="293" y="341"/>
      <point x="258" y="339"/>
      <point x="201" y="330" type="curve"/>
      <point x="92" y="313"/>
      <point x="20" y="269"/>
      <point x="20" y="165" type="curve"/>
      <point x="20" y="58"/>
      <point x="77" y="-5"/>
      <point x="183" y="-5" type="curve"/>
      <point x="288" y="-5"/>
      <point x="329" y="79"/>
      <point x="390" y="147" type="curve"/>
      <point x="318" y="208"/>
      <point x="390" y="147"/>
      <point x="318" y="208" type="curve"/>
      <point x="283" y="156"/>
      <point x="270" y="105"/>
      <point x="209" y="105" type="curve"/>
      <point x="172" y="105"/>
      <point x="158" y="129"/>
      <point x="158" y="171" type="curve"/>
      <point x="158" y="202"/>
      <point x="180" y="227"/>
      <point x="205" y="231" type="curve"/>
      <point x="268" y="241"/>
      <point x="294" y="246"/>
      <point x="357" y="256" type="curve"/>
    </contour>
  </outline>
</glyph>
<glyph name="d" format="1">
  <advance width="588"/>
  <unicode hex="0064"/>
  <outline>
    <contour>
      <point x="418" y="799"/>
      <point x="418" y="689"/>
      <point x="418" y="799" type="curve"/>
      <point x="372" y="799"/>
      <point x="327" y="800"/>
      <point x="281" y="800" type="curve"/>
      <point x="281" y="690"/>
      <point x="281" y="800"/>
      <point x="281" y="690" type="curve"/>
      <point x="418" y="689"/>
      <point x="281" y="690"/>
      <point x="418" y="689" type="curve"/>
    </contour>
    <contour>
      <point x="419" y="-1"/>
      <point x="419" y="110"/>
      <point x="419" y="-1" type="curve"/>
      <point x="465" y="-1"/>
      <point x="510" y="0"/>
      <point x="556" y="0" type="curve"/>
      <point x="556" y="110"/>
      <point x="556" y="0"/>
      <point x="556" y="110" type="curve"/>
      <point x="419" y="110"/>
      <point x="556" y="110"/>
      <point x="419" y="110" type="curve"/>
    </contour>
    <contour>
      <point x="422" y="451"/>
      <point x="373" y="368"/>
      <point x="422" y="451" type="curve"/>
      <point x="376" y="507"/>
      <point x="318" y="533"/>
      <point x="244" y="533" type="curve"/>
      <point x="97" y="533"/>
      <point x="28" y="413"/>
      <point x="28" y="262" type="curve"/>
      <point x="28" y="114"/>
      <point x="101" y="0"/>
      <point x="240" y="0" type="curve"/>
      <point x="324" y="0"/>
      <point x="384" y="38"/>
      <point x="422" y="112" type="curve"/>
      <point x="373" y="189"/>
      <point x="422" y="112"/>
      <point x="373" y="189" type="curve"/>
      <point x="349" y="144"/>
      <point x="320" y="110"/>
      <point x="269" y="110" type="curve"/>
      <point x="194" y="110"/>
      <point x="171" y="183"/>
      <point x="171" y="268" type="curve"/>
      <point x="171" y="352"/>
      <point x="199" y="423"/>
      <point x="274" y="423" type="curve"/>
      <point x="317" y="423"/>
      <point x="348" y="401"/>
      <point x="373" y="368" type="curve"/>
    </contour>
    <contour>
      <point x="493" y="0"/>
      <point x="344" y="0"/>
      <point x="493" y="0" type="curve"/>
      <point x="493" y="267"/>
      <point x="493" y="533"/>
      <point x="493" y="800" type="curve"/>
      <point x="344" y="800"/>
      <point x="493" y="800"/>
      <point x="344" y="800" type="curve"/>
      <point x="344" y="533"/>
      <point x="344" y="267"/>
      <point x="344" y="0" type="curve"/>
    </contour>
  </outline>
</glyph>
<glyph name="f" format="1">
  <advance width="455"/>
  <unicode hex="0066"/>
  <outline>
    <contour>
      <point x="287" y="769"/>
      <point x="399" y="769"/>
      <point x="287" y="769" type="curve"/>
      <point x="287" y="649"/>
      <point x="287" y="769"/>
      <point x="287" y="649" type="curve"/>
      <point x="399" y="649"/>
      <point x="287" y="649"/>
      <point x="399" y="649" type="curve"/>
      <point x="399" y="769"/>
      <point x="399" y="649"/>
      <point x="399" y="769" type="curve"/>
    </contour>
    <contour>
      <point x="190.5" y="-0.58747160013"/>
      <point x="190.5" y="109.9125284"/>
      <point x="190.5" y="-0.58747160013" type="curve"/>
      <point x="236.250171131" y="-0.58747160013"/>
      <point x="281.999828869" y="0"/>
      <point x="327.75" y="0" type="curve"/>
      <point x="327.75" y="110.5"/>
      <point x="327.75" y="0"/>
      <point x="327.75" y="110.5" type="curve"/>
      <point x="190.5" y="109.9125284"/>
      <point x="327.75" y="110.5"/>
      <point x="190.5" y="109.9125284" type="curve"/>
    </contour>
    <contour>
      <point x="190.5" y="109.9125284"/>
      <point x="190.5" y="-0.58747160013"/>
      <point x="190.5" y="109.9125284" type="curve"/>
      <point x="53.25" y="110.5"/>
      <point x="190.5" y="109.9125284"/>
      <point x="53.25" y="110.5" type="curve"/>
      <point x="53.25" y="0"/>
      <point x="53.25" y="110.5"/>
      <point x="53.25" y="0" type="curve"/>
      <point x="99.0001711309" y="-5.60259502554e-15"/>
      <point x="144.749828869" y="-0.58747160013"/>
      <point x="190.5" y="-0.58747160013" type="curve"/>
    </contour>
    <contour>
      <point x="51.75" y="430.792015579"/>
      <point x="51.75" y="541.292015579"/>
      <point x="51.75" y="430.792015579" type="curve"/>
      <point x="51.75" y="430.792015579"/>
      <point x="367.5" y="430.792015579"/>
      <point x="367.5" y="430.792015579" type="curve"/>
      <point x="367.5" y="541.292015579"/>
      <point x="367.5" y="430.792015579"/>
      <point x="367.5" y="541.292015579" type="curve"/>
      <point x="367.5" y="541.292015579"/>
      <point x="51.75" y="541.292015579"/>
      <point x="51.75" y="541.292015579" type="curve"/>
    </contour>
    <contour>
      <point x="262" y="0"/>
      <point x="119" y="7.44254511536e-15"/>
      <point x="262" y="0" type="curve"/>
      <point x="262" y="0"/>
      <point x="262" y="604.284493671"/>
      <point x="262" y="604.284493671" type="curve"/>
      <point x="262.055720144" y="652.801763179"/>
      <point x="260.0" y="699.0"/>
      <point x="293" y="699" type="curve"/>
      <point x="311" y="699"/>
      <point x="326" y="690"/>
      <point x="341" y="681" type="curve"/>
      <point x="399" y="769"/>
      <point x="341" y="681"/>
      <point x="399" y="769" type="curve"/>
      <point x="368" y="790"/>
      <point x="331" y="805"/>
      <point x="293" y="805" type="curve"/>
      <point x="182.0" y="805.0"/>
      <point x="117.889276715" y="722.72699702"/>
      <point x="119" y="604.284493671" type="curve"/>
      <point x="119" y="604.284493671"/>
      <point x="119" y="7.44254511536e-15"/>
      <point x="119" y="7.44254511536e-15" type="curve"/>
    </contour>
  </outline>
</glyph>
<glyph name="i" format="1">
  <advance width="307"/>
  <unicode hex="0069"/>
  <outline>
    <contour>
      <point x="157" y="110"/>
      <point x="157" y="0"/>
      <point x="157" y="110" type="curve"/>
      <point x="20" y="110"/>
      <point x="157" y="110"/>
      <point x="20" y="110" type="curve"/>
      <point x="19" y="0"/>
      <point x="20" y="110"/>
      <point x="19" y="0" type="curve"/>
      <point x="65" y="0"/>
      <point x="111" y="0"/>
      <point x="157" y="0" type="curve"/>
    </contour>
    <contour>
      <point x="157" y="0"/>
      <point x="157" y="110"/>
      <point x="157" y="0" type="curve"/>
      <point x="200" y="0"/>
      <point x="243" y="0"/>
      <point x="287" y="0" type="curve"/>
      <point x="287" y="110"/>
      <point x="287" y="0"/>
      <point x="287" y="110" type="curve"/>
      <point x="157" y="110"/>
      <point x="287" y="110"/>
      <point x="157" y="110" type="curve"/>
    </contour>
    <contour>
      <point x="157" y="533"/>
      <point x="157" y="423"/>
      <point x="157" y="533" type="curve"/>
      <point x="111" y="533"/>
      <point x="65" y="533"/>
      <point x="20" y="533" type="curve"/>
      <point x="19" y="423"/>
      <point x="20" y="533"/>
      <point x="19" y="423" type="curve"/>
      <point x="157" y="423"/>
      <point x="19" y="423"/>
      <point x="157" y="423" type="curve"/>
    </contour>
    <contour>
      <point x="241" y="670"/>
      <point x="72" y="670"/>
      <point x="241" y="670" type="curve"/>
      <point x="241" y="718"/>
      <point x="205" y="742"/>
      <point x="155" y="742" type="curve"/>
      <point x="106" y="742"/>
      <point x="72" y="715"/>
      <point x="72" y="670" type="curve"/>
      <point x="241" y="670"/>
      <point x="72" y="670"/>
      <point x="241" y="670" type="curve"/>
      <point x="241" y="621"/>
      <point x="205" y="599"/>
      <point x="155" y="599" type="curve"/>
      <point x="105" y="599"/>
      <point x="72" y="623"/>
      <point x="72" y="670" type="curve"/>
    </contour>
    <contour>
      <point x="232" y="0"/>
      <point x="82" y="0"/>
      <point x="232" y="0" type="curve"/>
      <point x="232" y="178"/>
      <point x="232" y="355"/>
      <point x="232" y="533" type="curve"/>
      <point x="82" y="533"/>
      <point x="232" y="533"/>
      <point x="82" y="533" type="curve"/>
      <point x="82" y="355"/>
      <point x="82" y="178"/>
      <point x="82" y="0" type="curve"/>
    </contour>
  </outline>
</glyph>
<glyph name="j" format="1">
  <advance width="272"/>
  <unicode hex="006A"/>
  <outline>
    <contour>
      <point x="162" y="533"/>
      <point x="162" y="423"/>
      <point x="162" y="533" type="curve"/>
      <point x="117" y="533"/>
      <point x="71" y="533"/>
      <point x="25" y="533" type="curve"/>
      <point x="25" y="423"/>
      <point x="25" y="533"/>
      <point x="25" y="423" type="curve"/>
      <point x="162" y="423"/>
      <point x="25" y="423"/>
      <point x="162" y="423" type="curve"/>
    </contour>
    <contour>
      <point x="248" y="670"/>
      <point x="80" y="670"/>
      <point x="248" y="670" type="curve"/>
      <point x="248" y="718"/>
      <point x="213" y="742"/>
      <point x="163" y="742" type="curve"/>
      <point x="113" y="742"/>
      <point x="80" y="715"/>
      <point x="80" y="670" type="curve"/>
      <point x="248" y="670"/>
      <point x="80" y="670"/>
      <point x="248" y="670" type="curve"/>
      <point x="248" y="621"/>
      <point x="213" y="599"/>
      <point x="163" y="599" type="curve"/>
      <point x="113" y="599"/>
      <point x="80" y="623"/>
      <point x="80" y="670" type="curve"/>
    </contour>
    <contour>
      <point x="22" y="-304"/>
      <point x="42" y="-199"/>
      <point x="22" y="-304" type="curve"/>
      <point x="30" y="-305"/>
      <point x="40" y="-305"/>
      <point x="50" y="-305" type="curve"/>
      <point x="160" y="-305"/>
      <point x="235" y="-230"/>
      <point x="235" y="-120" type="curve"/>
      <point x="235" y="98"/>
      <point x="235" y="316"/>
      <point x="235" y="534" type="curve"/>
      <point x="92" y="534"/>
      <point x="235" y="534"/>
      <point x="92" y="534" type="curve"/>
      <point x="92.0" y="316.138540356"/>
      <point x="92.0" y="98.0336946109"/>
      <point x="92" y="-120" type="curve"/>
      <point x="92.0" y="-160.0"/>
      <point x="91.0" y="-200.0"/>
      <point x="56" y="-200" type="curve"/>
      <point x="51" y="-200"/>
      <point x="49" y="-200"/>
      <point x="42" y="-199" type="curve"/>
    </contour>
  </outline>
</glyph>
<glyph name="k" format="1">
  <advance width="615"/>
  <unicode hex="006B"/>
  <outline>
    <contour>
      <point x="174" y="110"/>
      <point x="174" y="-1"/>
      <point x="174" y="110" type="curve"/>
      <point x="37" y="110"/>
      <point x="174" y="110"/>
      <point x="37" y="110" type="curve"/>
      <point x="37" y="0"/>
      <point x="37" y="110"/>
      <point x="37" y="0" type="curve"/>
      <point x="83" y="0"/>
      <point x="128" y="-1"/>
      <point x="174" y="-1" type="curve"/>
    </contour>
    <contour>
      <point x="431" y="-1"/>
      <point x="431" y="110"/>
      <point x="431" y="-1" type="curve"/>
      <point x="477" y="-1"/>
      <point x="523" y="0"/>
      <point x="569" y="0" type="curve"/>
      <point x="569" y="110"/>
      <point x="569" y="0"/>
      <point x="569" y="110" type="curve"/>
      <point x="431" y="110"/>
      <point x="569" y="110"/>
      <point x="431" y="110" type="curve"/>
    </contour>
    <contour>
      <point x="412" y="423"/>
      <point x="412" y="533"/>
      <point x="412" y="423" type="curve"/>
      <point x="539" y="423"/>
      <point x="412" y="423"/>
      <point x="539" y="423" type="curve"/>
      <point x="539" y="533"/>
      <point x="539" y="423"/>
      <point x="539" y="533" type="curve"/>
      <point x="497" y="533"/>
      <point x="454" y="533"/>
      <point x="412" y="533" type="curve"/>
    </contour>
    <contour>
      <point x="174" y="-1"/>
      <point x="174" y="110"/>
      <point x="174" y="-1" type="curve"/>
      <point x="206.921875" y="-1.0"/>
      <point x="174" y="-1"/>
      <point x="272" y="0" type="curve"/>
      <point x="272" y="110"/>
      <point x="272" y="0"/>
      <point x="272" y="110" type="curve"/>
      <point x="174" y="110"/>
      <point x="272.0" y="110.0"/>
      <point x="174" y="110" type="curve"/>
    </contour>
    <contour>
      <point x="442" y="533"/>
      <point x="442" y="423"/>
      <point x="442" y="533" type="curve"/>
      <point x="387.423076923" y="533.0"/>
      <point x="332" y="533"/>
      <point x="277" y="533" type="curve"/>
      <point x="277" y="423"/>
      <point x="277" y="533"/>
      <point x="277" y="423" type="curve"/>
      <point x="442" y="423"/>
      <point x="277.0" y="423.0"/>
      <point x="442" y="423" type="curve"/>
    </contour>
    <contour>
      <point x="176" y="799"/>
      <point x="176" y="689"/>
      <point x="176" y="799" type="curve"/>
      <point x="130" y="799"/>
      <point x="84" y="800"/>
      <point x="38" y="800" type="curve"/>
      <point x="38" y="690"/>
      <point x="38" y="800"/>
      <point x="38" y="690" type="curve"/>
      <point x="176" y="689"/>
      <point x="38" y="690"/>
      <point x="176" y="689" type="curve"/>
    </contour>
    <contour>
      <point x="246" y="0"/>
      <point x="103" y="0"/>
      <point x="246" y="0" type="curve"/>
      <point x="246" y="0"/>
      <point x="246" y="800"/>
      <point x="246" y="800" type="curve"/>
      <point x="103" y="800"/>
      <point x="246" y="800"/>
      <point x="103" y="800" type="curve"/>
      <point x="103" y="533"/>
      <point x="103" y="267"/>
      <point x="103" y="0" type="curve"/>
    </contour>
    <contour>
      <point x="377" y="533"/>
      <point x="532" y="533"/>
      <point x="377" y="533" type="curve"/>
      <point x="289" y="447"/>
      <point x="201" y="361"/>
      <point x="114" y="275" type="curve"/>
      <point x="269" y="275"/>
      <point x="114" y="275"/>
      <point x="269" y="275" type="curve"/>
      <point x="356" y="361"/>
      <point x="444" y="447"/>
      <point x="532" y="533" type="curve"/>
    </contour>
    <contour>
      <point x="552" y="0"/>
      <point x="397" y="0"/>
      <point x="552" y="0" type="curve"/>
      <point x="457" y="92"/>
      <point x="363" y="183"/>
      <point x="269" y="275" type="curve"/>
      <point x="114" y="275"/>
      <point x="269" y="275"/>
      <point x="114" y="275" type="curve"/>
      <point x="208" y="183"/>
      <point x="302" y="92"/>
      <point x="397" y="0" type="curve"/>
    </contour>
  </outline>
</glyph>
<glyph name="o" format="1">
  <advance width="503"/>
  <unicode hex="006F"/>
  <outline>
    <contour>
      <point x="153" y="265" type="line"/>
      <point x="153" y="345"/>
      <point x="171" y="423"/>
      <point x="247" y="423" type="curve"/>
      <point x="323" y="423"/>
      <point x="343" y="347"/>
      <point x="343" y="265" type="curve"/>
      <point x="343" y="180"/>
      <point x="327" y="110"/>
      <point x="256" y="110" type="curve"/>
      <point x="171" y="111"/>
      <point x="153" y="179"/>
      <point x="153" y="265" type="curve"/>
      <point x="20" y="265" type="line"/>
      <point x="20" y="105"/>
      <point x="98" y="-5"/>
      <point x="250" y="-5" type="curve"/>
      <point x="404" y="-5"/>
      <point x="486" y="103"/>
      <point x="486" y="265" type="curve"/>
      <point x="486" y="427"/>
      <point x="407" y="538"/>
      <point x="254" y="538" type="curve"/>
      <point x="99" y="538"/>
      <point x="20" y="427"/>
      <point x="20" y="265" type="curve"/>
    </contour>
  </outline>
</glyph>
<glyph name="r" format="1">
  <advance width="363"/>
  <unicode hex="0072"/>
  <outline>
    <contour>
      <point x="153" y="0"/>
      <point x="153" y="110"/>
      <point x="153" y="0" type="curve"/>
      <point x="196" y="0"/>
      <point x="239" y="0"/>
      <point x="283" y="0" type="curve"/>
      <point x="283" y="110"/>
      <point x="283" y="0"/>
      <point x="283" y="110" type="curve"/>
      <point x="153" y="110"/>
      <point x="283" y="110"/>
      <point x="153" y="110" type="curve"/>
    </contour>
    <contour>
      <point x="153" y="110"/>
      <point x="153" y="0"/>
      <point x="153" y="110" type="curve"/>
      <point x="16" y="110"/>
      <point x="153" y="110"/>
      <point x="16" y="110" type="curve"/>
      <point x="15" y="0"/>
      <point x="16" y="110"/>
      <point x="15" y="0" type="curve"/>
      <point x="61" y="0"/>
      <point x="107" y="0"/>
      <point x="153" y="0" type="curve"/>
    </contour>
    <contour>
      <point x="152" y="533"/>
      <point x="152" y="423"/>
      <point x="152" y="533" type="curve"/>
      <point x="106" y="533"/>
      <point x="60" y="533"/>
      <point x="15" y="533" type="curve"/>
      <point x="15" y="423"/>
      <point x="15" y="533"/>
      <point x="15" y="423" type="curve"/>
      <point x="152" y="423"/>
      <point x="15" y="423"/>
      <point x="152" y="423" type="curve"/>
    </contour>
    <contour>
      <point x="224" y="0"/>
      <point x="81" y="0"/>
      <point x="224" y="0" type="curve"/>
      <point x="224" y="178"/>
      <point x="224" y="355"/>
      <point x="224" y="533" type="curve"/>
      <point x="81" y="533"/>
      <point x="224" y="533"/>
      <point x="81" y="533" type="curve"/>
      <point x="81" y="355"/>
      <point x="81" y="178"/>
      <point x="81" y="0" type="curve"/>
    </contour>
    <contour>
      <point x="182" y="351"/>
      <point x="141" y="397"/>
      <point x="182" y="351" type="curve"/>
      <point x="213" y="410"/>
      <point x="272" y="423"/>
      <point x="340" y="423" type="curve"/>
      <point x="340" y="538"/>
      <point x="340" y="423"/>
      <point x="340" y="538" type="curve"/>
      <point x="245" y="538"/>
      <point x="181" y="484"/>
      <point x="141" y="397" type="curve"/>
    </contour>
  </outline>
</glyph>
<glyph name="s" format="1">
  <advance width="402"/>
  <unicode hex="0073"/>
  <outline>
    <contour>
      <point x="20" y="47"/>
      <point x="92" y="146"/>
      <point x="20" y="47" type="curve"/>
      <point x="76.4661484993" y="15.1736253913"/>
      <point x="130.0" y="-5.0"/>
      <point x="190" y="-5" type="curve"/>
      <point x="305.0" y="-5.0"/>
      <point x="381.0" y="50.6666666667"/>
      <point x="381" y="162" type="curve"/>
      <point x="380" y="259"/>
      <point x="309" y="293"/>
      <point x="214" y="327" type="curve"/>
      <point x="179" y="339"/>
      <point x="153" y="357"/>
      <point x="153" y="388" type="curve"/>
      <point x="153" y="407"/>
      <point x="164.666666667" y="423.0"/>
      <point x="188" y="423" type="curve"/>
      <point x="218" y="423"/>
      <point x="254" y="407"/>
      <point x="273" y="393" type="curve"/>
      <point x="338" y="493"/>
      <point x="273" y="393"/>
      <point x="338" y="493" type="curve"/>
      <point x="305.650336396" y="515.957825784"/>
      <point x="245.0" y="538.0"/>
      <point x="194" y="538" type="curve"/>
      <point x="90.0" y="538.0"/>
      <point x="23.0" y="487.310344828"/>
      <point x="23" y="388" type="curve"/>
      <point x="23" y="297"/>
      <point x="79" y="253"/>
      <point x="168" y="222" type="curve"/>
      <point x="208.697810801" y="207.75576622"/>
      <point x="244" y="191"/>
      <point x="244" y="153" type="curve"/>
      <point x="244" y="128"/>
      <point x="227" y="114"/>
      <point x="205" y="114" type="curve"/>
      <point x="163" y="114"/>
      <point x="127.80071013" y="125.273273083"/>
      <point x="92" y="146" type="curve"/>
    </contour>
    <contour>
      <point x="226" y="493"/>
      <point x="338" y="493"/>
      <point x="226" y="493" type="curve"/>
      <point x="226.0" y="358.0"/>
      <point x="226" y="493"/>
      <point x="226" y="358" type="curve"/>
      <point x="338" y="358"/>
      <point x="226" y="358"/>
      <point x="338" y="358" type="curve"/>
      <point x="338" y="493"/>
      <point x="338.0" y="358.0"/>
      <point x="338" y="493" type="curve"/>
    </contour>
    <contour>
      <point x="132" y="47"/>
      <point x="20" y="47"/>
      <point x="132" y="47" type="curve"/>
      <point x="132.0" y="193.0"/>
      <point x="132" y="47"/>
      <point x="132" y="193" type="curve"/>
      <point x="20" y="193"/>
      <point x="132" y="193"/>
      <point x="20" y="193" type="curve"/>
      <point x="20" y="47"/>
      <point x="20.0" y="193.0"/>
      <point x="20" y="47" type="curve"/>
    </contour>
  </outline>
</glyph>
<glyph name="t" format="1">
  <advance width="364"/>
  <unicode hex="0074"/>
  <outline>
    <contour>
      <point x="32.25" y="421.068297631"/>
      <point x="32.25" y="531.568297631"/>
      <point x="32.25" y="421.068297631" type="curve"/>
      <point x="32.25" y="421.068297631"/>
      <point x="325.5" y="421.068297631"/>
      <point x="325.5" y="421.068297631" type="curve"/>
      <point x="325.5" y="531.568297631"/>
      <point x="325.5" y="421.068297631"/>
      <point x="325.5" y="531.568297631" type="curve"/>
      <point x="325.5" y="531.568297631"/>
      <point x="32.25" y="531.568297631"/>
      <point x="32.25" y="531.568297631" type="curve"/>
    </contour>
    <contour>
      <point x="281.625" y="125.050348913"/>
      <point x="340.125" y="31.1253489127"/>
      <point x="281.625" y="125.050348913" type="curve"/>
      <point x="270" y="115"/>
      <point x="262" y="110"/>
      <point x="248" y="110" type="curve"/>
      <point x="216" y="110"/>
      <point x="219.25" y="139.524878879"/>
      <point x="219.25" y="175.435605323" type="curve"/>
      <point x="219.25" y="175.435605323"/>
      <point x="219.25" y="651.456759169"/>
      <point x="219.25" y="651.456759169" type="curve"/>
      <point x="76.25" y="579.631759169"/>
      <point x="219.25" y="651.456759169"/>
      <point x="76.25" y="579.631759169" type="curve"/>
      <point x="76.25" y="579.631759169"/>
      <point x="76.25" y="169.910605323"/>
      <point x="76.25" y="169.910605323" type="curve"/>
      <point x="76.25" y="59.7722183011"/>
      <point x="125.539237543" y="-5.58747160013"/>
      <point x="226.75" y="-5.58747160013" type="curve"/>
      <point x="271.450091758" y="-5.58747160013"/>
      <point x="301.220599353" y="8.11847259016"/>
      <point x="340.125" y="31.1253489127" type="curve"/>
    </contour>
  </outline>
</glyph>
<glyph name="v" format="1">
  <advance width="629"/>
  <unicode hex="0076"/>
  <outline>
    <contour>
      <point x="162" y="533"/>
      <point x="162" y="423"/>
      <point x="162" y="533" type="curve"/>
      <point x="116" y="533"/>
      <point x="70" y="533"/>
      <point x="25" y="533" type="curve"/>
      <point x="25" y="423"/>
      <point x="25" y="533"/>
      <point x="25" y="423" type="curve"/>
      <point x="162" y="423"/>
      <point x="25" y="423"/>
      <point x="162" y="423" type="curve"/>
    </contour>
    <contour>
      <point x="162" y="423"/>
      <point x="162" y="533"/>
      <point x="162" y="423" type="curve"/>
      <point x="299" y="423"/>
      <point x="162" y="423"/>
      <point x="299" y="423" type="curve"/>
      <point x="299" y="533"/>
      <point x="299" y="423"/>
      <point x="299" y="533" type="curve"/>
      <point x="254" y="533"/>
      <point x="208" y="533"/>
      <point x="162" y="533" type="curve"/>
    </contour>
    <contour>
      <point x="469" y="533"/>
      <point x="469" y="423"/>
      <point x="469" y="533" type="curve"/>
      <point x="423" y="533"/>
      <point x="377" y="533"/>
      <point x="332" y="533" type="curve"/>
      <point x="332" y="423"/>
      <point x="332" y="533"/>
      <point x="332" y="423" type="curve"/>
      <point x="469" y="423"/>
      <point x="332" y="423"/>
      <point x="469" y="423" type="curve"/>
    </contour>
    <contour>
      <point x="469" y="423"/>
      <point x="469" y="533"/>
      <point x="469" y="423" type="curve"/>
      <point x="606" y="423"/>
      <point x="469" y="423"/>
      <point x="606" y="423" type="curve"/>
      <point x="606" y="533"/>
      <point x="606" y="423"/>
      <point x="606" y="533" type="curve"/>
      <point x="560" y="533"/>
      <point x="514" y="533"/>
      <point x="469" y="533" type="curve"/>
    </contour>
    <contour>
      <point x="82" y="533"/>
      <point x="227" y="533"/>
      <point x="82" y="533" type="curve"/>
      <point x="134" y="355"/>
      <point x="186" y="178"/>
      <point x="238" y="0" type="curve"/>
      <point x="371" y="0"/>
      <point x="238.0" y="0.0"/>
      <point x="371" y="0" type="curve"/>
      <point x="320.243663181" y="177.149567723"/>
      <point x="277.756336819" y="355.850432277"/>
      <point x="227" y="533" type="curve"/>
    </contour>
    <contour>
      <point x="405" y="533"/>
      <point x="549" y="533"/>
      <point x="405" y="533" type="curve"/>
      <point x="405.0" y="533.0"/>
      <point x="251.0" y="0.0"/>
      <point x="251" y="0" type="curve"/>
      <point x="385.0" y="0.0"/>
      <point x="251.0" y="0.0"/>
      <point x="385" y="0" type="curve"/>
      <point x="440" y="178"/>
      <point x="494" y="355"/>
      <point x="549" y="533" type="curve"/>
    </contour>
  </outline>
</glyph>
<glyph name="w" format="1">
  <advance width="854"/>
  <unicode hex="0077"/>
  <outline>
    <contour>
      <point x="695" y="423"/>
      <point x="695" y="533"/>
      <point x="695" y="423" type="curve"/>
      <point x="832" y="423"/>
      <point x="695" y="423"/>
      <point x="832" y="423" type="curve"/>
      <point x="832" y="533"/>
      <point x="832" y="423"/>
      <point x="832" y="533" type="curve"/>
      <point x="786" y="533"/>
      <point x="740" y="533"/>
      <point x="695" y="533" type="curve"/>
    </contour>
    <contour>
      <point x="695" y="533"/>
      <point x="695" y="423"/>
      <point x="695" y="533" type="curve"/>
      <point x="649" y="533"/>
      <point x="603" y="533"/>
      <point x="558" y="533" type="curve"/>
      <point x="558" y="423"/>
      <point x="558" y="533"/>
      <point x="558" y="423" type="curve"/>
      <point x="695" y="423"/>
      <point x="558" y="423"/>
      <point x="695" y="423" type="curve"/>
    </contour>
    <contour>
      <point x="164" y="533"/>
      <point x="164" y="423"/>
      <point x="164" y="533" type="curve"/>
      <point x="118" y="533"/>
      <point x="72" y="533"/>
      <point x="26" y="533" type="curve"/>
      <point x="26" y="423"/>
      <point x="26" y="533"/>
      <point x="26" y="423" type="curve"/>
      <point x="164" y="423"/>
      <point x="26" y="423"/>
      <point x="164" y="423" type="curve"/>
    </contour>
    <contour>
      <point x="164" y="423"/>
      <point x="164" y="533"/>
      <point x="164" y="423" type="curve"/>
      <point x="301" y="423"/>
      <point x="164" y="423"/>
      <point x="301" y="423" type="curve"/>
      <point x="301" y="533"/>
      <point x="301" y="423"/>
      <point x="301" y="533" type="curve"/>
      <point x="255" y="533"/>
      <point x="209" y="533"/>
      <point x="164" y="533" type="curve"/>
    </contour>
    <contour>
      <point x="341" y="0"/>
      <point x="220" y="0"/>
      <point x="341" y="0" type="curve"/>
      <point x="392" y="178"/>
      <point x="443" y="355"/>
      <point x="493" y="533" type="curve"/>
      <point x="370" y="533"/>
      <point x="493" y="533"/>
      <point x="370" y="533" type="curve"/>
      <point x="320" y="355"/>
      <point x="270" y="178"/>
      <point x="220" y="0" type="curve"/>
    </contour>
    <contour>
      <point x="653" y="533"/>
      <point x="776" y="533"/>
      <point x="653" y="533" type="curve"/>
      <point x="606" y="355"/>
      <point x="559" y="178"/>
      <point x="513" y="0" type="curve"/>
      <point x="633" y="0"/>
      <point x="513" y="0"/>
      <point x="633" y="0" type="curve"/>
      <point x="681" y="178"/>
      <point x="729" y="355"/>
      <point x="776" y="533" type="curve"/>
    </contour>
    <contour>
      <point x="375" y="533"/>
      <point x="497" y="533"/>
      <point x="375" y="533" type="curve"/>
      <point x="420" y="355"/>
      <point x="466" y="178"/>
      <point x="512" y="0" type="curve"/>
      <point x="633" y="0"/>
      <point x="512" y="0"/>
      <point x="633" y="0" type="curve"/>
      <point x="588" y="178"/>
      <point x="542" y="355"/>
      <point x="497" y="533" type="curve"/>
    </contour>
    <contour>
      <point x="83" y="533"/>
      <point x="205" y="533"/>
      <point x="83" y="533" type="curve"/>
      <point x="128" y="355"/>
      <point x="174" y="178"/>
      <point x="220" y="0" type="curve"/>
      <point x="340" y="0"/>
      <point x="220" y="0"/>
      <point x="340" y="0" type="curve"/>
      <point x="295" y="178"/>
      <point x="250" y="355"/>
      <point x="205" y="533" type="curve"/>
    </contour>
  </outline>
</glyph>
<glyph name="x" format="1">
  <advance width="627"/>
  <unicode hex="0078"/>
  <outline>
    <contour>
      <point x="174" y="110"/>
      <point x="174" y="0"/>
      <point x="174" y="110" type="curve"/>
      <point x="37" y="110"/>
      <point x="174" y="110"/>
      <point x="37" y="110" type="curve"/>
      <point x="37" y="0"/>
      <point x="37" y="110"/>
      <point x="37" y="0" type="curve"/>
      <point x="82" y="0"/>
      <point x="128" y="0"/>
      <point x="174" y="0" type="curve"/>
    </contour>
    <contour>
      <point x="463" y="110"/>
      <point x="463" y="0"/>
      <point x="463" y="110" type="curve"/>
      <point x="326" y="110"/>
      <point x="463" y="110"/>
      <point x="326" y="110" type="curve"/>
      <point x="326" y="0"/>
      <point x="326" y="110"/>
      <point x="326" y="0" type="curve"/>
      <point x="371" y="0"/>
      <point x="417" y="0"/>
      <point x="463" y="0" type="curve"/>
    </contour>
    <contour>
      <point x="443" y="0"/>
      <point x="443" y="110"/>
      <point x="443" y="0" type="curve"/>
      <point x="489" y="0"/>
      <point x="535" y="0"/>
      <point x="580" y="0" type="curve"/>
      <point x="580" y="110"/>
      <point x="580" y="0"/>
      <point x="580" y="110" type="curve"/>
      <point x="443" y="110"/>
      <point x="580" y="110"/>
      <point x="443" y="110" type="curve"/>
    </contour>
    <contour>
      <point x="154" y="0"/>
      <point x="154" y="110"/>
      <point x="154" y="0" type="curve"/>
      <point x="200" y="0"/>
      <point x="154" y="0"/>
      <point x="291" y="0" type="curve"/>
      <point x="291" y="110"/>
      <point x="291" y="0"/>
      <point x="291" y="110" type="curve"/>
      <point x="154" y="110"/>
      <point x="291" y="110"/>
      <point x="154" y="110" type="curve"/>
    </contour>
    <contour>
      <point x="431" y="423"/>
      <point x="431" y="533"/>
      <point x="431" y="423" type="curve"/>
      <point x="568" y="423"/>
      <point x="431" y="423"/>
      <point x="568" y="423" type="curve"/>
      <point x="568" y="533"/>
      <point x="568" y="423"/>
      <point x="568" y="533" type="curve"/>
      <point x="523" y="533"/>
      <point x="477" y="533"/>
      <point x="431" y="533" type="curve"/>
    </contour>
    <contour>
      <point x="189" y="533"/>
      <point x="189" y="423"/>
      <point x="189" y="533" type="curve"/>
      <point x="143" y="533"/>
      <point x="97" y="533"/>
      <point x="52" y="533" type="curve"/>
      <point x="52" y="423"/>
      <point x="52" y="533"/>
      <point x="52" y="423" type="curve"/>
      <point x="189" y="423"/>
      <point x="52" y="423"/>
      <point x="189" y="423" type="curve"/>
    </contour>
    <contour>
      <point x="159" y="423"/>
      <point x="159" y="533"/>
      <point x="159" y="423" type="curve"/>
      <point x="296" y="423"/>
      <point x="159" y="423"/>
      <point x="296" y="423" type="curve"/>
      <point x="296" y="533"/>
      <point x="296" y="423"/>
      <point x="296" y="533" type="curve"/>
      <point x="251" y="533"/>
      <point x="205" y="533"/>
      <point x="159" y="533" type="curve"/>
    </contour>
    <contour>
      <point x="461" y="533"/>
      <point x="461" y="423"/>
      <point x="461" y="533" type="curve"/>
      <point x="415" y="533"/>
      <point x="369" y="533"/>
      <point x="324" y="533" type="curve"/>
      <point x="324" y="423"/>
      <point x="324" y="533"/>
      <point x="324" y="423" type="curve"/>
      <point x="461" y="423"/>
      <point x="324" y="423"/>
      <point x="461" y="423" type="curve"/>
    </contour>
    <contour>
      <point x="536" y="0"/>
      <point x="410" y="0"/>
      <point x="536" y="0" type="curve"/>
      <point x="432" y="178"/>
      <point x="327" y="355"/>
      <point x="223" y="533" type="curve"/>
      <point x="99" y="533"/>
      <point x="223" y="533"/>
      <point x="99" y="533" type="curve"/>
      <point x="203" y="355"/>
      <point x="307" y="178"/>
      <point x="410" y="0" type="curve"/>
    </contour>
    <contour>
      <point x="398" y="533"/>
      <point x="522" y="533"/>
      <point x="398" y="533" type="curve"/>
      <point x="293" y="355"/>
      <point x="187" y="178"/>
      <point x="82" y="0" type="curve"/>
      <point x="208" y="0"/>
      <point x="82" y="0"/>
      <point x="208" y="0" type="curve"/>
      <point x="313" y="178"/>
      <point x="418" y="355"/>
      <point x="522" y="533" type="curve"/>
    </contour>
  </outline>
</glyph>
<glyph name="y" format="1">
  <advance width="620"/>
  <unicode hex="0079"/>
  <outline>
    <contour>
      <point x="173" y="-188"/>
      <point x="173" y="-299"/>
      <point x="173" y="-188" type="curve"/>
      <point x="36" y="-190"/>
      <point x="173" y="-188"/>
      <point x="36" y="-190" type="curve"/>
      <point x="36" y="-300"/>
      <point x="36" y="-190"/>
      <point x="36" y="-300" type="curve"/>
      <point x="82" y="-300"/>
      <point x="127" y="-299"/>
      <point x="173" y="-299" type="curve"/>
    </contour>
    <contour>
      <point x="156" y="534"/>
      <point x="156" y="424"/>
      <point x="156" y="534" type="curve"/>
      <point x="110" y="534"/>
      <point x="64" y="533"/>
      <point x="19" y="533" type="curve"/>
      <point x="18" y="423"/>
      <point x="19" y="533"/>
      <point x="18" y="423" type="curve"/>
      <point x="156" y="424"/>
      <point x="18" y="423"/>
      <point x="156" y="424" type="curve"/>
    </contour>
    <contour>
      <point x="156" y="424"/>
      <point x="156" y="534"/>
      <point x="156" y="424" type="curve"/>
      <point x="293" y="423"/>
      <point x="156" y="424"/>
      <point x="293" y="423" type="curve"/>
      <point x="293" y="533"/>
      <point x="293" y="423"/>
      <point x="293" y="533" type="curve"/>
      <point x="247" y="533"/>
      <point x="202" y="534"/>
      <point x="156" y="534" type="curve"/>
    </contour>
    <contour>
      <point x="460" y="534"/>
      <point x="460" y="424"/>
      <point x="460" y="534" type="curve"/>
      <point x="414" y="534"/>
      <point x="368" y="533"/>
      <point x="322" y="533" type="curve"/>
      <point x="322" y="423"/>
      <point x="322" y="533"/>
      <point x="322" y="423" type="curve"/>
      <point x="460" y="424"/>
      <point x="322" y="423"/>
      <point x="460" y="424" type="curve"/>
    </contour>
    <contour>
      <point x="460" y="424"/>
      <point x="460" y="534"/>
      <point x="460" y="424" type="curve"/>
      <point x="597" y="423"/>
      <point x="460" y="424"/>
      <point x="597" y="423" type="curve"/>
      <point x="597" y="533"/>
      <point x="597" y="423"/>
      <point x="597" y="533" type="curve"/>
      <point x="551" y="533"/>
      <point x="505" y="534"/>
      <point x="460" y="534" type="curve"/>
    </contour>
    <contour>
      <point x="363" y="77"/>
      <point x="231" y="77"/>
      <point x="363" y="77" type="curve"/>
      <point x="314" y="229"/>
      <point x="268" y="380"/>
      <point x="219" y="533" type="curve"/>
      <point x="73" y="533"/>
      <point x="219" y="533"/>
      <point x="73" y="533" type="curve"/>
      <point x="126" y="381"/>
      <point x="178" y="229"/>
      <point x="231" y="77" type="curve"/>
    </contour>
    <contour>
      <point x="237" y="-300"/>
      <point x="91" y="-300"/>
      <point x="237" y="-300" type="curve"/>
      <point x="338" y="-22"/>
      <point x="440" y="255"/>
      <point x="541" y="533" type="curve"/>
      <point x="396" y="533"/>
      <point x="541" y="533"/>
      <point x="396" y="533" type="curve"/>
      <point x="294" y="255"/>
      <point x="192" y="-22"/>
      <point x="91" y="-300" type="curve"/>
    </contour>
  </outline>
</glyph>
<glyph name="dvvR" format="1">
  <advance width="726"/>
  <unicode hex="090B"/>
  <outline>
    <contour>
      <point x="484" y="57"/>
      <point x="471" y="162"/>
      <point x="484" y="57" type="curve"/>
      <point x="618" y="57"/>
      <point x="696" y="147"/>
      <point x="696" y="265" type="curve"/>
      <point x="696" y="404"/>
      <point x="626" y="478"/>
      <point x="529" y="566" type="curve"/>
      <point x="438" y="483"/>
      <point x="529" y="566"/>
      <point x="438" y="483" type="curve"/>
      <point x="513" y="415"/>
      <point x="566" y="357"/>
      <point x="566" y="249" type="curve"/>
      <point x="566" y="198"/>
      <point x="530" y="162"/>
      <point x="471" y="162" type="curve"/>
    </contour>
    <contour>
      <point x="337" y="320"/>
      <point x="369" y="430"/>
      <point x="337" y="320" type="curve"/>
      <point x="376" y="302"/>
      <point x="402" y="301"/>
      <point x="443" y="301" type="curve"/>
      <point x="548" y="301"/>
      <point x="610" y="367"/>
      <point x="610" y="472" type="curve"/>
      <point x="610" y="530"/>
      <point x="581" y="569"/>
      <point x="529" y="566" type="curve"/>
      <point x="438" y="483"/>
      <point x="529" y="566"/>
      <point x="438" y="483" type="curve"/>
      <point x="454" y="476"/>
      <point x="480" y="483"/>
      <point x="480" y="472" type="curve"/>
      <point x="480" y="439"/>
      <point x="478" y="411"/>
      <point x="449" y="411" type="curve"/>
      <point x="419" y="411"/>
      <point x="400" y="417"/>
      <point x="369" y="430" type="curve"/>
    </contour>
    <contour>
      <point x="99" y="420"/>
      <point x="17" y="501"/>
      <point x="99" y="420" type="curve"/>
      <point x="117" y="440"/>
      <point x="133" y="451"/>
      <point x="159" y="451" type="curve"/>
      <point x="247" y="451"/>
      <point x="296.746026389" y="359.12963588"/>
      <point x="332" y="318" type="curve"/>
      <point x="390" y="423"/>
      <point x="332" y="318"/>
      <point x="390" y="423" type="curve"/>
      <point x="347" y="473"/>
      <point x="275" y="567"/>
      <point x="172" y="567" type="curve"/>
      <point x="107" y="567"/>
      <point x="64" y="545"/>
      <point x="17" y="501" type="curve"/>
    </contour>
    <contour>
      <point x="161" y="152"/>
      <point x="90" y="251"/>
      <point x="161" y="152" type="curve"/>
      <point x="241" y="213"/>
      <point x="319" y="277"/>
      <point x="399" y="337" type="curve"/>
      <point x="321" y="420"/>
      <point x="399" y="337"/>
      <point x="321" y="420" type="curve"/>
      <point x="245" y="363"/>
      <point x="166" y="309"/>
      <point x="90" y="251" type="curve"/>
    </contour>
    <contour>
      <point x="288" y="711"/>
      <point x="431" y="711"/>
      <point x="288" y="711" type="curve"/>
      <point x="288" y="474"/>
      <point x="288" y="237"/>
      <point x="288" y="0" type="curve"/>
      <point x="431" y="0"/>
      <point x="288" y="0"/>
      <point x="431" y="0" type="curve"/>
      <point x="431" y="237"/>
      <point x="431" y="474"/>
      <point x="431" y="711" type="curve"/>
    </contour>
    <contour>
      <point x="733" y="722"/>
      <point x="733" y="612"/>
      <point x="733" y="722" type="curve"/>
      <point x="483" y="722"/>
      <point x="233.0" y="722.0"/>
      <point x="-17" y="722" type="curve"/>
      <point x="-17" y="612"/>
      <point x="-17" y="722"/>
      <point x="-17" y="612" type="curve"/>
      <point x="233.0" y="612.0"/>
      <point x="483" y="612"/>
      <point x="733" y="612" type="curve"/>
    </contour>
  </outline>
</glyph>
<glyph name="dvvL" format="1">
  <advance width="679"/>
  <unicode hex="090C"/>
  <outline>
    <contour>
      <point x="399" y="295"/>
      <point x="269" y="272"/>
      <point x="399" y="295" type="curve"/>
      <point x="386" y="365"/>
      <point x="384" y="434"/>
      <point x="438" y="434" type="curve"/>
      <point x="480" y="434"/>
      <point x="497" y="400"/>
      <point x="497" y="356" type="curve"/>
      <point x="497" y="315"/>
      <point x="482" y="285"/>
      <point x="456" y="253" type="curve"/>
      <point x="401" y="185"/>
      <point x="340" y="136"/>
      <point x="339" y="49" type="curve"/>
      <point x="339" y="-41"/>
      <point x="400" y="-100"/>
      <point x="488" y="-100" type="curve"/>
      <point x="540" y="-100"/>
      <point x="579" y="-84"/>
      <point x="624" y="-41" type="curve"/>
      <point x="546" y="44"/>
      <point x="624" y="-41"/>
      <point x="546" y="44" type="curve"/>
      <point x="534" y="30"/>
      <point x="524" y="16"/>
      <point x="506" y="16" type="curve"/>
      <point x="484" y="16"/>
      <point x="475" y="33"/>
      <point x="475" y="54" type="curve"/>
      <point x="475" y="96"/>
      <point x="506" y="124"/>
      <point x="534" y="159" type="curve"/>
      <point x="588" y="226"/>
      <point x="640" y="278"/>
      <point x="640" y="362" type="curve"/>
      <point x="640" y="472"/>
      <point x="562" y="544"/>
      <point x="451" y="544" type="curve"/>
      <point x="304" y="544"/>
      <point x="242" y="420"/>
      <point x="269" y="272" type="curve"/>
    </contour>
    <contour>
      <point x="682" y="722"/>
      <point x="682" y="612"/>
      <point x="682" y="722" type="curve"/>
      <point x="453" y="722"/>
      <point x="222" y="722"/>
      <point x="-7" y="722" type="curve"/>
      <point x="-7" y="612"/>
      <point x="-7" y="722"/>
      <point x="-7" y="612" type="curve"/>
      <point x="222" y="612"/>
      <point x="453" y="612"/>
      <point x="682" y="612" type="curve"/>
    </contour>
    <contour>
      <point x="371" y="666"/>
      <point x="514" y="666"/>
      <point x="371" y="666" type="curve"/>
      <point x="371" y="607"/>
      <point x="371" y="549"/>
      <point x="371" y="490" type="curve"/>
      <point x="514" y="490"/>
      <point x="371" y="490"/>
      <point x="514" y="490" type="curve"/>
      <point x="514" y="549"/>
      <point x="514" y="607"/>
      <point x="514" y="666" type="curve"/>
    </contour>
    <contour>
      <point x="245" y="150"/>
      <point x="173" y="56"/>
      <point x="245" y="150" type="curve"/>
      <point x="184" y="194"/>
      <point x="154" y="251"/>
      <point x="154" y="324" type="curve"/>
      <point x="154" y="389"/>
      <point x="172" y="431"/>
      <point x="220" y="431" type="curve"/>
      <point x="260" y="431"/>
      <point x="285" y="411"/>
      <point x="312" y="377" type="curve"/>
      <point x="377" y="465"/>
      <point x="312" y="377"/>
      <point x="377" y="465" type="curve"/>
      <point x="336" y="518"/>
      <point x="286" y="546"/>
      <point x="219" y="546" type="curve"/>
      <point x="95" y="546"/>
      <point x="23" y="449"/>
      <point x="23" y="319" type="curve"/>
      <point x="23" y="204"/>
      <point x="79" y="123"/>
      <point x="173" y="56" type="curve"/>
    </contour>
  </outline>
</glyph>
<glyph name="dvKHA" format="1">
  <advance width="756"/>
  <unicode hex="0916"/>
  <outline>
    <contour>
      <point x="607" y="0"/>
      <point x="607" y="110"/>
      <point x="607" y="0" type="curve"/>
      <point x="650" y="0"/>
      <point x="693" y="0"/>
      <point x="737" y="0" type="curve"/>
      <point x="737" y="110"/>
      <point x="737" y="0"/>
      <point x="737" y="110" type="curve"/>
      <point x="607" y="110"/>
      <point x="737" y="110"/>
      <point x="607" y="110" type="curve"/>
    </contour>
    <contour>
      <point x="535" y="710"/>
      <point x="678" y="710"/>
      <point x="535" y="710" type="curve"/>
      <point x="535" y="473"/>
      <point x="535" y="237"/>
      <point x="535" y="0" type="curve"/>
      <point x="678" y="0"/>
      <point x="535" y="0"/>
      <point x="678" y="0" type="curve"/>
      <point x="678" y="237"/>
      <point x="678" y="473"/>
      <point x="678" y="710" type="curve"/>
    </contour>
    <contour>
      <point x="-15" y="612"/>
      <point x="-15" y="722"/>
      <point x="-15" y="612" type="curve"/>
      <point x="224" y="612"/>
      <point x="525" y="612"/>
      <point x="764" y="612" type="curve"/>
      <point x="764" y="722"/>
      <point x="764" y="612"/>
      <point x="764" y="722" type="curve"/>
      <point x="525" y="722"/>
      <point x="224" y="722"/>
      <point x="-15" y="722" type="curve"/>
    </contour>
    <contour>
      <point x="652" y="475"/>
      <point x="561" y="403"/>
      <point x="652" y="475" type="curve"/>
      <point x="618" y="528"/>
      <point x="563" y="549"/>
      <point x="500" y="549" type="curve"/>
      <point x="394" y="549"/>
      <point x="336" y="485"/>
      <point x="336" y="378" type="curve"/>
      <point x="336" y="272"/>
      <point x="398" y="208"/>
      <point x="500" y="208" type="curve"/>
      <point x="565" y="208"/>
      <point x="621" y="233"/>
      <point x="655" y="291" type="curve"/>
      <point x="558" y="357"/>
      <point x="655" y="291"/>
      <point x="558" y="357" type="curve"/>
      <point x="543" y="335"/>
      <point x="526" y="318"/>
      <point x="500" y="318" type="curve"/>
      <point x="474" y="318"/>
      <point x="465" y="347"/>
      <point x="465" y="378" type="curve"/>
      <point x="465" y="409"/>
      <point x="473" y="439"/>
      <point x="500" y="439" type="curve"/>
      <point x="526" y="439"/>
      <point x="545" y="425"/>
      <point x="561" y="403" type="curve"/>
    </contour>
    <contour>
      <point x="425" y="289"/>
      <point x="542" y="261"/>
      <point x="425" y="289" type="curve"/>
      <point x="405" y="226"/>
      <point x="359" y="173"/>
      <point x="284" y="173" type="curve"/>
      <point x="156" y="173"/>
      <point x="138" y="314"/>
      <point x="138" y="462" type="curve"/>
      <point x="21" y="435"/>
      <point x="138" y="462"/>
      <point x="21" y="435" type="curve"/>
      <point x="21" y="236"/>
      <point x="87" y="63"/>
      <point x="278" y="63" type="curve"/>
      <point x="414" y="63"/>
      <point x="507" y="146"/>
      <point x="542" y="261" type="curve"/>
    </contour>
    <contour>
      <point x="153" y="634"/>
      <point x="238" y="701"/>
      <point x="153" y="634" type="curve"/>
      <point x="189" y="592"/>
      <point x="220" y="547"/>
      <point x="220" y="491" type="curve"/>
      <point x="220" y="461"/>
      <point x="214" y="427"/>
      <point x="185" y="427" type="curve"/>
      <point x="161" y="427"/>
      <point x="149" y="441"/>
      <point x="138" y="462" type="curve"/>
      <point x="21" y="435"/>
      <point x="138" y="462"/>
      <point x="21" y="435" type="curve"/>
      <point x="54" y="364"/>
      <point x="98" y="316"/>
      <point x="179" y="316" type="curve"/>
      <point x="273" y="316"/>
      <point x="332" y="393"/>
      <point x="332" y="497" type="curve"/>
      <point x="332" y="582"/>
      <point x="291" y="638"/>
      <point x="238" y="701" type="curve"/>
    </contour>
  </outline>
</glyph>
<glyph name="dvGHA" format="1">
  <advance width="553"/>
  <unicode hex="0918"/>
  <outline>
    <contour>
      <point x="373" y="300"/>
      <point x="444" y="229"/>
      <point x="373" y="300" type="curve"/>
      <point x="337" y="259"/>
      <point x="308" y="230"/>
      <point x="257" y="230" type="curve"/>
      <point x="206" y="230"/>
      <point x="168" y="264"/>
      <point x="168" y="311" type="curve"/>
      <point x="168" y="360"/>
      <point x="201" y="391"/>
      <point x="247" y="391" type="curve"/>
      <point x="247" y="485"/>
      <point x="247" y="391"/>
      <point x="247" y="485" type="curve"/>
      <point x="126" y="485"/>
      <point x="25" y="425"/>
      <point x="25" y="306" type="curve"/>
      <point x="25" y="191"/>
      <point x="123" y="119"/>
      <point x="250" y="119" type="curve"/>
      <point x="337" y="119"/>
      <point x="395" y="165"/>
      <point x="444" y="229" type="curve"/>
    </contour>
    <contour>
      <point x="139" y="702"/>
      <point x="230" y="630"/>
      <point x="139" y="702" type="curve"/>
      <point x="76" y="687"/>
      <point x="30" y="625"/>
      <point x="30" y="553" type="curve"/>
      <point x="29" y="447"/>
      <point x="128" y="391"/>
      <point x="247" y="391" type="curve"/>
      <point x="247" y="491"/>
      <point x="247" y="391"/>
      <point x="247" y="491" type="curve"/>
      <point x="205" y="491"/>
      <point x="173" y="517"/>
      <point x="173" y="558" type="curve"/>
      <point x="172" y="593"/>
      <point x="199" y="621"/>
      <point x="230" y="630" type="curve"/>
    </contour>
    <contour>
      <point x="343" y="710"/>
      <point x="486" y="710"/>
      <point x="343" y="710" type="curve"/>
      <point x="343" y="473"/>
      <point x="343" y="237"/>
      <point x="343" y="0" type="curve"/>
      <point x="486" y="0"/>
      <point x="343" y="0"/>
      <point x="486" y="0" type="curve"/>
      <point x="486" y="237"/>
      <point x="486" y="473"/>
      <point x="486" y="710" type="curve"/>
    </contour>
    <contour>
      <point x="555" y="722"/>
      <point x="555" y="612"/>
      <point x="555" y="722" type="curve"/>
      <point x="393" y="722"/>
      <point x="139" y="722"/>
      <point x="-23" y="722" type="curve"/>
      <point x="-23" y="612"/>
      <point x="-23" y="722"/>
      <point x="-23" y="612" type="curve"/>
      <point x="139" y="612"/>
      <point x="393" y="612"/>
      <point x="555" y="612" type="curve"/>
    </contour>
  </outline>
</glyph>
<glyph name="dvNGA" format="1">
  <advance width="636"/>
  <unicode hex="0919"/>
  <outline>
    <contour>
      <point x="610" y="400"/>
      <point x="424" y="400"/>
      <point x="610" y="400" type="curve"/>
      <point x="610" y="450"/>
      <point x="570" y="478"/>
      <point x="517" y="478" type="curve"/>
      <point x="461" y="478"/>
      <point x="424" y="445"/>
      <point x="424" y="400" type="curve"/>
      <point x="610" y="400"/>
      <point x="424" y="400"/>
      <point x="610" y="400" type="curve"/>
      <point x="610" y="346"/>
      <point x="570" y="323"/>
      <point x="517" y="323" type="curve"/>
      <point x="461" y="323"/>
      <point x="424" y="351"/>
      <point x="424" y="400" type="curve"/>
    </contour>
    <contour>
      <point x="429" y="456"/>
      <point x="286" y="566"/>
      <point x="429" y="456" type="curve"/>
      <point x="429" y="526"/>
      <point x="429" y="596"/>
      <point x="429" y="666" type="curve"/>
      <point x="286" y="666"/>
      <point x="429" y="666"/>
      <point x="286" y="666" type="curve"/>
      <point x="286" y="633"/>
      <point x="286" y="599"/>
      <point x="286" y="566" type="curve"/>
    </contour>
    <contour>
      <point x="286" y="566"/>
      <point x="429" y="456"/>
      <point x="286" y="566" type="curve"/>
      <point x="260" y="566"/>
      <point x="235" y="566"/>
      <point x="209" y="566" type="curve"/>
      <point x="99" y="566"/>
      <point x="25" y="517"/>
      <point x="25" y="410" type="curve"/>
      <point x="25" y="317"/>
      <point x="81" y="274"/>
      <point x="153" y="221" type="curve"/>
      <point x="170" y="342"/>
      <point x="153" y="221"/>
      <point x="170" y="342" type="curve"/>
      <point x="158" y="360"/>
      <point x="150" y="379"/>
      <point x="150" y="404" type="curve"/>
      <point x="150" y="440"/>
      <point x="174" y="456"/>
      <point x="209" y="456" type="curve"/>
      <point x="282" y="456"/>
      <point x="356" y="456"/>
      <point x="429" y="456" type="curve"/>
    </contour>
    <contour>
      <point x="153" y="221"/>
      <point x="170" y="342"/>
      <point x="153" y="221" type="curve"/>
      <point x="204" y="249"/>
      <point x="226" y="270"/>
      <point x="284" y="270" type="curve"/>
      <point x="312" y="270"/>
      <point x="333" y="249"/>
      <point x="333" y="218" type="curve"/>
      <point x="333" y="166"/>
      <point x="299" y="139"/>
      <point x="245" y="139" type="curve"/>
      <point x="191" y="139"/>
      <point x="170" y="166"/>
      <point x="146" y="189" type="curve"/>
      <point x="41" y="112"/>
      <point x="146" y="189"/>
      <point x="41" y="112" type="curve"/>
      <point x="85" y="63"/>
      <point x="137" y="23"/>
      <point x="245" y="23" type="curve"/>
      <point x="384" y="23"/>
      <point x="476" y="87"/>
      <point x="476" y="218" type="curve"/>
      <point x="474" y="322"/>
      <point x="412" y="381"/>
      <point x="306" y="381" type="curve"/>
      <point x="254" y="381"/>
      <point x="215" y="374"/>
      <point x="170" y="342" type="curve"/>
    </contour>
    <contour>
      <point x="-7" y="612"/>
      <point x="-7" y="722"/>
      <point x="-7" y="612" type="curve"/>
      <point x="173" y="612"/>
      <point x="464" y="612"/>
      <point x="645" y="612" type="curve"/>
      <point x="645" y="722"/>
      <point x="645" y="612"/>
      <point x="645" y="722" type="curve"/>
      <point x="464" y="722"/>
      <point x="173" y="722"/>
      <point x="-7" y="722" type="curve"/>
    </contour>
  </outline>
</glyph>
<glyph name="dvCHA" format="1">
  <advance width="690"/>
  <unicode hex="091B"/>
  <outline>
    <contour>
      <point x="-6" y="612"/>
      <point x="-6" y="722"/>
      <point x="-6" y="612" type="curve"/>
      <point x="195" y="612"/>
      <point x="495" y="612"/>
      <point x="696" y="612" type="curve"/>
      <point x="696" y="722"/>
      <point x="696" y="612"/>
      <point x="696" y="722" type="curve"/>
      <point x="495" y="722"/>
      <point x="195" y="722"/>
      <point x="-6" y="722" type="curve"/>
    </contour>
    <contour>
      <point x="270" y="703"/>
      <point x="315" y="625"/>
      <point x="270" y="703" type="curve"/>
      <point x="141" y="703"/>
      <point x="42" y="635"/>
      <point x="42" y="515" type="curve"/>
      <point x="41" y="397"/>
      <point x="130" y="325"/>
      <point x="253" y="325" type="curve"/>
      <point x="253" y="425"/>
      <point x="253" y="325"/>
      <point x="253" y="425" type="curve"/>
      <point x="210" y="425"/>
      <point x="185" y="458"/>
      <point x="185" y="504" type="curve"/>
      <point x="184" y="578"/>
      <point x="238" y="625"/>
      <point x="315" y="625" type="curve"/>
    </contour>
    <contour>
      <point x="559" y="317"/>
      <point x="565" y="217"/>
      <point x="559" y="317" type="curve"/>
      <point x="492" y="299"/>
      <point x="435" y="329"/>
      <point x="435" y="389" type="curve"/>
      <point x="435" y="429"/>
      <point x="440" y="465"/>
      <point x="469" y="465" type="curve"/>
      <point x="501" y="465"/>
      <point x="509" y="430"/>
      <point x="509" y="373" type="curve"/>
      <point x="509" y="228"/>
      <point x="455" y="111"/>
      <point x="329" y="111" type="curve"/>
      <point x="245" y="111"/>
      <point x="175" y="136"/>
      <point x="175" y="210" type="curve"/>
      <point x="175" y="274"/>
      <point x="196" y="325"/>
      <point x="253" y="325" type="curve"/>
      <point x="253" y="419"/>
      <point x="253" y="325"/>
      <point x="253" y="419" type="curve"/>
      <point x="127" y="419"/>
      <point x="38" y="348"/>
      <point x="38" y="227" type="curve"/>
      <point x="38" y="76"/>
      <point x="151" y="-11"/>
      <point x="310" y="-11" type="curve"/>
      <point x="520" y="-11"/>
      <point x="644" y="144"/>
      <point x="644" y="367" type="curve"/>
      <point x="644" y="492"/>
      <point x="588" y="586"/>
      <point x="473" y="586" type="curve"/>
      <point x="362" y="586"/>
      <point x="299" y="505"/>
      <point x="299" y="389" type="curve"/>
      <point x="299" y="252"/>
      <point x="420" y="177"/>
      <point x="565" y="217" type="curve"/>
    </contour>
    <contour>
      <point x="403" y="666"/>
      <point x="546" y="666"/>
      <point x="403" y="666" type="curve"/>
      <point x="403" y="618"/>
      <point x="403" y="571"/>
      <point x="403" y="523" type="curve"/>
      <point x="546" y="523"/>
      <point x="403" y="523"/>
      <point x="546" y="523" type="curve"/>
      <point x="546" y="571"/>
      <point x="546" y="618"/>
      <point x="546" y="666" type="curve"/>
    </contour>
  </outline>
</glyph>
<glyph name="dvJHA" format="1">
  <advance width="757"/>
  <unicode hex="091D"/>
  <outline>
    <contour>
      <point x="601" y="0"/>
      <point x="601" y="111"/>
      <point x="601" y="0" type="curve"/>
      <point x="644" y="0"/>
      <point x="688" y="0"/>
      <point x="731" y="0" type="curve"/>
      <point x="731" y="111"/>
      <point x="731" y="0"/>
      <point x="731" y="111" type="curve"/>
      <point x="601" y="111"/>
      <point x="731" y="111"/>
      <point x="601" y="111" type="curve"/>
    </contour>
    <contour>
      <point x="601" y="111"/>
      <point x="601" y="0"/>
      <point x="601" y="111" type="curve"/>
      <point x="464" y="111"/>
      <point x="601" y="111"/>
      <point x="464" y="111" type="curve"/>
      <point x="464" y="0"/>
      <point x="464" y="111"/>
      <point x="464" y="0" type="curve"/>
      <point x="509" y="0"/>
      <point x="555" y="0"/>
      <point x="601" y="0" type="curve"/>
    </contour>
    <contour>
      <point x="772" y="722"/>
      <point x="772" y="612"/>
      <point x="772" y="722" type="curve"/>
      <point x="553" y="722"/>
      <point x="210" y="722"/>
      <point x="-10" y="722" type="curve"/>
      <point x="-10" y="612"/>
      <point x="-10" y="722"/>
      <point x="-10" y="612" type="curve"/>
      <point x="210" y="612"/>
      <point x="553" y="612"/>
      <point x="772" y="612" type="curve"/>
    </contour>
    <contour>
      <point x="428" y="456"/>
      <point x="285" y="566"/>
      <point x="428" y="456" type="curve"/>
      <point x="428" y="526"/>
      <point x="428" y="596"/>
      <point x="428" y="666" type="curve"/>
      <point x="285" y="666"/>
      <point x="428" y="666"/>
      <point x="285" y="666" type="curve"/>
      <point x="285" y="633"/>
      <point x="285" y="599"/>
      <point x="285" y="566" type="curve"/>
    </contour>
    <contour>
      <point x="285" y="566"/>
      <point x="428" y="456"/>
      <point x="285" y="566" type="curve"/>
      <point x="259" y="566"/>
      <point x="234" y="566"/>
      <point x="208" y="566" type="curve"/>
      <point x="98" y="566"/>
      <point x="24" y="517"/>
      <point x="24" y="410" type="curve"/>
      <point x="24" y="317"/>
      <point x="80" y="274"/>
      <point x="152" y="221" type="curve"/>
      <point x="171" y="346"/>
      <point x="152" y="221"/>
      <point x="171" y="346" type="curve"/>
      <point x="159" y="364"/>
      <point x="151" y="380"/>
      <point x="151" y="410" type="curve"/>
      <point x="151" y="439"/>
      <point x="176" y="456"/>
      <point x="208" y="456" type="curve"/>
      <point x="281" y="456"/>
      <point x="355" y="456"/>
      <point x="428" y="456" type="curve"/>
    </contour>
    <contour>
      <point x="152" y="221"/>
      <point x="171" y="346"/>
      <point x="152" y="221" type="curve"/>
      <point x="203" y="249"/>
      <point x="234" y="270"/>
      <point x="292" y="270" type="curve"/>
      <point x="320" y="270"/>
      <point x="332" y="249"/>
      <point x="332" y="218" type="curve"/>
      <point x="332" y="164"/>
      <point x="298" y="135"/>
      <point x="244" y="135" type="curve"/>
      <point x="203" y="135"/>
      <point x="188" y="166"/>
      <point x="178" y="209" type="curve"/>
      <point x="61" y="132"/>
      <point x="178" y="209"/>
      <point x="61" y="132" type="curve"/>
      <point x="78" y="43"/>
      <point x="148" y="24"/>
      <point x="244" y="24" type="curve"/>
      <point x="383" y="24"/>
      <point x="475" y="88"/>
      <point x="475" y="218" type="curve"/>
      <point x="473" y="322"/>
      <point x="411" y="381"/>
      <point x="305" y="381" type="curve"/>
      <point x="253" y="381"/>
      <point x="214" y="373"/>
      <point x="171" y="346" type="curve"/>
    </contour>
    <contour>
      <point x="61" y="132"/>
      <point x="178" y="209"/>
      <point x="61" y="132" type="curve"/>
      <point x="118" y="52"/>
      <point x="171" y="-31"/>
      <point x="229" y="-111" type="curve"/>
      <point x="359" y="-28"/>
      <point x="229" y="-111"/>
      <point x="359" y="-28" type="curve"/>
      <point x="300" y="52"/>
      <point x="237" y="129"/>
      <point x="178" y="209" type="curve"/>
    </contour>
    <contour>
      <point x="296" y="283"/>
      <point x="302" y="371"/>
      <point x="296" y="283" type="curve"/>
      <point x="332" y="279"/>
      <point x="392" y="248"/>
      <point x="457" y="248" type="curve"/>
      <point x="525" y="248"/>
      <point x="604" y="272"/>
      <point x="632" y="301" type="curve"/>
      <point x="567" y="390"/>
      <point x="632" y="301"/>
      <point x="567" y="390" type="curve"/>
      <point x="547" y="373"/>
      <point x="509" y="359"/>
      <point x="470" y="359" type="curve"/>
      <point x="407" y="359"/>
      <point x="346" y="370"/>
      <point x="302" y="371" type="curve"/>
    </contour>
    <contour>
      <point x="529" y="665"/>
      <point x="672" y="665"/>
      <point x="529" y="665" type="curve"/>
      <point x="529" y="459"/>
      <point x="529" y="253"/>
      <point x="529" y="47" type="curve"/>
      <point x="672" y="47"/>
      <point x="529" y="47"/>
      <point x="672" y="47" type="curve"/>
      <point x="672" y="253"/>
      <point x="672" y="459"/>
      <point x="672" y="665" type="curve"/>
    </contour>
  </outline>
</glyph>
<glyph name="dvTTA" format="1">
  <advance width="471"/>
  <unicode hex="091F"/>
  <outline>
    <contour>
      <point x="254" y="508.584757835"/>
      <point x="397" y="398.084757835"/>
      <point x="254" y="508.584757835" type="curve"/>
      <point x="243.727272727" y="508.584757835"/>
      <point x="236.022727273" y="508.584757835"/>
      <point x="225.75" y="508.584757835" type="curve"/>
      <point x="93.682850607" y="508.584757835"/>
      <point x="19.25" y="408.692102242"/>
      <point x="19.25" y="270.407407407" type="curve"/>
      <point x="19.25" y="125.395234568"/>
      <point x="103.983427449" y="27.0035612536"/>
      <point x="245.25" y="27.0035612536" type="curve"/>
      <point x="303.833805" y="27.0035612536"/>
      <point x="345.573550272" y="41.0508375257"/>
      <point x="397.125" y="68.8277421652" type="curve"/>
      <point x="338.625" y="162.752742165"/>
      <point x="397.125" y="68.8277421652"/>
      <point x="338.625" y="162.752742165" type="curve"/>
      <point x="306.227848262" y="146.563082332"/>
      <point x="281.514304291" y="137.503561254"/>
      <point x="245.25" y="137.503561254" type="curve"/>
      <point x="181.612010249" y="137.503561254"/>
      <point x="162.25" y="198.034428509"/>
      <point x="162.25" y="270.407407407" type="curve"/>
      <point x="162.25" y="343.955158826"/>
      <point x="196.621005518" y="398.084757835"/>
      <point x="264.75" y="398.084757835" type="curve"/>
      <point x="311.9" y="398.084757835"/>
      <point x="349.85" y="398.084757835"/>
      <point x="397" y="398.084757835" type="curve"/>
    </contour>
    <contour>
      <point x="482" y="722"/>
      <point x="482" y="612"/>
      <point x="482" y="722" type="curve"/>
      <point x="319" y="722"/>
      <point x="155.1650325" y="722.0"/>
      <point x="-8.25" y="722" type="curve"/>
      <point x="-8.25" y="611.5"/>
      <point x="-8.25" y="722"/>
      <point x="-8.25" y="611.5" type="curve"/>
      <point x="155.1650325" y="611.5"/>
      <point x="319" y="612"/>
      <point x="482" y="612" type="curve"/>
    </contour>
    <contour>
      <point x="254" y="665.878917379"/>
      <point x="397" y="665.878917379"/>
      <point x="254" y="665.878917379" type="curve"/>
      <point x="254" y="613.448055178"/>
      <point x="254" y="561.015620036"/>
      <point x="254" y="508.584757835" type="curve"/>
      <point x="397" y="398.084757835"/>
      <point x="254" y="508.584757835"/>
      <point x="397" y="398.084757835" type="curve"/>
      <point x="397" y="487.348585036"/>
      <point x="397" y="576.615090178"/>
      <point x="397" y="665.878917379" type="curve"/>
    </contour>
  </outline>
</glyph>
<glyph name="dvTTHA" format="1">
  <advance width="577"/>
  <unicode hex="0920"/>
  <outline>
    <contour>
      <point x="226" y="667"/>
      <point x="369" y="667"/>
      <point x="226" y="667" type="curve"/>
      <point x="226" y="609"/>
      <point x="226" y="551"/>
      <point x="226" y="493" type="curve"/>
      <point x="369" y="493"/>
      <point x="226" y="493"/>
      <point x="369" y="493" type="curve"/>
      <point x="369" y="551"/>
      <point x="369" y="609"/>
      <point x="369" y="667" type="curve"/>
    </contour>
    <contour>
      <point x="587" y="722"/>
      <point x="587" y="612"/>
      <point x="587" y="722" type="curve"/>
      <point x="389" y="722"/>
      <point x="188.960923623" y="722.0"/>
      <point x="-9" y="722" type="curve"/>
      <point x="-9" y="612"/>
      <point x="-9" y="722"/>
      <point x="-9" y="612" type="curve"/>
      <point x="188.960923623" y="612.0"/>
      <point x="389" y="612"/>
      <point x="587" y="612" type="curve"/>
    </contour>
    <contour>
      <point x="298" y="434"/>
      <point x="298" y="555"/>
      <point x="298" y="434" type="curve"/>
      <point x="373" y="434"/>
      <point x="405" y="373"/>
      <point x="405" y="293" type="curve"/>
      <point x="405" y="206"/>
      <point x="374" y="141"/>
      <point x="296" y="141" type="curve"/>
      <point x="219" y="141"/>
      <point x="181" y="199"/>
      <point x="181" y="281" type="curve"/>
      <point x="181" y="368"/>
      <point x="216" y="434"/>
      <point x="298" y="434" type="curve"/>
      <point x="298" y="555"/>
      <point x="298" y="434"/>
      <point x="298" y="555" type="curve"/>
      <point x="131" y="555"/>
      <point x="38" y="447"/>
      <point x="38" y="281" type="curve"/>
      <point x="38" y="123"/>
      <point x="137" y="30"/>
      <point x="296" y="30" type="curve"/>
      <point x="455" y="30"/>
      <point x="548" y="131"/>
      <point x="548" y="293" type="curve"/>
      <point x="548" y="451"/>
      <point x="458" y="555"/>
      <point x="298" y="555" type="curve"/>
    </contour>
  </outline>
</glyph>
<glyph name="dvDDA" format="1">
  <advance width="514"/>
  <unicode hex="0921"/>
  <outline>
    <contour>
      <point x="148" y="212"/>
      <point x="168" y="350"/>
      <point x="148" y="212" type="curve"/>
      <point x="196" y="235"/>
      <point x="224" y="254"/>
      <point x="276" y="254" type="curve"/>
      <point x="316" y="254"/>
      <point x="328" y="226"/>
      <point x="328" y="185" type="curve"/>
      <point x="328" y="133"/>
      <point x="293" y="104"/>
      <point x="240" y="104" type="curve"/>
      <point x="196" y="104"/>
      <point x="172" y="124"/>
      <point x="141" y="154" type="curve"/>
      <point x="37" y="77"/>
      <point x="141" y="154"/>
      <point x="37" y="77" type="curve"/>
      <point x="95" y="12"/>
      <point x="153" y="-12"/>
      <point x="240" y="-12" type="curve"/>
      <point x="377" y="-12"/>
      <point x="471" y="55"/>
      <point x="471" y="185" type="curve"/>
      <point x="469" y="297"/>
      <point x="407" y="372"/>
      <point x="289" y="372" type="curve"/>
      <point x="242" y="373"/>
      <point x="210" y="371"/>
      <point x="168" y="350" type="curve"/>
    </contour>
    <contour>
      <point x="-21" y="612"/>
      <point x="-21" y="722"/>
      <point x="-21" y="612" type="curve"/>
      <point x="162.268389662" y="612.0"/>
      <point x="346" y="612"/>
      <point x="531" y="612" type="curve"/>
      <point x="531" y="722"/>
      <point x="531" y="612"/>
      <point x="531" y="722" type="curve"/>
      <point x="346" y="722"/>
      <point x="162.268389662" y="722.0"/>
      <point x="-21" y="722" type="curve"/>
    </contour>
    <contour>
      <point x="281" y="566"/>
      <point x="424" y="456"/>
      <point x="281" y="566" type="curve"/>
      <point x="255" y="566"/>
      <point x="230" y="566"/>
      <point x="204" y="566" type="curve"/>
      <point x="94" y="566"/>
      <point x="20" y="508"/>
      <point x="20" y="401" type="curve"/>
      <point x="20" y="311"/>
      <point x="75" y="267"/>
      <point x="148" y="212" type="curve"/>
      <point x="168" y="350"/>
      <point x="148" y="212"/>
      <point x="168" y="350" type="curve"/>
      <point x="152" y="364"/>
      <point x="148" y="381"/>
      <point x="148" y="401" type="curve"/>
      <point x="148" y="432"/>
      <point x="175" y="456"/>
      <point x="204" y="456" type="curve"/>
      <point x="277" y="456"/>
      <point x="351" y="456"/>
      <point x="424" y="456" type="curve"/>
    </contour>
    <contour>
      <point x="424" y="456"/>
      <point x="281" y="566"/>
      <point x="424" y="456" type="curve"/>
      <point x="424" y="526"/>
      <point x="424" y="596"/>
      <point x="424" y="666" type="curve"/>
      <point x="281" y="666"/>
      <point x="424" y="666"/>
      <point x="281" y="666" type="curve"/>
      <point x="281" y="633"/>
      <point x="281" y="599"/>
      <point x="281" y="566" type="curve"/>
    </contour>
  </outline>
</glyph>
<glyph name="dvDDHA" format="1">
  <advance width="557"/>
  <unicode hex="0922"/>
  <outline>
    <contour>
      <point x="563" y="722"/>
      <point x="563" y="612"/>
      <point x="563" y="722" type="curve"/>
      <point x="399" y="722"/>
      <point x="157" y="722"/>
      <point x="-7" y="722" type="curve"/>
      <point x="-7" y="612"/>
      <point x="-7" y="722"/>
      <point x="-7" y="612" type="curve"/>
      <point x="157" y="612"/>
      <point x="399" y="612"/>
      <point x="563" y="612" type="curve"/>
    </contour>
    <contour>
      <point x="455" y="456"/>
      <point x="312" y="567"/>
      <point x="455" y="456" type="curve"/>
      <point x="455" y="526"/>
      <point x="455" y="596"/>
      <point x="455" y="666" type="curve"/>
      <point x="312" y="666"/>
      <point x="455" y="666"/>
      <point x="312" y="666" type="curve"/>
      <point x="312" y="633"/>
      <point x="312" y="600"/>
      <point x="312" y="567" type="curve"/>
    </contour>
    <contour>
      <point x="312" y="567"/>
      <point x="455" y="456"/>
      <point x="312" y="567" type="curve"/>
      <point x="310" y="567"/>
      <point x="309" y="567"/>
      <point x="307" y="567" type="curve"/>
      <point x="136" y="567"/>
      <point x="21" y="456"/>
      <point x="21" y="286" type="curve"/>
      <point x="21" y="112"/>
      <point x="121" y="-9"/>
      <point x="283" y="-9" type="curve"/>
      <point x="422" y="-9"/>
      <point x="530" y="59"/>
      <point x="530" y="187" type="curve"/>
      <point x="530" y="289"/>
      <point x="463" y="354"/>
      <point x="360" y="354" type="curve"/>
      <point x="256" y="354"/>
      <point x="202" y="291"/>
      <point x="202" y="187" type="curve"/>
      <point x="202" y="104"/>
      <point x="270" y="47"/>
      <point x="318" y="14" type="curve"/>
      <point x="370" y="86"/>
      <point x="318" y="14"/>
      <point x="370" y="86" type="curve"/>
      <point x="335" y="109"/>
      <point x="324" y="144"/>
      <point x="324" y="187" type="curve"/>
      <point x="324" y="216"/>
      <point x="329" y="244"/>
      <point x="354" y="244" type="curve"/>
      <point x="380" y="244"/>
      <point x="387" y="218"/>
      <point x="387" y="187" type="curve"/>
      <point x="387" y="135"/>
      <point x="345" y="102"/>
      <point x="290" y="102" type="curve"/>
      <point x="198" y="102"/>
      <point x="164" y="191"/>
      <point x="164" y="297" type="curve"/>
      <point x="164" y="389"/>
      <point x="218" y="456"/>
      <point x="307" y="456" type="curve"/>
      <point x="356" y="456"/>
      <point x="405" y="456"/>
      <point x="455" y="456" type="curve"/>
    </contour>
  </outline>
</glyph>
<glyph name="dvDHA" format="1">
  <advance width="589"/>
  <unicode hex="0927"/>
  <outline>
    <contour>
      <point x="438" y="0"/>
      <point x="438" y="111"/>
      <point x="438" y="0" type="curve"/>
      <point x="481" y="0"/>
      <point x="525" y="0"/>
      <point x="568" y="0" type="curve"/>
      <point x="568" y="111"/>
      <point x="568" y="0"/>
      <point x="568" y="111" type="curve"/>
      <point x="438" y="111"/>
      <point x="568" y="111"/>
      <point x="438" y="111" type="curve"/>
    </contour>
    <contour>
      <point x="438" y="111"/>
      <point x="438" y="0"/>
      <point x="438" y="111" type="curve"/>
      <point x="301" y="111"/>
      <point x="438" y="111"/>
      <point x="301" y="111" type="curve"/>
      <point x="301" y="0"/>
      <point x="301" y="111"/>
      <point x="301" y="0" type="curve"/>
      <point x="346" y="0"/>
      <point x="392" y="0"/>
      <point x="438" y="0" type="curve"/>
    </contour>
    <contour>
      <point x="600" y="722"/>
      <point x="600" y="612"/>
      <point x="600" y="722" type="curve"/>
      <point x="562" y="722"/>
      <point x="467" y="722"/>
      <point x="430" y="722" type="curve"/>
      <point x="430" y="612"/>
      <point x="430" y="722"/>
      <point x="430" y="612" type="curve"/>
      <point x="467" y="612"/>
      <point x="562" y="612"/>
      <point x="600" y="612" type="curve"/>
    </contour>
    <contour>
      <point x="376" y="340"/>
      <point x="460" y="301"/>
      <point x="376" y="340" type="curve"/>
      <point x="356" y="272"/>
      <point x="324" y="225"/>
      <point x="264" y="225" type="curve"/>
      <point x="210" y="225"/>
      <point x="168" y="253"/>
      <point x="168" y="302" type="curve"/>
      <point x="168" y="354"/>
      <point x="215" y="380"/>
      <point x="271" y="380" type="curve"/>
      <point x="271" y="474"/>
      <point x="271" y="380"/>
      <point x="271" y="474" type="curve"/>
      <point x="138" y="474"/>
      <point x="25" y="417"/>
      <point x="25" y="297" type="curve"/>
      <point x="25" y="181"/>
      <point x="126" y="115"/>
      <point x="251" y="115" type="curve"/>
      <point x="363" y="115"/>
      <point x="437" y="197"/>
      <point x="460" y="301" type="curve"/>
    </contour>
    <contour>
      <point x="510" y="0"/>
      <point x="367" y="0"/>
      <point x="510" y="0" type="curve"/>
      <point x="510" y="241"/>
      <point x="510" y="481"/>
      <point x="510" y="722" type="curve"/>
      <point x="367" y="722"/>
      <point x="510" y="722"/>
      <point x="367" y="722" type="curve"/>
      <point x="367" y="481"/>
      <point x="367" y="241"/>
      <point x="367" y="0" type="curve"/>
    </contour>
    <contour>
      <point x="311" y="492"/>
      <point x="233" y="552"/>
      <point x="311" y="492" type="curve"/>
      <point x="332" y="516"/>
      <point x="351" y="545"/>
      <point x="351" y="584" type="curve"/>
      <point x="351" y="670"/>
      <point x="298" y="727"/>
      <point x="211" y="727" type="curve"/>
      <point x="108" y="727"/>
      <point x="34" y="656"/>
      <point x="34" y="555" type="curve"/>
      <point x="34" y="433"/>
      <point x="145" y="380"/>
      <point x="271" y="380" type="curve"/>
      <point x="271" y="474"/>
      <point x="271" y="380"/>
      <point x="271" y="474" type="curve"/>
      <point x="218" y="474"/>
      <point x="177" y="505"/>
      <point x="177" y="560" type="curve"/>
      <point x="177" y="587"/>
      <point x="183" y="617"/>
      <point x="207" y="617" type="curve"/>
      <point x="229" y="617"/>
      <point x="239" y="597"/>
      <point x="239" y="573" type="curve"/>
      <point x="239" y="565"/>
      <point x="238" y="559"/>
      <point x="233" y="552" type="curve"/>
    </contour>
  </outline>
</glyph>
<glyph name="dvPHA" format="1">
  <advance width="788.0"/>
  <unicode hex="092B"/>
  <outline>
    <contour>
      <point x="394" y="111"/>
      <point x="394" y="0"/>
      <point x="394" y="111" type="curve"/>
      <point x="256" y="111"/>
      <point x="394" y="111"/>
      <point x="256" y="111" type="curve"/>
      <point x="256" y="0"/>
      <point x="256" y="111"/>
      <point x="256" y="0" type="curve"/>
      <point x="302" y="0"/>
      <point x="348" y="0"/>
      <point x="394" y="0" type="curve"/>
    </contour>
    <contour>
      <point x="394" y="0"/>
      <point x="394" y="111"/>
      <point x="394" y="0" type="curve"/>
      <point x="437" y="0"/>
      <point x="480" y="0"/>
      <point x="523" y="0" type="curve"/>
      <point x="523" y="111"/>
      <point x="523" y="0"/>
      <point x="523" y="111" type="curve"/>
      <point x="394" y="111"/>
      <point x="523" y="111"/>
      <point x="394" y="111" type="curve"/>
    </contour>
    <contour>
      <point x="792" y="722"/>
      <point x="792" y="612"/>
      <point x="792" y="722" type="curve"/>
      <point x="566" y="722"/>
      <point x="218" y="722"/>
      <point x="-8" y="722" type="curve"/>
      <point x="-8" y="612"/>
      <point x="-8" y="722"/>
      <point x="-8" y="612" type="curve"/>
      <point x="218" y="612"/>
      <point x="566" y="612"/>
      <point x="792" y="612" type="curve"/>
    </contour>
    <contour>
      <point x="63" y="665"/>
      <point x="206" y="665"/>
      <point x="63" y="665" type="curve"/>
      <point x="63" y="585"/>
      <point x="63" y="505"/>
      <point x="63" y="425" type="curve"/>
      <point x="63" y="290"/>
      <point x="122" y="188"/>
      <point x="245" y="188" type="curve"/>
      <point x="337" y="188"/>
      <point x="405" y="234"/>
      <point x="436" y="321" type="curve"/>
      <point x="358" y="387"/>
      <point x="436" y="321"/>
      <point x="358" y="387" type="curve"/>
      <point x="341" y="345"/>
      <point x="315" y="315"/>
      <point x="271" y="315" type="curve"/>
      <point x="224" y="315"/>
      <point x="206" y="356"/>
      <point x="206" y="409" type="curve"/>
      <point x="206" y="494"/>
      <point x="206" y="580"/>
      <point x="206" y="665" type="curve"/>
    </contour>
    <contour>
      <point x="321" y="710"/>
      <point x="464" y="710"/>
      <point x="321" y="710" type="curve"/>
      <point x="321" y="473"/>
      <point x="321" y="237"/>
      <point x="321" y="0" type="curve"/>
      <point x="464" y="0"/>
      <point x="321" y="0"/>
      <point x="464" y="0" type="curve"/>
      <point x="464" y="237"/>
      <point x="464" y="473"/>
      <point x="464" y="710" type="curve"/>
    </contour>
    <contour>
      <point x="449" y="330"/>
      <point x="339" y="330"/>
      <point x="449" y="330" type="curve"/>
      <point x="459" y="374"/>
      <point x="493" y="403"/>
      <point x="538" y="403" type="curve"/>
      <point x="576" y="403"/>
      <point x="594" y="364"/>
      <point x="594" y="321" type="curve"/>
      <point x="594" y="276"/>
      <point x="587" y="232"/>
      <point x="549" y="232" type="curve"/>
      <point x="540" y="232"/>
      <point x="534" y="235"/>
      <point x="526" y="237" type="curve"/>
      <point x="488" y="144"/>
      <point x="526" y="237"/>
      <point x="488" y="144" type="curve"/>
      <point x="512" y="127"/>
      <point x="542" y="121"/>
      <point x="564" y="121" type="curve"/>
      <point x="675" y="121"/>
      <point x="737" y="208"/>
      <point x="737" y="321" type="curve"/>
      <point x="737" y="434"/>
      <point x="652" y="514"/>
      <point x="538" y="514" type="curve"/>
      <point x="432" y="514"/>
      <point x="361" y="436"/>
      <point x="339" y="330" type="curve"/>
    </contour>
  </outline>
</glyph>
<glyph name="dvRA" format="1">
  <advance width="399"/>
  <unicode hex="0930"/>
  <outline>
    <contour>
      <point x="338" y="81"/>
      <point x="195" y="15"/>
      <point x="338" y="81" type="curve"/>
      <point x="275" y="199"/>
      <point x="200" y="310"/>
      <point x="137" y="428" type="curve"/>
      <point x="20" y="378"/>
      <point x="137" y="428"/>
      <point x="20" y="378" type="curve"/>
      <point x="82" y="259"/>
      <point x="133" y="134"/>
      <point x="195" y="15" type="curve"/>
    </contour>
    <contour>
      <point x="406" y="722"/>
      <point x="406" y="612"/>
      <point x="406" y="722" type="curve"/>
      <point x="287" y="722"/>
      <point x="100" y="722"/>
      <point x="-20" y="722" type="curve"/>
      <point x="-20" y="612"/>
      <point x="-20" y="722"/>
      <point x="-20" y="612" type="curve"/>
      <point x="100" y="612"/>
      <point x="287" y="612"/>
      <point x="406" y="612" type="curve"/>
    </contour>
    <contour>
      <point x="146" y="624"/>
      <point x="244" y="707"/>
      <point x="146" y="624" type="curve"/>
      <point x="197" y="579"/>
      <point x="227" y="527"/>
      <point x="227" y="461" type="curve"/>
      <point x="227" y="417"/>
      <point x="217" y="376"/>
      <point x="180" y="376" type="curve"/>
      <point x="153" y="376"/>
      <point x="149" y="404"/>
      <point x="137" y="428" type="curve"/>
      <point x="20" y="378"/>
      <point x="137" y="428"/>
      <point x="20" y="378" type="curve"/>
      <point x="55" y="322"/>
      <point x="98" y="266"/>
      <point x="180" y="266" type="curve"/>
      <point x="293" y="266"/>
      <point x="364" y="350"/>
      <point x="364" y="466" type="curve"/>
      <point x="364" y="566"/>
      <point x="310" y="633"/>
      <point x="244" y="707" type="curve"/>
    </contour>
  </outline>
</glyph>
<glyph name="dvLA" format="1">
  <advance width="680"/>
  <unicode hex="0932"/>
  <outline>
    <contour>
      <point x="465" y="665"/>
      <point x="608" y="665"/>
      <point x="465" y="665" type="curve"/>
      <point x="465" y="459"/>
      <point x="465" y="253"/>
      <point x="465" y="47" type="curve"/>
      <point x="608" y="47"/>
      <point x="465" y="47"/>
      <point x="608" y="47" type="curve"/>
      <point x="608" y="253"/>
      <point x="608" y="459"/>
      <point x="608" y="665" type="curve"/>
    </contour>
    <contour>
      <point x="698" y="722"/>
      <point x="698" y="612"/>
      <point x="698" y="722" type="curve"/>
      <point x="497" y="722"/>
      <point x="195" y="722"/>
      <point x="-6" y="722" type="curve"/>
      <point x="-6" y="612"/>
      <point x="-6" y="722"/>
      <point x="-6" y="612" type="curve"/>
      <point x="195" y="612"/>
      <point x="497" y="612"/>
      <point x="698" y="612" type="curve"/>
    </contour>
    <contour>
      <point x="557" y="493"/>
      <point x="511" y="399"/>
      <point x="557" y="493" type="curve"/>
      <point x="523" y="519"/>
      <point x="492" y="537"/>
      <point x="447" y="537" type="curve"/>
      <point x="318" y="537"/>
      <point x="268" y="432"/>
      <point x="268" y="288" type="curve"/>
      <point x="385" y="288"/>
      <point x="268" y="288"/>
      <point x="385" y="288" type="curve"/>
      <point x="385" y="357"/>
      <point x="388" y="427"/>
      <point x="434" y="427" type="curve"/>
      <point x="465" y="427"/>
      <point x="487" y="418"/>
      <point x="511" y="399" type="curve"/>
    </contour>
    <contour>
      <point x="303" y="93"/>
      <point x="225" y="-1"/>
      <point x="303" y="93" type="curve"/>
      <point x="221" y="159"/>
      <point x="160" y="227"/>
      <point x="160" y="335" type="curve"/>
      <point x="160" y="384"/>
      <point x="173" y="429"/>
      <point x="214" y="429" type="curve"/>
      <point x="262" y="429"/>
      <point x="281" y="401"/>
      <point x="312" y="362" type="curve"/>
      <point x="377" y="450"/>
      <point x="312" y="362"/>
      <point x="377" y="450" type="curve"/>
      <point x="333" y="506"/>
      <point x="288" y="540"/>
      <point x="219" y="540" type="curve"/>
      <point x="100" y="540"/>
      <point x="27" y="456"/>
      <point x="27" y="329" type="curve"/>
      <point x="27" y="179"/>
      <point x="109" y="90"/>
      <point x="225" y="-1" type="curve"/>
    </contour>
    <contour>
      <point x="535" y="0"/>
      <point x="535" y="111"/>
      <point x="535" y="0" type="curve"/>
      <point x="578" y="0"/>
      <point x="621" y="0"/>
      <point x="664" y="0" type="curve"/>
      <point x="664" y="111"/>
      <point x="664" y="0"/>
      <point x="664" y="111" type="curve"/>
      <point x="535" y="111"/>
      <point x="664" y="111"/>
      <point x="535" y="111" type="curve"/>
    </contour>
    <contour>
      <point x="535" y="111"/>
      <point x="535" y="0"/>
      <point x="535" y="111" type="curve"/>
      <point x="397" y="111"/>
      <point x="535" y="111"/>
      <point x="397" y="111" type="curve"/>
      <point x="397" y="0"/>
      <point x="397" y="111"/>
      <point x="397" y="0" type="curve"/>
      <point x="443" y="0"/>
      <point x="489" y="0"/>
      <point x="535" y="0" type="curve"/>
    </contour>
  </outline>
</glyph>
<glyph name="dvVA" format="1">
  <advance width="509"/>
  <unicode hex="0935"/>
  <outline>
    <contour>
      <point x="353" y="111"/>
      <point x="353" y="0"/>
      <point x="353" y="111" type="curve"/>
      <point x="216" y="111"/>
      <point x="353" y="111"/>
      <point x="216" y="111" type="curve"/>
      <point x="216" y="0"/>
      <point x="216" y="111"/>
      <point x="216" y="0" type="curve"/>
      <point x="262" y="0"/>
      <point x="308" y="0"/>
      <point x="353" y="0" type="curve"/>
    </contour>
    <contour>
      <point x="353" y="0"/>
      <point x="353" y="111"/>
      <point x="353" y="0" type="curve"/>
      <point x="399" y="0"/>
      <point x="445" y="0"/>
      <point x="491" y="0" type="curve"/>
      <point x="491" y="111"/>
      <point x="491" y="0"/>
      <point x="491" y="111" type="curve"/>
      <point x="353" y="111"/>
      <point x="491" y="111"/>
      <point x="353" y="111" type="curve"/>
    </contour>
    <contour>
      <point x="-6.75" y="611.5"/>
      <point x="-6.75" y="722"/>
      <point x="-6.75" y="611.5" type="curve"/>
      <point x="149.4984375" y="611.5"/>
      <point x="359" y="612"/>
      <point x="515" y="612" type="curve"/>
      <point x="515" y="722"/>
      <point x="515" y="612"/>
      <point x="515" y="722" type="curve"/>
      <point x="359" y="722"/>
      <point x="149.4984375" y="722"/>
      <point x="-6.75" y="722" type="curve"/>
    </contour>
    <contour>
      <point x="281" y="710"/>
      <point x="424" y="710"/>
      <point x="281" y="710" type="curve"/>
      <point x="281" y="473"/>
      <point x="281" y="237"/>
      <point x="281" y="0" type="curve"/>
      <point x="424" y="0"/>
      <point x="281" y="0"/>
      <point x="424" y="0" type="curve"/>
      <point x="424" y="237"/>
      <point x="424" y="473"/>
      <point x="424" y="710" type="curve"/>
    </contour>
    <contour>
      <point x="303" y="356"/>
      <point x="383" y="327"/>
      <point x="303.375" y="355.797934473" type="curve"/>
      <point x="288.486273346" y="305.937658412"/>
      <point x="257.682284651" y="273.392450142"/>
      <point x="211.5" y="273.392450142" type="curve"/>
      <point x="171.842300724" y="273.392450142"/>
      <point x="152" y="317"/>
      <point x="152" y="364" type="curve"/>
      <point x="152" y="413"/>
      <point x="172.893574752" y="457.318376068"/>
      <point x="214.5" y="457.318376068" type="curve"/>
      <point x="259.77244196" y="457.318376068"/>
      <point x="288.675079267" y="425.800880706"/>
      <point x="308.375" y="379.840883191" type="curve"/>
      <point x="379" y="416"/>
      <point x="308" y="380"/>
      <point x="379" y="416" type="curve"/>
      <point x="359" y="498"/>
      <point x="299.287297091" y="567.818376068"/>
      <point x="214.5" y="567.818376068" type="curve"/>
      <point x="100.409249439" y="567.818376068"/>
      <point x="16.25" y="486.429264031"/>
      <point x="16.25" y="369.424537037" type="curve"/>
      <point x="16.25" y="249.511836513"/>
      <point x="97.2115831326" y="162.892450142"/>
      <point x="211.5" y="162.892450142" type="curve"/>
      <point x="307.092337214" y="162.892450142"/>
      <point x="355" y="228"/>
      <point x="383" y="327" type="curve"/>
    </contour>
  </outline>
</glyph>
<glyph name="dvSSA" format="1">
  <advance width="571"/>
  <unicode hex="0937"/>
  <outline>
    <contour>
      <point x="-9.0" y="611.5"/>
      <point x="-9.0" y="722"/>
      <point x="-9.0" y="611.5" type="curve"/>
      <point x="139.99851" y="611.5"/>
      <point x="289.00149" y="611.5"/>
      <point x="438" y="611.5" type="curve"/>
      <point x="438" y="722"/>
      <point x="438" y="611.5"/>
      <point x="438" y="722" type="curve"/>
      <point x="289.00149" y="722"/>
      <point x="139.99851" y="722"/>
      <point x="-9.0" y="722" type="curve"/>
    </contour>
    <contour>
      <point x="326.25" y="110.5"/>
      <point x="326.25" y="0"/>
      <point x="326.25" y="110.5" type="curve"/>
      <point x="189" y="110.5"/>
      <point x="326.25" y="110.5"/>
      <point x="189" y="110.5" type="curve"/>
      <point x="189" y="0"/>
      <point x="189" y="110.5"/>
      <point x="189" y="0" type="curve"/>
      <point x="234.7495425" y="-5.602518043e-15"/>
      <point x="280.5004575" y="5.602518043e-15"/>
      <point x="326.25" y="0" type="curve"/>
    </contour>
    <contour>
      <point x="326.25" y="0"/>
      <point x="326.25" y="110.5"/>
      <point x="326.25" y="0" type="curve"/>
      <point x="369.4995675" y="0"/>
      <point x="412.7504325" y="0"/>
      <point x="456" y="0" type="curve"/>
      <point x="456" y="110.5"/>
      <point x="456" y="0"/>
      <point x="456" y="110.5" type="curve"/>
      <point x="326.25" y="110.5"/>
      <point x="456" y="110.5"/>
      <point x="326.25" y="110.5" type="curve"/>
    </contour>
    <contour>
      <point x="18.375" y="626.917628205"/>
      <point x="115.875" y="698.742628205"/>
      <point x="18.375" y="626.917628205" type="curve"/>
      <point x="106.148138002" y="519.649910241"/>
      <point x="192.226861998" y="411.001478648"/>
      <point x="280" y="303.733760684" type="curve"/>
      <point x="371" y="392.133760684"/>
      <point x="280" y="303.733760684"/>
      <point x="371" y="392.133760684" type="curve"/>
      <point x="286.524923894" y="494.80511711"/>
      <point x="200.350076106" y="596.071271779"/>
      <point x="115.875" y="698.742628205" type="curve"/>
    </contour>
    <contour>
      <point x="278.625" y="386.584330484"/>
      <point x="376.125" y="342.384330484"/>
      <point x="278.625" y="386.584330484" type="curve"/>
      <point x="262.429940001" y="344.157896647"/>
      <point x="236.121387851" y="318.688746439"/>
      <point x="191.875" y="318.688746439" type="curve"/>
      <point x="148.564639173" y="318.688746439"/>
      <point x="137.5" y="360.018196068"/>
      <point x="137.5" y="408.89732906" type="curve"/>
      <point x="137.5" y="494.266643924"/>
      <point x="137.5" y="579.638519894"/>
      <point x="137.5" y="665.007834758" type="curve"/>
      <point x="-5.5" y="665.007834758"/>
      <point x="137.5" y="665.007834758"/>
      <point x="-5.5" y="665.007834758" type="curve"/>
      <point x="-5.5" y="585.163464644"/>
      <point x="-5.5" y="505.316699174"/>
      <point x="-5.5" y="425.47232906" type="curve"/>
      <point x="-5.5" y="297.883355035"/>
      <point x="63.3322532858" y="208.188746439"/>
      <point x="185.375" y="208.188746439" type="curve"/>
      <point x="279.772264226" y="208.188746439"/>
      <point x="344.511168528" y="252.855347155"/>
      <point x="376.125" y="342.384330484" type="curve"/>
    </contour>
    <contour>
      <point x="396.25" y="0"/>
      <point x="253.25" y="7.44254511536e-15"/>
      <point x="396.25" y="0" type="curve"/>
      <point x="396.25" y="236.6643"/>
      <point x="396.25" y="473.3357"/>
      <point x="396.25" y="710" type="curve"/>
      <point x="253.25" y="710"/>
      <point x="396.25" y="710"/>
      <point x="253.25" y="710" type="curve"/>
      <point x="253.25" y="473.3357"/>
      <point x="253.25" y="236.6643"/>
      <point x="253.25" y="7.44254511536e-15" type="curve"/>
    </contour>
  </outline>
</glyph>
<glyph name="dvSA" format="1">
  <advance width="645"/>
  <unicode hex="0938"/>
  <outline>
    <contour>
      <point x="440" y="427"/>
      <point x="550" y="366"/>
      <point x="440" y="427" type="curve"/>
      <point x="420" y="403"/>
      <point x="407" y="379"/>
      <point x="378" y="379" type="curve"/>
      <point x="350" y="379"/>
      <point x="328" y="386"/>
      <point x="307" y="405" type="curve"/>
      <point x="223" y="338"/>
      <point x="307" y="405"/>
      <point x="223" y="338" type="curve"/>
      <point x="266" y="295"/>
      <point x="305" y="268"/>
      <point x="365" y="268" type="curve"/>
      <point x="444" y="268"/>
      <point x="500" y="302"/>
      <point x="550" y="366" type="curve"/>
    </contour>
    <contour>
      <point x="152" y="630"/>
      <point x="237" y="702"/>
      <point x="152" y="630" type="curve"/>
      <point x="198" y="581"/>
      <point x="219" y="530"/>
      <point x="219" y="464" type="curve"/>
      <point x="219" y="419"/>
      <point x="216" y="374"/>
      <point x="178" y="374" type="curve"/>
      <point x="151" y="374"/>
      <point x="147" y="404"/>
      <point x="135" y="428" type="curve"/>
      <point x="18" y="378"/>
      <point x="135" y="428"/>
      <point x="18" y="378" type="curve"/>
      <point x="42" y="327"/>
      <point x="100" y="264"/>
      <point x="178" y="264" type="curve"/>
      <point x="290" y="264"/>
      <point x="362" y="348"/>
      <point x="362" y="464" type="curve"/>
      <point x="362" y="564"/>
      <point x="304" y="628"/>
      <point x="237" y="702" type="curve"/>
    </contour>
    <contour>
      <point x="566" y="0"/>
      <point x="423" y="0"/>
      <point x="566" y="0" type="curve"/>
      <point x="566" y="237"/>
      <point x="566" y="473"/>
      <point x="566" y="710" type="curve"/>
      <point x="423" y="710"/>
      <point x="566" y="710"/>
      <point x="423" y="710" type="curve"/>
      <point x="423" y="473"/>
      <point x="423" y="237"/>
      <point x="423" y="0" type="curve"/>
    </contour>
    <contour>
      <point x="655" y="722"/>
      <point x="655" y="612"/>
      <point x="655" y="722" type="curve"/>
      <point x="459" y="722"/>
      <point x="187" y="722"/>
      <point x="-9" y="722" type="curve"/>
      <point x="-9" y="612"/>
      <point x="-9" y="722"/>
      <point x="-9" y="612" type="curve"/>
      <point x="187" y="612"/>
      <point x="459" y="612"/>
      <point x="655" y="612" type="curve"/>
    </contour>
    <contour>
      <point x="341" y="74"/>
      <point x="205" y="8"/>
      <point x="341" y="74" type="curve"/>
      <point x="276" y="194"/>
      <point x="201" y="308"/>
      <point x="135" y="428" type="curve"/>
      <point x="18" y="378"/>
      <point x="135" y="428"/>
      <point x="18" y="378" type="curve"/>
      <point x="83" y="257"/>
      <point x="139" y="130"/>
      <point x="205" y="8" type="curve"/>
    </contour>
    <contour>
      <point x="493" y="0"/>
      <point x="493" y="111"/>
      <point x="493" y="0" type="curve"/>
      <point x="536" y="0"/>
      <point x="580" y="0"/>
      <point x="623" y="0" type="curve"/>
      <point x="623" y="111"/>
      <point x="623" y="0"/>
      <point x="623" y="111" type="curve"/>
      <point x="493" y="111"/>
      <point x="623" y="111"/>
      <point x="493" y="111" type="curve"/>
    </contour>
    <contour>
      <point x="493" y="111"/>
      <point x="493" y="0"/>
      <point x="493" y="111" type="curve"/>
      <point x="356" y="111"/>
      <point x="493" y="111"/>
      <point x="356" y="111" type="curve"/>
      <point x="356" y="0"/>
      <point x="356" y="111"/>
      <point x="356" y="0" type="curve"/>
      <point x="402" y="0"/>
      <point x="448" y="0"/>
      <point x="493" y="0" type="curve"/>
    </contour>
  </outline>
</glyph>
<glyph name="dvHA" format="1">
  <advance width="550"/>
  <unicode hex="0939"/>
  <outline>
    <contour>
      <point x="373.75" y="81.6199074074"/>
      <point x="269.75" y="153.444907407"/>
      <point x="373.75" y="81.6199074074" type="curve"/>
      <point x="410.176859467" y="125.144580821"/>
      <point x="429.25" y="160.447803527"/>
      <point x="429.25" y="216.985078348" type="curve"/>
      <point x="429.25" y="329.34363356"/>
      <point x="341.271991367" y="396.215099715"/>
      <point x="223.5" y="396.215099715" type="curve"/>
      <point x="87.4126614546" y="396.215099715"/>
      <point x="-4.75" y="304.030402458"/>
      <point x="-4.75" y="167.61965812" type="curve"/>
      <point x="-4.75" y="21.6047780355"/>
      <point x="99.1866308751" y="-75.1993945869"/>
      <point x="247.75" y="-75.1993945869" type="curve"/>
      <point x="260.75" y="29.7756054131"/>
      <point x="247.75" y="-75.1993945869"/>
      <point x="260.75" y="29.7756054131" type="curve"/>
      <point x="184.170420649" y="29.7756054131"/>
      <point x="138.25" y="88.3790821221"/>
      <point x="138.25" y="167.61965812" type="curve"/>
      <point x="138.25" y="232.130534412"/>
      <point x="165.08831346" y="285.715099715"/>
      <point x="223.5" y="285.715099715" type="curve"/>
      <point x="263.192707302" y="285.715099715"/>
      <point x="286.25" y="253.577760527"/>
      <point x="286.25" y="211.460078348" type="curve"/>
      <point x="286.25" y="188.680873769"/>
      <point x="284.390625546" y="170.445960248"/>
      <point x="269.75" y="153.444907407" type="curve"/>
    </contour>
    <contour>
      <point x="421.5" y="722"/>
      <point x="421.5" y="611.5"/>
      <point x="421.5" y="722" type="curve"/>
      <point x="278.001435" y="722"/>
      <point x="134.498565" y="722"/>
      <point x="-9.0" y="722" type="curve"/>
      <point x="-9.0" y="611.5"/>
      <point x="-9.0" y="722"/>
      <point x="-9.0" y="611.5" type="curve"/>
      <point x="134.498565" y="611.5"/>
      <point x="278.001435" y="611.5"/>
      <point x="421.5" y="611.5" type="curve"/>
    </contour>
    <contour>
      <point x="193.75" y="356.120868946"/>
      <point x="89.75" y="278.770868946"/>
      <point x="193.75" y="356.120868946" type="curve"/>
      <point x="165.414450976" y="377.353684544"/>
      <point x="136" y="392.517014713"/>
      <point x="136" y="427.202279202" type="curve"/>
      <point x="136" y="444.760642829"/>
      <point x="151.379371444" y="453.834045584"/>
      <point x="170.625" y="453.834045584" type="curve"/>
      <point x="236.33267625" y="453.834045584"/>
      <point x="302.04232375" y="453.834045584"/>
      <point x="367.75" y="453.834045584" type="curve"/>
      <point x="224.75" y="564.334045584"/>
      <point x="367.75" y="453.834045584"/>
      <point x="224.75" y="564.334045584" type="curve"/>
      <point x="200.20857875" y="564.334045584"/>
      <point x="175.66642125" y="564.334045584"/>
      <point x="151.125" y="564.334045584" type="curve"/>
      <point x="59.9603561228" y="564.334045584"/>
      <point x="-7.0" y="513.628511852"/>
      <point x="-7" y="427.202279202" type="curve"/>
      <point x="-7.0" y="356.84039521"/>
      <point x="30.934950706" y="318.736575964"/>
      <point x="89.75" y="278.770868946" type="curve"/>
    </contour>
    <contour>
      <point x="224.75" y="665.878917379"/>
      <point x="367.75" y="665.878917379"/>
      <point x="224.75" y="665.878917379" type="curve"/>
      <point x="224.75" y="632.030965264"/>
      <point x="224.75" y="598.181997699"/>
      <point x="224.75" y="564.334045584" type="curve"/>
      <point x="367.75" y="453.834045584"/>
      <point x="224.75" y="564.334045584"/>
      <point x="367.75" y="453.834045584" type="curve"/>
      <point x="367.75" y="524.514962699"/>
      <point x="367.75" y="595.198000264"/>
      <point x="367.75" y="665.878917379" type="curve"/>
    </contour>
  </outline>
</glyph>
<glyph name="dvNukta" format="1">
  <advance width="0"/>
  <unicode hex="093C"/>
  <outline>
    <contour>
      <point x="-134.35" y="-30.1160968661"/>
      <point x="-320.9" y="-30.1160968661"/>
      <point x="-134.35" y="-30.1160968661" type="curve"/>
      <point x="-134.35" y="19.688682214"/>
      <point x="-174.330900935" y="47.2339031339"/>
      <point x="-227.25" y="47.2339031339" type="curve"/>
      <point x="-283.036342026" y="47.2339031339"/>
      <point x="-320.9" y="14.9427845351"/>
      <point x="-320.9" y="-30.1160968661" type="curve"/>
      <point x="-134.35" y="-30.1160968661"/>
      <point x="-320.9" y="-30.1160968661"/>
      <point x="-134.35" y="-30.1160968661" type="curve"/>
      <point x="-134.35" y="-84.0712742029"/>
      <point x="-174.330900935" y="-107.466096866"/>
      <point x="-227.25" y="-107.466096866" type="curve"/>
      <point x="-283.036342026" y="-107.466096866"/>
      <point x="-320.9" y="-79.2712402129"/>
      <point x="-320.9" y="-30.1160968661" type="curve"/>
    </contour>
  </outline>
</glyph>
<glyph name="dvvRR" format="1">
  <advance width="768"/>
  <unicode hex="0960"/>
  <outline>
    <contour>
      <point x="155" y="152"/>
      <point x="84" y="251"/>
      <point x="155" y="152" type="curve"/>
      <point x="235" y="213"/>
      <point x="313" y="277"/>
      <point x="393" y="337" type="curve"/>
      <point x="315" y="420"/>
      <point x="393" y="337"/>
      <point x="315" y="420" type="curve"/>
      <point x="239" y="363"/>
      <point x="160" y="309"/>
      <point x="84" y="251" type="curve"/>
    </contour>
    <contour>
      <point x="770" y="722"/>
      <point x="770" y="612"/>
      <point x="770" y="722" type="curve"/>
      <point x="539" y="722"/>
      <point x="216" y="722"/>
      <point x="-15" y="722" type="curve"/>
      <point x="-15" y="612"/>
      <point x="-15" y="722"/>
      <point x="-15" y="612" type="curve"/>
      <point x="216" y="612"/>
      <point x="539" y="612"/>
      <point x="770" y="612" type="curve"/>
    </contour>
    <contour>
      <point x="331" y="320"/>
      <point x="363" y="430"/>
      <point x="331" y="320" type="curve"/>
      <point x="365" y="304"/>
      <point x="391" y="298"/>
      <point x="428" y="298" type="curve"/>
      <point x="537" y="298"/>
      <point x="592" y="376"/>
      <point x="592" y="484" type="curve"/>
      <point x="592" y="532"/>
      <point x="568" y="565"/>
      <point x="523" y="563" type="curve"/>
      <point x="432" y="485"/>
      <point x="523" y="563"/>
      <point x="432" y="485" type="curve"/>
      <point x="448" y="479"/>
      <point x="462" y="466"/>
      <point x="462" y="457" type="curve"/>
      <point x="462" y="432"/>
      <point x="457" y="408"/>
      <point x="435" y="408" type="curve"/>
      <point x="406" y="408"/>
      <point x="389" y="419"/>
      <point x="363" y="430" type="curve"/>
    </contour>
    <contour>
      <point x="107" y="421"/>
      <point x="26" y="501"/>
      <point x="107" y="421" type="curve"/>
      <point x="126" y="440"/>
      <point x="142" y="456"/>
      <point x="168" y="456" type="curve"/>
      <point x="246" y="456"/>
      <point x="288" y="358"/>
      <point x="326" y="318" type="curve"/>
      <point x="384" y="423"/>
      <point x="326" y="318"/>
      <point x="384" y="423" type="curve"/>
      <point x="342" y="471"/>
      <point x="277" y="567"/>
      <point x="181" y="567" type="curve"/>
      <point x="116" y="567"/>
      <point x="74" y="546"/>
      <point x="26" y="501" type="curve"/>
    </contour>
    <contour>
      <point x="282" y="711"/>
      <point x="425" y="711"/>
      <point x="282" y="711" type="curve"/>
      <point x="282" y="474"/>
      <point x="282" y="237"/>
      <point x="282" y="0" type="curve"/>
      <point x="425" y="0"/>
      <point x="282" y="0"/>
      <point x="425" y="0" type="curve"/>
      <point x="425" y="237"/>
      <point x="425" y="474"/>
      <point x="425" y="711" type="curve"/>
    </contour>
    <contour>
      <point x="671" y="179"/>
      <point x="755" y="106"/>
      <point x="671" y="179" type="curve"/>
      <point x="655" y="159"/>
      <point x="643" y="147"/>
      <point x="622" y="147" type="curve"/>
      <point x="598" y="147"/>
      <point x="579" y="168"/>
      <point x="580" y="199" type="curve"/>
      <point x="580" y="219"/>
      <point x="586" y="252"/>
      <point x="631" y="253" type="curve"/>
      <point x="650" y="372"/>
      <point x="631" y="253"/>
      <point x="650" y="372" type="curve"/>
      <point x="549" y="348"/>
      <point x="459" y="290"/>
      <point x="460" y="193" type="curve"/>
      <point x="460" y="95"/>
      <point x="528" y="37"/>
      <point x="615" y="37" type="curve"/>
      <point x="673" y="37"/>
      <point x="714" y="63"/>
      <point x="755" y="106" type="curve"/>
    </contour>
    <contour>
      <point x="432" y="485"/>
      <point x="523" y="563"/>
      <point x="432" y="485" type="curve"/>
      <point x="488" y="408"/>
      <point x="549" y="334"/>
      <point x="631" y="253" type="curve"/>
      <point x="650" y="372"/>
      <point x="631" y="253"/>
      <point x="650" y="372" type="curve"/>
      <point x="606" y="434"/>
      <point x="567" y="500"/>
      <point x="523" y="563" type="curve"/>
    </contour>
  </outline>
</glyph>
<glyph name="danda" format="1">
  <advance width="321"/>
  <unicode hex="0964"/>
  <outline>
    <contour>
      <point x="91.25" y="722"/>
      <point x="234.25" y="722"/>
      <point x="91.25" y="722" type="curve"/>
      <point x="91.25" y="481.33574"/>
      <point x="91.25" y="240.66426"/>
      <point x="91.25" y="7.44254511536e-15" type="curve"/>
      <point x="234.25" y="-1.48850902307e-14"/>
      <point x="91.25" y="7.44254511536e-15"/>
      <point x="234.25" y="-1.48850902307e-14" type="curve"/>
      <point x="234.25" y="240.66426"/>
      <point x="234.25" y="481.33574"/>
      <point x="234.25" y="722" type="curve"/>
    </contour>
  </outline>
</glyph>
<glyph name="dvZero" format="1">
  <advance width="541"/>
  <unicode hex="0966"/>
  <outline>
    <contour>
      <point x="183" y="351"/>
      <point x="40" y="351"/>
      <point x="183" y="351" type="curve"/>
      <point x="183" y="436"/>
      <point x="194" y="510"/>
      <point x="267" y="510" type="curve"/>
      <point x="341" y="510"/>
      <point x="366" y="440"/>
      <point x="365" y="353" type="curve"/>
      <point x="365" y="270"/>
      <point x="348" y="200"/>
      <point x="277" y="200" type="curve"/>
      <point x="204" y="200"/>
      <point x="183" y="268"/>
      <point x="183" y="351" type="curve"/>
      <point x="40" y="351"/>
      <point x="183" y="351"/>
      <point x="40" y="351" type="curve"/>
      <point x="40" y="196"/>
      <point x="120" y="90"/>
      <point x="270" y="90" type="curve"/>
      <point x="422" y="90"/>
      <point x="508" y="200"/>
      <point x="508" y="359" type="curve"/>
      <point x="508" y="513"/>
      <point x="426" y="621"/>
      <point x="280" y="621" type="curve"/>
      <point x="127" y="621"/>
      <point x="40" y="511"/>
      <point x="40" y="351" type="curve"/>
    </contour>
  </outline>
</glyph>
<glyph name="dvOne" format="1">
  <advance width="450"/>
  <unicode hex="0967"/>
  <outline>
    <contour>
      <point x="334" y="-15"/>
      <point x="198" y="34"/>
      <point x="334" y="-15" type="curve"/>
      <point x="346" y="6"/>
      <point x="356" y="48"/>
      <point x="356" y="86" type="curve"/>
      <point x="356" y="222"/>
      <point x="224" y="277"/>
      <point x="92" y="318" type="curve"/>
      <point x="92" y="197"/>
      <point x="92" y="318"/>
      <point x="92" y="197" type="curve"/>
      <point x="156" y="176"/>
      <point x="206" y="133"/>
      <point x="206" y="69" type="curve"/>
      <point x="206" y="56"/>
      <point x="202" y="43"/>
      <point x="198" y="34" type="curve"/>
    </contour>
    <contour>
      <point x="299" y="399"/>
      <point x="254" y="299"/>
      <point x="299" y="399" type="curve"/>
      <point x="225" y="408"/>
      <point x="180" y="454"/>
      <point x="180" y="527" type="curve"/>
      <point x="180.0" y="572.0"/>
      <point x="187" y="610"/>
      <point x="225" y="610" type="curve"/>
      <point x="268" y="610"/>
      <point x="278.000018945" y="566.999014845"/>
      <point x="279" y="515" type="curve"/>
      <point x="279" y="406"/>
      <point x="200" y="354"/>
      <point x="92" y="318" type="curve"/>
      <point x="92" y="197"/>
      <point x="92" y="318"/>
      <point x="92" y="197" type="curve"/>
      <point x="279" y="253"/>
      <point x="422" y="335"/>
      <point x="422" y="520" type="curve"/>
      <point x="422" y="647"/>
      <point x="351" y="732"/>
      <point x="229" y="732" type="curve"/>
      <point x="107" y="732"/>
      <point x="38" y="648"/>
      <point x="37" y="522" type="curve"/>
      <point x="36" y="392"/>
      <point x="121" y="314"/>
      <point x="254" y="299" type="curve"/>
    </contour>
  </outline>
</glyph>
<glyph name="dvTwo" format="1">
  <advance width="489.0"/>
  <unicode hex="0968"/>
  <outline>
    <contour>
      <point x="28" y="274"/>
      <point x="138" y="334"/>
      <point x="28" y="274" type="curve"/>
      <point x="105" y="169"/>
      <point x="175" y="58"/>
      <point x="252" y="-47" type="curve"/>
      <point x="376" y="36"/>
      <point x="252" y="-47"/>
      <point x="376" y="36" type="curve"/>
      <point x="299" y="138"/>
      <point x="215" y="233"/>
      <point x="138" y="334" type="curve"/>
    </contour>
    <contour>
      <point x="127" y="580"/>
      <point x="62" y="663"/>
      <point x="127" y="580" type="curve"/>
      <point x="153" y="602"/>
      <point x="177" y="617"/>
      <point x="211" y="617" type="curve"/>
      <point x="282" y="618"/>
      <point x="316" y="554"/>
      <point x="317" y="475" type="curve"/>
      <point x="319" y="374"/>
      <point x="269" y="294"/>
      <point x="176" y="297" type="curve"/>
      <point x="154" y="297"/>
      <point x="138" y="312"/>
      <point x="138" y="334" type="curve"/>
      <point x="28" y="274"/>
      <point x="138" y="334"/>
      <point x="28" y="274" type="curve"/>
      <point x="28" y="206"/>
      <point x="98" y="186"/>
      <point x="176" y="186" type="curve"/>
      <point x="348" y="179"/>
      <point x="463" y="304"/>
      <point x="460" y="481" type="curve"/>
      <point x="459" y="627"/>
      <point x="362" y="727"/>
      <point x="218" y="728" type="curve"/>
      <point x="155" y="728"/>
      <point x="109" y="704"/>
      <point x="62" y="663" type="curve"/>
    </contour>
  </outline>
</glyph>
